SplineFontDB: 3.2
FontName: ReproTypewr
FullName: Reproducing Typewriter
FamilyName: Reproducing Typewriter
Weight: Regular
Copyright: Copyright (c) 2024, Darren Embry
UComments: "2024-10-17: Created with FontForge (http://fontforge.org)"
Version: 001.000
ItalicAngle: 0
UnderlinePosition: -300
UnderlineWidth: 96
Ascent: 1344
Descent: 336
InvalidEm: 0
LayerCount: 2
Layer: 0 0 "Back" 1
Layer: 1 0 "Fore" 0
XUID: [1021 323 -1642646731 12193472]
StyleMap: 0x0000
FSType: 0
OS2Version: 0
OS2_WeightWidthSlopeOnly: 0
OS2_UseTypoMetrics: 1
CreationTime: 1729142792
ModificationTime: 1732335149
PfmFamily: 17
TTFWeight: 400
TTFWidth: 5
LineGap: 0
VLineGap: 0
Panose: 0 0 0 9 0 0 0 0 0 0
OS2TypoAscent: 1344
OS2TypoAOffset: 0
OS2TypoDescent: -336
OS2TypoDOffset: 0
OS2TypoLinegap: 0
OS2WinAscent: 1344
OS2WinAOffset: 0
OS2WinDescent: 336
OS2WinDOffset: 0
HheadAscent: 1344
HheadAOffset: 0
HheadDescent: -336
HheadDOffset: 0
OS2CapHeight: 1056
OS2XHeight: 756
OS2Vendor: 'PfEd'
Lookup: 1 0 0 "'code' Coding Friendly lookup 0" { "'code' Coding Friendly lookup 0 subtable"  } ['code' ('DFLT' <'dflt' > 'brai' <'dflt' > 'cyrl' <'dflt' > 'grek' <'dflt' > 'latn' <'dflt' > ) ]
Lookup: 260 0 0 "'mark' Mark Positioning lookup 0" { "'mark' Mark Positioning lookup 0-1"  } ['mark' ('DFLT' <'dflt' > 'brai' <'dflt' > 'latn' <'dflt' > ) ]
MarkAttachClasses: 1
DEI: 91125
Encoding: UnicodeBmp
Compacted: 1
UnicodeInterp: none
NameList: AGL For New Fonts
DisplaySize: -48
AntiAlias: 1
FitToEm: 0
BeginPrivate: 0
EndPrivate
Grid
-504 1224 m 25
 1512 1224 l 1053
100 960 m 1
 908 960 l 1025
100 1008 m 1
 908 1008 l 1025
100 660 m 1
 908 660 l 1025
100 708 m 1
 908 708 l 1025
100 48 m 1
 908 48 l 1025
100 96 m 1
 908 96 l 1025
352 -224 m 1
 676 -224 l 1025
352 -272 m 1
 676 -272 l 1025
352 -320 m 1
 676 -320 l 1025
352 1076 m 1
 676 1076 l 1025
352 1028 m 1
 676 1028 l 1025
352 980 m 1
 676 980 l 1025
352 776 m 1
 676 776 l 1025
352 728 m 1
 676 728 l 1025
352 680 m 1
 676 680 l 1025
352 76 m 1
 676 76 l 1025

StartChar: cedilla
Encoding: 184 184 0
Width: 1008
VWidth: 4000
Flags: HW
HStem: -300 96<354.708 550.172>
LayerCount: 2
Fore
SplineSet
444.021315659 -120.03444385 m 0
 417.312068022 -120.03444385 395.967677319 -98.2837962123 395.967677319 -72.065156416 c 0
 395.967677319 -66.753798321 396.885948974 -58.88749191 401.039504009 -50.58038184 c 2
 461.088007877 69.516625897 l 2
 468.909137572 85.1775813594 485.198115353 96.0060455882 503.996258673 96.0060455882 c 0
 530.490485791 96.0060455882 552.000438878 74.4960925011 552.000438878 48.0018653832 c 0
 552.000438878 40.305781586 550.185439298 33.0302684537 546.960495991 26.58038184 c 2
 517.119878912 -33.1008523176 l 1
 547.475054149 -40.3781871344 584.921053101 -55.2133654884 608.958125918 -85.4313998869 c 0
 622.939837918 -103.008409259 632 -126.338804264 632 -152 c 0
 632 -178.895752868 623.822313593 -204.665368788 607.481993435 -224.68196777 c 0
 565.171211898 -276.511915924 486.49373477 -280.004215287 396.990271573 -280.004215287 c 0
 392.644153245 -280.004215287 388.312258202 -280 384 -280 c 0
 357.50808 -280 336 -258.49192 336 -232 c 0
 336 -205.50808 357.50808 -184 384 -184 c 0
 427.14777957 -184 468.319858668 -183.575578693 496.849290823 -178.33593654 c 0
 520.589950333 -173.975788057 530.939242061 -166.662540021 533.082714213 -164.036825097 c 0
 534.300950296 -162.544507755 536 -160.659802687 536 -152 c 0
 536 -131.913521383 475.97020258 -120.143679814 444.021315659 -120.03444385 c 0
EndSplineSet
EndChar

StartChar: slash.orig
Encoding: 65538 -1 1
Width: 1008
VWidth: 4000
Flags: HW
LayerCount: 2
Fore
SplineSet
144.001556982 -320.002638382 m 0
 117.508655371 -320.002638382 95.9997784271 -298.493761439 95.9997784271 -272.000859828 c 0
 95.9997784271 -263.586211141 98.1696331576 -255.674359952 101.979853582 -248.794795298 c 2
 822.037064505 1051.3085022 l 2
 830.223042446 1066.08874015 845.980514981 1076.10421623 864.058767906 1076.10421623 c 0
 890.551669517 1076.10421623 912.06054646 1054.59533928 912.06054646 1028.10243767 c 0
 912.06054646 1019.68778899 909.89069173 1011.7759378 906.020146418 1004.7947953 c 2
 185.962935495 -295.308502203 l 2
 177.837282441 -309.987162306 162.079809907 -320.002638382 144.001556982 -320.002638382 c 0
EndSplineSet
EndChar

StartChar: numbersign.orig
Encoding: 65540 -1 2
Width: 1008
VWidth: 4000
Flags: HW
HStem: 200 96<97.4956 143.983 863.983 910.471> 460 96<97.4956 143.983 863.983 910.471>
VStem: 95.9834 93.0449<-318.488 -288.606> 335.983 93.0449<-318.488 -288.606>
LayerCount: 2
Fore
SplineSet
143.983398438 296 m 6
 117.491210938 296 95.9833984375 274.4921875 95.9833984375 248 c 4
 95.9833984375 221.5078125 117.491210938 200 143.983398438 200 c 6
 863.983398438 200 l 6
 890.475585938 200 911.983398438 221.5078125 911.983398438 248 c 4
 911.983398438 274.4921875 890.475585938 296 863.983398438 296 c 6
 143.983398438 296 l 6
143.978515625 248.001953125 m 5
 863.978515625 248.001953125 l 1029
143.983398438 556 m 6
 117.491210938 556 95.9833984375 534.4921875 95.9833984375 508 c 4
 95.9833984375 481.5078125 117.491210938 460 143.983398438 460 c 6
 863.983398438 460 l 6
 890.475585938 460 911.983398438 481.5078125 911.983398438 508 c 4
 911.983398438 534.4921875 890.475585938 556 863.983398438 556 c 6
 143.983398438 556 l 6
143.978515625 508 m 5
 863.978515625 508 l 1029
95.9833984375 -272 m 4
 95.9833984375 -298.4921875 117.491210938 -320 143.983398438 -320 c 4
 164.638671875 -320 182.264648438 -306.924804688 189.028320312 -288.606445312 c 6
 669.028320312 1011.39355469 l 6
 680.525390625 1042.53027344 657.426757812 1076 623.983398438 1076 c 4
 603.328125 1076 585.702148438 1062.92480469 578.938476562 1044.60644531 c 6
 98.9384765625 -255.393554688 l 6
 98.9384765625 -260.569335938 95.9833984375 -266.1640625 95.9833984375 -272 c 4
143.978515625 -272.000976562 m 5
 623.978515625 1027.99902344 l 1029
335.983398438 -272 m 4
 335.983398438 -298.4921875 357.491210938 -320 383.983398438 -320 c 4
 404.638671875 -320 422.264648438 -306.924804688 429.028320312 -288.606445312 c 6
 909.028320312 1011.39355469 l 6
 920.525390625 1042.53027344 897.426757812 1076 863.983398438 1076 c 4
 843.328125 1076 825.702148438 1062.92480469 818.938476562 1044.60644531 c 6
 338.938476562 -255.393554688 l 6
 338.938476562 -260.569335938 335.983398438 -266.1640625 335.983398438 -272 c 4
383.978515625 -272.000976562 m 5
 863.978515625 1027.99902344 l 1029
EndSplineSet
EndChar

StartChar: multiply.huge
Encoding: 65542 -1 3
Width: 1008
VWidth: 4000
Flags: HW
LayerCount: 2
Fore
SplineSet
177.934570312 801.934570312 m 6
 147.794921875 832.073242188 96 810.49609375 96 768 c 4
 96 754.75390625 101.376953125 742.75390625 110.065429688 734.065429688 c 6
 830.065429688 14.0654296875 l 6
 860.205078125 -16.0732421875 912 5.50390625 912 48 c 4
 912 61.24609375 906.623046875 73.24609375 897.934570312 81.9345703125 c 6
 177.934570312 801.934570312 l 6
110.065429688 81.9345703125 m 6
 79.9267578125 51.794921875 101.50390625 0 144 0 c 4
 157.24609375 0 169.24609375 5.376953125 177.934570312 14.0654296875 c 6
 897.918945312 734.065429688 l 6
 928.057617188 764.205078125 906.48046875 816 863.984375 816 c 4
 850.73828125 816 838.73828125 810.623046875 830.049804688 801.934570312 c 6
 110.065429688 81.9345703125 l 6
EndSplineSet
EndChar

StartChar: one.coding
Encoding: 65544 -1 4
Width: 1008
VWidth: 4000
Flags: HW
HStem: 0 96<197.512 244 804 850.488> 741.63 92.7402<197.068 317.11>
LayerCount: 2
Fore
SplineSet
523.950773408 1055.91362766 m 0
 550.573444428 1055.91362766 572 1034.3446903 572 1008 c 2
 572 96 l 1
 804 96 l 2
 830.49192 96 852 74.49192 852 48 c 0
 852 21.50808 830.49192 0 804 0 c 2
 244 0 l 2
 217.50808 0 196 21.50808 196 48 c 0
 196 74.49192 217.50808 96 244 96 c 2
 476 96 l 1
 476 869.220035172 l 1
 420.135431852 814.481386509 346.665782663 765.806111906 256.415280819 741.623353068 c 0
 252.446937936 740.560029574 248.276478141 739.99300471 243.974627669 739.99300471 c 0
 217.477626408 739.99300471 195.965421069 761.50521005 195.965421069 788.002211311 c 0
 195.965421069 810.1973621 211.059537011 828.894912973 231.563685687 834.36996429 c 0
 351.637191885 866.543842372 439.321797278 957.275886432 482.428617357 1031.9405824 c 0
 485.033295593 1036.45210768 497.785658844 1055.91362766 523.950773408 1055.91362766 c 0
EndSplineSet
EndChar

StartChar: degree
Encoding: 176 176 6
Width: 1008
VWidth: 4000
Flags: HW
HStem: 539.703 96<403.858 604.444> 960 96<403.858 604.444>
VStem: 246 96<697.561 898.153> 666.297 96<697.561 898.153>
LayerCount: 2
Fore
SplineSet
246 798 m 0
 246 940.458902954 361.541097046 1056 504 1056 c 0
 646.458902954 1056 762 940.458902954 762 798 c 0
 762 655.541097046 646.458902954 540 504 540 c 0
 361.541097046 540 246 655.541097046 246 798 c 0
342 798 m 0
 342 708.499918579 414.499918579 636 504 636 c 0
 593.500081421 636 666 708.499918579 666 798 c 0
 666 887.500081421 593.500081421 960 504 960 c 0
 414.499918579 960 342 887.500081421 342 798 c 0
EndSplineSet
EndChar

StartChar: Eth
Encoding: 208 208 25
Width: 1008
VWidth: 4000
Flags: HW
HStem: 330 96<137.512 184 824 870.488>
LayerCount: 2
Fore
SplineSet
282 95.999938132 m 1
 334.560989428 95.999938132 387.121978856 96.001953121 439.68359375 96.001953125 c 0
 599.263149346 96.001953125 698.060646128 154.975099418 756.010363374 244.72943107 c 0
 803.159235511 317.755076542 826 416.433316163 826 528 c 0
 826 710.07164737 766.481583083 959.999023438 439.68359375 959.999023438 c 2
 282 959.999023438 l 1
 282 596 l 1
 454 596 l 2
 480.49192 596 502 574.49192 502 548 c 0
 502 521.50808 480.49192 500 454 500 c 2
 282 500 l 1
 282 95.999938132 l 1
439.68359375 1055.99902344 m 2
 759.883287382 1055.99902344 922 845.323010912 922 528 c 0
 922 403.926058837 897.434128686 286.793148766 836.720003567 192.757215878 c 0
 775.948243365 98.6320159722 659.75646994 0.00204803825241 439.683911851 0.0019531250686 c 0
 337.789483056 0.0019531250686 235.895054261 -0.00195312100367 134.000625466 -0.00195312100367 c 0
 107.508681293 -0.00195312131257 86.0006012925 21.5061268787 86.0006012925 47.9980468788 c 0
 86.0006012925 74.4897583898 107.508342761 95.9977083453 133.999374534 95.998046871 c 0
 151.332916356 95.998046871 168.666458178 95.9987113733 186 95.9987113733 c 1
 186 500 l 1
 134 500 l 2
 107.50808 500 86 521.50808 86 548 c 0
 86 574.49192 107.50808 596 134 596 c 2
 186 596 l 1
 186 959.999023438 l 1
 134 959.999023438 l 2
 107.50808 959.999023438 86 981.507103437 86 1007.99902344 c 0
 86 1034.49094344 107.50808 1055.99902344 134 1055.99902344 c 2
 439.68359375 1055.99902344 l 2
EndSplineSet
EndChar

StartChar: dotlessi
Encoding: 305 305 49
Width: 1008
VWidth: 4000
Flags: HW
HStem: 0 96<197.512 455.998 551.998 810.488> 660 96<237.512 455.998>
VStem: 455.998 96<96 660>
AnchorPoint: "top" 474 988 basechar 0
LayerCount: 2
Fore
SplineSet
244 0 m 2
 217.50808 0 196 21.50808 196 48 c 0
 196 74.49192 217.50808 96 244 96 c 2
 455.998046875 96 l 1
 455.998046875 660 l 1
 284 660 l 2
 257.50808 660 236 681.50808 236 708 c 0
 236 734.49192 257.50808 756 284 756 c 2
 503.998046875 756 l 2
 530.489966875 756 551.998046875 734.49192 551.998046875 708 c 2
 551.998046875 96 l 1
 764 96 l 2
 790.49192 96 812 74.49192 812 48 c 0
 812 21.50808 790.49192 0 764 0 c 2
 244 0 l 2
EndSplineSet
EndChar

StartChar: l.dflt
Encoding: 65555 -1 66
Width: 1008
VWidth: 4000
Flags: HW
HStem: 0 96<177.512 224 784 830.488> 960 96<221.512 268>
LayerCount: 2
Fore
SplineSet
224 0 m 2
 197.50808 0 176 21.50808 176 48 c 0
 176 74.49192 197.50808 96 224 96 c 2
 456 96 l 1
 456 960 l 1
 268 960 l 2
 241.50808 960 220 981.50808 220 1008 c 0
 220 1034.49192 241.50808 1056 268 1056 c 2
 504 1056 l 2
 530.49192 1056 552 1034.49192 552 1008 c 2
 552 96 l 1
 784 96 l 2
 810.49192 96 832 74.49192 832 48 c 0
 832 21.50808 810.49192 0 784 0 c 2
 224 0 l 2
EndSplineSet
EndChar

StartChar: l.coding
Encoding: 65556 -1 67
Width: 1008
VWidth: 4000
Flags: HW
HStem: 0 96<784 830.488> 960 96<221.512 268>
LayerCount: 2
Fore
SplineSet
504.053849193 0.0453662589344 m 2
 477.242289285 0.0453662589344 456 21.8544708099 456 48 c 2
 456 960 l 1
 268 960 l 2
 241.50808 960 220 981.50808 220 1008 c 0
 220 1034.49192 241.50808 1056 268 1056 c 2
 504 1056 l 2
 530.49192 1056 552 1034.49192 552 1008 c 2
 552 96 l 1
 784 96 l 2
 810.49192 96 832 74.49192 832 48 c 0
 832 21.50808 810.49192 0 784 0 c 2
 504.053849193 0.0453662589344 l 2
EndSplineSet
EndChar

StartChar: l.coding2
Encoding: 65557 -1 68
Width: 1008
VWidth: 4000
Flags: HW
HStem: -20 96<540.472 718.229> 960 96<161.512 396>
VStem: 396 96<248 960>
LayerCount: 2
Fore
SplineSet
552 199.110351562 m 2
 552 152.392528273 566.263226877 76 659.555664062 76 c 0
 677.494390263 76 690.092358493 82.1928544679 701.715750631 92.3633111868 c 0
 727.322723335 114.769387184 737.839582836 150.083936337 737.839582836 150.083936337 c 1
 743.564574817 170.189415769 762.073672048 184.912547318 783.994404904 184.912547318 c 0
 810.491493305 184.912547318 832.003769391 163.400271232 832.003769391 136.903182831 c 0
 832.003769391 110.615042041 781.194351275 -20 659.555664062 -20 c 0
 546.312257234 -20 456 57.0831392065 456 199.110351562 c 2
 456 960 l 1
 268 960 l 2
 241.50808 960 220 981.50808 220 1008 c 0
 220 1034.49192 241.50808 1056 268 1056 c 2
 504 1056 l 2
 530.49192 1056 552 1034.49192 552 1008 c 2
 552 199.110351562 l 2
EndSplineSet
EndChar

StartChar: multiply
Encoding: 215 215 69
Width: 1008
VWidth: 4000
Flags: HW
LayerCount: 2
Fore
SplineSet
775.535951067 697.513230389 m 0
 802.022676281 697.513230389 823.526538773 676.009367897 823.526538773 649.522642683 c 0
 823.526538773 636.279280076 818.15057315 624.28163315 809.463766875 615.594826875 c 2
 571.86894 378 l 1
 809.463766875 140.405173125 l 2
 818.15057315 131.71836685 823.526538773 119.720719924 823.526538773 106.477357317 c 0
 823.526538773 79.9906321031 802.022676281 58.4867696109 775.535951067 58.4867696109 c 0
 762.29258846 58.4867696109 750.294941534 63.862735234 741.594826875 72.536233125 c 2
 504 310.13106 l 1
 266.405173125 72.536233125 l 2
 257.71836685 63.8494268502 245.720719924 58.4734612272 232.477357317 58.4734612272 c 0
 205.990632103 58.4734612272 184.486769611 79.9773237194 184.486769611 106.464048933 c 0
 184.486769611 119.70741154 189.862735234 131.705058466 198.536233125 140.405173125 c 2
 436.13106 378 l 1
 198.536233125 615.594826875 l 2
 189.862735234 624.294941534 184.486769611 636.29258846 184.486769611 649.535951067 c 0
 184.486769611 676.022676281 205.990632103 697.526538773 232.477357317 697.526538773 c 0
 245.720719924 697.526538773 257.71836685 692.15057315 266.405173125 683.463766875 c 2
 504 445.86894 l 1
 741.594826875 683.463766875 l 2
 750.294941534 692.137264766 762.29258846 697.513230389 775.535951067 697.513230389 c 0
EndSplineSet
EndChar

StartChar: zero.slash
Encoding: 65558 -1 72
Width: 1008
VWidth: 4000
Flags: HW
HStem: -20 96<398.655 606.871> 980 96<401.129 609.345>
VStem: 136 96<305.257 747.482> 776 96<308.518 750.743>
LayerCount: 2
Fore
SplineSet
346.085554224 162.026152281 m 1
 371.236449488 131.786914752 426.316556945 76 504.001953125 76 c 0
 650.190179214 76 776.001953125 278.004130716 776.001953125 528 c 0
 776.001953125 591.834846214 767.318068495 698.905137539 719.301392118 801.824731528 c 1
 346.085554224 162.026152281 l 1
504.001953125 980 m 0
 357.812673268 980 232.000976562 777.99580287 232.000976562 528 c 0
 232.000976562 464.165785855 240.684668381 357.096902028 288.700269872 254.178117599 c 1
 661.915733991 893.976056088 l 1
 636.764997973 924.214678202 581.685664799 980 504.001953125 980 c 0
504.001953125 -20 m 0
 472.701780641 -20 384.139290629 -15.1832774401 295.364552889 75.0758642767 c 1
 265.431614395 23.7622554309 l 2
 257.169212623 9.59634573789 241.696709974 -0.000678599434906 224.000390333 -0.000678599434906 c 0
 197.508221112 -0.000678599434906 175.999938776 21.5076037366 175.999938776 47.9997729577 c 0
 175.999938776 56.7956225378 178.370909958 65.0420720313 182.508059818 72.1343289344 c 2
 232.000275608 156.978127431 l 1
 213.612462944 186.968649904 136.000976562 316.666565268 136.000976562 528 c 0
 136.000976562 831.840865058 298.422427826 1076 504.001953125 1076 c 0
 535.301848095 1076 623.862822388 1071.18330626 712.636631329 980.92616581 c 1
 742.568385605 1032.23774457 l 2
 750.89189383 1046.50661581 766.364396479 1056.10364015 784.06071612 1056.10364015 c 0
 810.552885341 1056.10364015 832.061167677 1034.59535781 832.061167677 1008.10318859 c 0
 832.061167677 999.307339012 829.690196495 991.060889519 825.491940182 983.865671066 c 2
 776.001207669 899.02441533 l 1
 794.388842236 869.034511127 872.001953125 739.335707566 872.001953125 528 c 0
 872.001953125 224.159703341 709.580915303 -20 504.001953125 -20 c 0
EndSplineSet
EndChar

StartChar: zero.orig
Encoding: 65559 -1 73
Width: 1008
VWidth: 4000
Flags: HW
HStem: -20 96<401.127 606.871> 980 96<401.129 606.873>
VStem: 136 96<308.522 747.482> 776 96<308.518 747.478>
LayerCount: 2
Fore
SplineSet
504.001953125 -20 m 0
 298.438489106 -20 136.000976562 224.135148957 136.000976562 528 c 0
 136.000976562 831.840865058 298.422427826 1076 504.001953125 1076 c 0
 709.564461083 1076 872.001953125 831.864869526 872.001953125 528 c 0
 872.001953125 224.159703341 709.580915303 -20 504.001953125 -20 c 0
504.001953125 980 m 0
 357.812673268 980 232.000976562 777.99580287 232.000976562 528 c 0
 232.000976562 278.010989267 357.808541842 76 504.001953125 76 c 0
 650.190179214 76 776.001953125 278.004130716 776.001953125 528 c 0
 776.001953125 777.98832802 650.194766293 980 504.001953125 980 c 0
EndSplineSet
EndChar

StartChar: one.orig
Encoding: 65560 -1 74
Width: 1008
VWidth: 4000
Flags: HW
HStem: 0 96<177.512 224 784 830.488> 960 96<221.512 268>
LayerCount: 2
Fore
SplineSet
224 0 m 2
 197.50808 0 176 21.50808 176 48 c 0
 176 74.49192 197.50808 96 224 96 c 2
 456 96 l 1
 456 960 l 1
 268 960 l 2
 241.50808 960 220 981.50808 220 1008 c 0
 220 1034.49192 241.50808 1056 268 1056 c 2
 504 1056 l 2
 530.49192 1056 552 1034.49192 552 1008 c 2
 552 96 l 1
 784 96 l 2
 810.49192 96 832 74.49192 832 48 c 0
 832 21.50808 810.49192 0 784 0 c 2
 224 0 l 2
EndSplineSet
EndChar

StartChar: minus
Encoding: 8722 8722 76
Width: 1008
VWidth: 4000
Flags: HW
HStem: 330 96<137.512 184 824 870.488>
LayerCount: 2
Fore
SplineSet
184.000976562 330 m 2
 157.509056563 330 136.000976562 351.50808 136.000976562 378 c 0
 136.000976562 404.49192 157.509056563 426 184.000976562 426 c 2
 823.999023438 426 l 2
 850.490943438 426 871.999023438 404.49192 871.999023438 378 c 0
 871.999023438 351.50808 850.490943438 330 823.999023438 330 c 2
 184.000976562 330 l 2
EndSplineSet
EndChar

StartChar: divide
Encoding: 247 247 77
Width: 1008
VWidth: 4000
Flags: HW
HStem: -20 196<428.393 579.607> 330 96<137.512 184 824 870.488> 580 196<428.393 579.607>
VStem: 406 196<2.38281 153.611 602.383 753.611>
CounterMasks: 1 e0
LayerCount: 2
Fore
SplineSet
184.000976562 330 m 2
 157.509056563 330 136.000976562 351.50808 136.000976562 378 c 0
 136.000976562 404.49192 157.509056563 426 184.000976562 426 c 2
 823.999023438 426 l 2
 850.490943438 426 871.999023438 404.49192 871.999023438 378 c 0
 871.999023438 351.50808 850.490943438 330 823.999023438 330 c 2
 184.000976562 330 l 2
406 78 m 0
 406 132.093605399 449.906394601 176 504 176 c 0
 558.093605399 176 602 132.093605399 602 78 c 0
 602 23.9063946005 558.093605399 -20 504 -20 c 0
 449.906394601 -20 406 23.9063946005 406 78 c 0
406 678 m 0
 406 732.093605399 449.906394601 776 504 776 c 0
 558.093605399 776 602 732.093605399 602 678 c 0
 602 623.906394601 558.093605399 580 504 580 c 0
 449.906394601 580 406 623.906394601 406 678 c 0
EndSplineSet
EndChar

StartChar: zero.small
Encoding: 65561 -1 79
Width: 1008
VWidth: 4000
Flags: HW
HStem: 254 48<445.225 562.774> 754 48<445.226 562.775>
VStem: 320 48<402.28 653.722> 640 48<402.278 653.72>
LayerCount: 2
Fore
SplineSet
504 -10 m 0
 387.381135107 -10 296 121.788097312 296 288 c 0
 296 454.205209333 387.376472733 586 504 586 c 0
 620.618864893 586 712 454.211902688 712 288 c 0
 712 121.794790667 620.623527267 -10 504 -10 c 0
504 490 m 0
 447.379035579 490 392 401.24295286 392 288 c 0
 392 174.750452272 447.382832108 86 504 86 c 0
 560.620964421 86 616 174.75704714 616 288 c 0
 616 401.249547728 560.617167892 490 504 490 c 0
EndSplineSet
EndChar

StartChar: one.small
Encoding: 65562 -1 80
Width: 1008
VWidth: 4000
Flags: HW
HStem: 264 48<340.008 364 644 667.992> 744 48<362.008 386>
VStem: 340 328<264 312>
LayerCount: 2
Fore
SplineSet
364 0 m 2
 337.50808 0 316 21.50808 316 48 c 0
 316 74.49192 337.50808 96 364 96 c 2
 456 96 l 1
 456 480 l 1
 386 480 l 2
 359.50808 480 338 501.50808 338 528 c 0
 338 554.49192 359.50808 576 386 576 c 2
 504 576 l 2
 530.49192 576 552 554.49192 552 528 c 2
 552 96 l 1
 644 96 l 2
 670.49192 96 692 74.49192 692 48 c 0
 692 21.50808 670.49192 0 644 0 c 2
 364 0 l 2
EndSplineSet
EndChar

StartChar: two.small
Encoding: 65563 -1 81
Width: 1008
VWidth: 4000
Flags: HW
HStem: 255.57 48<526.562 632.739> 315.391 48<376.795 490.138> 754.711 48<416.247 588.47>
VStem: 309.202 42.5869<271.439 292.863> 325.713 48<639.898 713.269> 637.283 48<596.664 711.127>
LayerCount: 2
Fore
SplineSet
431.788085938 146.7734375 m 0
 504.541593563 146.7734375 548.955976235 86.8466796875 582.907226562 86.8466796875 c 0
 608.38835107 86.8466796875 621.899773169 110.185662597 633.989443362 131.068779412 c 0
 642.293708181 145.413168424 657.808565634 155.071632375 675.561476832 155.071632375 c 0
 702.053754997 155.071632375 723.562125782 133.56326159 723.562125782 107.070983425 c 0
 723.562125782 94.3061938812 719.015782519 86.3703635994 715.633583936 80.4665960253 c 0
 704.624727695 61.2501819346 667.098844825 -9.1533203125 582.907226562 -9.1533203125 c 0
 511.286411726 -9.1533203125 468.094671899 50.7734375 431.788085938 50.7734375 c 0
 427.426759073 50.7734375 398.837090622 49.5233895266 370.039240404 18.0334078752 c 0
 361.239614768 6.97844056985 347.684680257 -0.0956497626555 332.490540338 -0.0956497626555 c 0
 305.995185589 -0.0956497626555 284.484317008 21.4152188179 284.484317008 47.9105735668 c 0
 284.484317008 49.8714754676 291.227638489 144.569477618 368.132437506 225.264329056 c 0
 402.314849375 261.131331934 444.322089416 289.299772401 491.752771551 313.101322187 c 0
 593.160715883 363.989112986 613.139648438 375.490437319 613.139648438 413.307617188 c 0
 613.139648438 456.216829986 565.247805628 490.846679688 502.791992188 490.846679688 c 0
 440.273931946 490.846679688 397.037109375 456.211293863 397.037109375 423.833007812 c 0
 397.037109375 397.341087813 375.529029375 375.833007812 349.037109375 375.833007812 c 0
 322.545189375 375.833007812 301.037109375 397.341087813 301.037109375 423.833007812 c 0
 301.037109375 509.658076589 383.844713276 586.846679688 502.791992188 586.846679688 c 0
 621.062076215 586.846679688 709.139648438 509.814647742 709.139648438 413.307617188 c 0
 709.139648438 337.525053664 665.027663596 299.490396444 618.02504345 271.211674124 c 0
 596.350899992 258.17161205 576.13418347 248.026607655 534.715978449 227.242427813 c 0
 479.604663603 199.586601561 447.652894713 172.111331022 426.621309767 146.685360749 c 1
 428.328166749 146.743621283 430.050472403 146.7734375 431.788085938 146.7734375 c 0
EndSplineSet
EndChar

StartChar: three.small
Encoding: 65564 -1 82
Width: 1008
VWidth: 4000
Flags: HW
HStem: 249.001 48<402.251 582.92>
VStem: 314.998 48<333.846 411.993> 644.998 48<356.366 496.895>
LayerCount: 2
Fore
SplineSet
665 576 m 2
 691.447291581 576 712.966660293 554.445765455 712.966660293 527.962374474 c 0
 712.966660293 521.493690819 711.461764795 506.875905976 699.291112586 494.443519311 c 2
 579.806523649 372.378070385 l 1
 604.257224812 364.833589824 625.801221141 354.158405007 644.401453952 340.360414122 c 0
 696.582616457 301.651479028 717 243.481325084 717 188 c 0
 717 83.779035854 627.984962836 -10 489.000976562 -10 c 0
 368.551787848 -10 291 64.0668297736 291 153 c 0
 291 179.49192 312.50808 201 339 201 c 0
 365.49192 201 387 179.49192 387 153 c 0
 387 111.772779298 432.140371883 86 489.000976562 86 c 0
 568.755545785 86 621 131.678784601 621 188 c 0
 621 211.509550043 620.342734603 290.012303889 478.994826725 290.012303889 c 0
 452.547535146 290.012303889 431.028166441 311.566538433 431.028166441 338.049929422 c 0
 431.028166441 344.518613073 432.533061938 359.136397914 444.703714151 371.568784583 c 2
 550.852167138 480 l 1
 411.506105019 480 l 1
 411.506105019 480 403.58657393 460.201172276 403.561883 460.139444952 c 0
 396.523863841 442.501775675 379.215316151 429.989152396 359.007350549 429.989152396 c 0
 332.511063087 429.989152396 310.999437262 451.500778221 310.999437262 477.997065683 c 0
 310.999437262 484.285387543 312.211074762 490.292949454 314.41342607 495.798827724 c 2
 334.41342607 545.798827724 l 2
 341.676920841 563.95756465 359.409581472 575.968963855 378.95418074 575.968963855 c 2
 665 576 l 2
EndSplineSet
EndChar

StartChar: four.small
Encoding: 65565 -1 83
Width: 1008
VWidth: 4000
Flags: HW
HStem: 259.885 48<498.096 522.088 690.088 714.08> 395.885 48<700.088 724.08>
LayerCount: 2
Fore
SplineSet
563.125976562 231 m 1
 563.125976562 399.023892417 l 1
 416.470447871 231 l 1
 563.125976562 231 l 1
611.079633308 574.9427394 m 0
 637.61785107 574.9427394 659.125976562 553.399757632 659.125976562 527 c 2
 659.125976562 231 l 1
 697.125976562 231 l 2
 723.617896563 231 745.125976562 209.49192 745.125976562 183 c 0
 745.125976562 156.50808 723.617896563 135 697.125976562 135 c 0
 684.459309896 135 671.792643229 135.000509664 659.125976562 135.000509664 c 1
 659.125976562 95 l 1
 687.125976562 95 l 2
 713.617896563 95 735.125976562 73.49192 735.125976562 47 c 0
 735.125976562 20.50808 713.617896563 -1 687.125976562 -1 c 2
 519.125976562 -1 l 2
 492.634056563 -1 471.125976562 20.50808 471.125976562 47 c 0
 471.125976562 73.49192 492.634056563 95 519.125976562 95 c 2
 563.125976562 95 l 1
 563.125976562 135.001797236 l 1
 479.041206876 135.001797236 394.95643719 135.005180522 310.871667503 135.005180522 c 0
 284.380016991 135.005180522 262.885906029 156.597925424 262.885906029 183.033010534 c 0
 262.885906029 194.58678029 267.118124558 205.850965561 274.701915948 214.539749135 c 2
 574.97390449 558.532241755 l 2
 579.165098502 563.334111402 591.339443664 574.9427394 611.079633308 574.9427394 c 0
EndSplineSet
EndChar

StartChar: five.small
Encoding: 65566 -1 84
Width: 1008
VWidth: 4000
Flags: HW
HStem: 249 48<440.822 598.608> 585 48<435.917 607.046> 739 48<673.103 697.095>
VStem: 361.131 49.0693<601.698 739> 665.106 48<368.689 527.332>
LayerCount: 2
Fore
SplineSet
503.998046875 -10 m 0
 392.540131224 -10 295.998046875 61.4224297657 295.998046875 158 c 0
 295.998046875 184.49192 317.506126875 206 343.998046875 206 c 0
 370.489966875 206 391.998046875 184.49192 391.998046875 158 c 0
 391.998046875 117.268582071 447.443458687 86 503.998046875 86 c 0
 567.627762501 86 616.001961478 150.52684358 616.001961478 216.781707799 c 0
 616.001961478 279.129494538 568.704986776 326 503.998046875 326 c 0
 431.644649472 326 410.22274325 296.182791286 401.625318658 282.078398447 c 0
 398.80771407 277.181880407 386.053302117 257.897584662 359.936756044 257.897582657 c 0
 333.444995687 257.897582657 311.937045297 279.405533047 311.937045297 305.897293403 c 0
 311.937045297 306.997429042 311.974136409 308.088969949 312.04724645 309.170920109 c 2
 316.005969588 528.880054276 l 2
 316.47680011 555.011148236 337.845934353 575.991953873 363.989851825 575.991953873 c 2
 647.998046875 576 l 2
 674.489966875 576 695.998046875 554.49192 695.998046875 528 c 0
 695.998046875 501.50808 674.489966875 480 647.998046875 480 c 2
 411.141116131 480 l 1
 409.812664236 406.270919823 l 1
 435.890403392 416.210136741 467.098843113 422 503.998046875 422 c 0
 619.306463589 422 712.001961478 332.806902438 712.001961478 216.781707799 c 0
 712.001961478 94.0634887533 618.978955421 -10 503.998046875 -10 c 0
EndSplineSet
EndChar

StartChar: six.small
Encoding: 65567 -1 85
Width: 1008
VWidth: 4000
Flags: HW
HStem: 254.809 48<433.244 594.566> 542.934 48<432.938 594.566> 754.27 48<453.837 607.863>
VStem: 307.461 48<513.439 642.94> 652.539 48<356.62 489.122>
LayerCount: 2
Fore
SplineSet
399.423828125 182.216796875 m 0
 399.423828125 133.961069899 445.775049399 86 514.075195312 86 c 0
 582.37414635 86 628.725585938 133.96094426 628.725585938 182.216796875 c 0
 628.725585938 230.473583133 582.374422782 278.43359375 514.075195312 278.43359375 c 0
 445.774772968 278.43359375 399.423828125 230.473457495 399.423828125 182.216796875 c 0
283.274414062 285.885742188 m 0
 283.274414062 488.59322343 414.995028932 586 533.087890625 586 c 0
 572.52435859 586 605.814231714 574.883204035 631.738390817 560.285023845 c 0
 683.460358844 531.159812644 706.684841009 490.053453947 708.837315375 486.288657296 c 0
 712.906408056 479.17550383 715.197781898 471.059469133 715.197781898 462.4124786 c 0
 715.197781898 435.920022437 693.689266601 414.41150714 667.196810438 414.41150714 c 0
 649.453800287 414.41150714 633.946333168 424.059135954 625.638567869 438.390237525 c 0
 622.654047864 443.208660142 592.151540046 490 533.087890625 490 c 0
 475.847303974 490 398.741677874 447.378619039 382.401384208 332.301168653 c 1
 419.157111235 358.9670758 465.466462192 374.43359375 514.075195312 374.43359375 c 0
 625.434170968 374.43359375 724.725585938 293.258838742 724.725585938 182.216796875 c 0
 724.725585938 71.1757744897 625.4344474 -10 514.075195312 -10 c 0
 425.304403707 -10 344.202642835 41.5830988642 314.952589824 118.758129827 c 0
 284.509238209 190.248618917 283.274414062 247.920687499 283.274414062 285.885742188 c 0
EndSplineSet
EndChar

StartChar: seven.small
Encoding: 65568 -1 86
Width: 1008
VWidth: 4000
Flags: HW
HStem: 735.005 47.9906<425.426 494.336> 753.653 47.9906<652.414 725.746> 782.995 48<409.414 494.336>
VStem: 293.2 47.9999<643.018 755.469> 341.2 47.9907<643.018 700.882> 466.341 95.9906<246.516 486.066>
LayerCount: 2
Fore
SplineSet
464.5703125 490 m 0
 420.161866361 490 359.428710938 459.17468559 359.428710938 398 c 0
 359.428710938 371.50808 337.920630937 350 311.428710938 350 c 0
 284.936790938 350 263.428710938 371.50808 263.428710938 398 c 2
 263.428710938 528 l 2
 263.428710938 554.49192 284.936790938 576 311.428710938 576 c 0
 328.431086266 576 343.380615363 567.140810908 351.909023075 553.79070788 c 1
 385.802903185 575.018641235 425.484291586 586 464.5703125 586 c 0
 544.376733984 586 586.048417077 556.651367188 622.65234375 556.651367188 c 0
 636.36701881 556.651367188 646.22510054 559.121952982 652.98552304 561.659672065 c 0
 659.815366584 564.223450334 662.77603075 566.238323703 663.837795456 567.094672759 c 0
 672.413404443 575.097458277 683.921370966 579.997329922 696.56473495 579.997329922 c 0
 723.047436153 579.997329922 744.568474377 558.491232006 744.568475001 531.99492312 c 0
 744.568475001 520.32531665 740.394411789 509.62292172 733.459126969 501.300579936 c 0
 633.956355847 381.89725459 532.5703125 250.175330275 532.5703125 48 c 0
 532.5703125 21.50808 511.0622325 0 484.5703125 0 c 0
 458.0783925 0 436.5703125 21.50808 436.5703125 48 c 0
 436.5703125 226.476224915 505.625129427 359.028514817 582.564306611 465.039327489 c 1
 568.902301226 467.956005983 556.75195378 471.863467007 545.758580882 475.278916207 c 0
 520.055890362 483.264293815 498.577872854 490 464.5703125 490 c 0
EndSplineSet
EndChar

StartChar: eight.small
Encoding: 65569 -1 87
Width: 1008
VWidth: 4000
Flags: HW
HStem: 230.005 47.9906<403.235 604.763> 278.005 47.9906<414.131 593.873> 490.005 47.9906<414.127 593.869> 538.005 47.9906<423.097 584.904> 730.005 47.9906<406.359 601.639> 778.005 47.9906<407.934 600.07>
VStem: 276.005 47.9906<343.355 471.783> 296.005 47.9906<595.345 719.589> 324.005 47.9906<363.079 452.919> 344.005 47.9906<616.092 699.906> 616.005 47.9906<616.094 699.908> 636.005 47.9906<363.081 452.921> 664.005 47.9906<595.026 719.586> 684.005 47.9906<343.354 471.364>
LayerCount: 2
Fore
SplineSet
504 250 m 0
 433.450228088 250 372 211.63243042 372 168 c 0
 372 124.364214214 433.455620857 86 504 86 c 0
 574.549771912 86 636 124.36756958 636 168 c 0
 636 211.635785786 574.544379143 250 504 250 c 0
352.830298261 302.006502818 m 1
 331.81753206 320.007754897 296 359.301064953 296 418 c 0
 296 509.150851726 385.179039439 586 504 586 c 0
 622.819711599 586 712 509.151880755 712 418 c 0
 712 393.128181159 704.73986096 344.472350635 655.169701739 302.006502818 c 1
 679.32110637 285.327954032 732 240.626490137 732 168 c 0
 732 71.4208813681 634.63607307 -10 504 -10 c 0
 373.363214401 -10 276 71.4214494865 276 168 c 0
 276 193.451801333 283.90246777 254.406116788 352.830298261 302.006502818 c 1
504 490 m 0
 444.235416728 490 392 456.492862712 392 418 c 0
 392 379.506457746 444.236474529 346 504 346 c 0
 563.764583272 346 616 379.507137288 616 418 c 0
 616 456.493542254 563.763525471 490 504 490 c 0
EndSplineSet
EndChar

StartChar: nine.small
Encoding: 65570 -1 88
Width: 1008
VWidth: 4000
Flags: HW
HStem: 230.813 47.9906<393.192 474.945> 278.813 47.9906<408.803 474.945> 442.149 95.9906<406.451 582.841> 730.274 95.9906<406.452 600.216>
VStem: 283.466 47.9906<558.976 707.037> 331.466 47.9906<576.221 692.367> 608.419 47.9906<576.047 692.193> 676.544 47.9906<405.749 530.652 546.478 667.18>
LayerCount: 2
Fore
SplineSet
608.576171875 393.783203125 m 0
 608.576171875 442.038930101 562.224950601 490 493.924804688 490 c 0
 425.62585365 490 379.274414062 442.03905574 379.274414062 393.783203125 c 0
 379.274414062 345.526416867 425.625577218 297.56640625 493.924804688 297.56640625 c 0
 562.225227032 297.56640625 608.576171875 345.526542505 608.576171875 393.783203125 c 0
724.725585938 290.114257812 m 0
 724.725585938 87.4067765698 593.004971068 -10 474.912109375 -10 c 0
 435.47564141 -10 402.185768286 1.1167959648 376.261609183 15.7149761554 c 0
 324.539641156 44.8401873558 301.315158991 85.9465460527 299.162684625 89.7113427045 c 0
 295.093591944 96.8244961697 292.802218102 104.940530867 292.802218102 113.5875214 c 0
 292.802218102 140.079977563 314.310733399 161.58849286 340.803189562 161.58849286 c 0
 358.546199713 161.58849286 374.053666832 151.940864046 382.361432131 137.609762475 c 0
 385.345952139 132.791339852 415.848459957 86 474.912109375 86 c 0
 532.152696026 86 609.258322126 128.621380961 625.598615792 243.698831347 c 1
 588.842888765 217.0329242 542.533537808 201.56640625 493.924804688 201.56640625 c 0
 382.565829032 201.56640625 283.274414062 282.741161258 283.274414062 393.783203125 c 0
 283.274414062 504.82422551 382.5655526 586 493.924804688 586 c 0
 582.695596293 586 663.797357165 534.416901136 693.047410176 457.241870173 c 0
 723.490761791 385.751381083 724.725585938 328.079312501 724.725585938 290.114257812 c 0
EndSplineSet
EndChar

StartChar: fractiondash
Encoding: 65571 -1 92
Width: 1008
Flags: HW
LayerCount: 2
Fore
SplineSet
112 330 m 2
 85.50808 330 64 351.50808 64 378 c 0
 64 404.49192 85.50808 426 112 426 c 2
 896 426 l 2
 922.49192 426 944 404.49192 944 378 c 0
 944 351.50808 922.49192 330 896 330 c 2
 112 330 l 2
EndSplineSet
EndChar

StartChar: uni030A.small
Encoding: 65572 -1 96
Width: 1008
VWidth: 4000
Flags: HW
LayerCount: 2
Fore
SplineSet
-758 493 m 1053
504 1040.00488281 m 0
 420.075195312 1040.00488281 352.004882812 1108.07226562 352.004882812 1192 c 0
 352.004882812 1275.92480469 420.072265625 1343.99511719 504 1343.99511719 c 0
 587.924804688 1343.99511719 655.995117188 1275.92773438 655.995117188 1192 c 0
 655.995117188 1108.07519531 587.927734375 1040.00488281 504 1040.00488281 c 0
504 1136.00488281 m 0
 534.966796875 1136.00488281 559.995117188 1161.03027344 559.995117188 1192 c 0
 559.995117188 1222.96679688 534.969726562 1247.99511719 504 1247.99511719 c 0
 473.033203125 1247.99511719 448.004882812 1222.96972656 448.004882812 1192 c 0
 448.004882812 1161.03320312 473.030273438 1136.00488281 504 1136.00488281 c 0
EndSplineSet
EndChar

StartChar: acute
Encoding: 180 180 100
Width: 1008
VWidth: 4000
Flags: HW
VStem: 256 496
LayerCount: 2
Fore
SplineSet
303.993345808 560.016066486 m 0
 277.506620594 560.016066486 256.002758102 581.519928978 256.002758102 608.006654192 c 0
 256.002758102 621.250016799 261.378723725 633.247663725 270.06553 641.93447 c 2
 670.06553 1041.93447 l 2
 678.752336275 1050.62127627 690.749983201 1055.9972419 703.993345808 1055.9972419 c 0
 730.480071022 1055.9972419 751.983933514 1034.49337941 751.983933514 1008.00665419 c 0
 751.983933514 994.763291585 746.607967891 982.765644659 737.93447 974.06553 c 2
 337.93447 574.06553 l 2
 329.234355341 565.392032109 317.236708415 560.016066486 303.993345808 560.016066486 c 0
EndSplineSet
EndChar

StartChar: currency
Encoding: 164 164 101
Width: 1008
Flags: HW
LayerCount: 2
Fore
SplineSet
504 695.999755859 m 0
 411.196069061 695.999755859 336.000244141 620.799320935 336.000244141 528 c 0
 336.000244141 435.196069061 411.200679065 360.000244141 504 360.000244141 c 0
 596.803930939 360.000244141 671.999755859 435.200679065 671.999755859 528 c 0
 671.999755859 620.803930939 596.799320935 695.999755859 504 695.999755859 c 0
775.535951067 847.513230389 m 0
 802.022676281 847.513230389 823.526538773 826.009367897 823.526538773 799.522642683 c 0
 823.526538773 786.279280076 818.15057315 774.28163315 809.463766875 765.594826875 c 2
 721.528194886 677.659254886 l 1
 752.519293567 632.728446813 767.999755859 580.350269291 767.999755859 528 c 0
 767.999755859 475.649889248 752.519149385 423.271632489 721.528131563 378.340808437 c 1
 809.463766875 290.405173125 l 2
 818.15057315 281.71836685 823.526538773 269.720719924 823.526538773 256.477357317 c 0
 823.526538773 229.990632103 802.022676281 208.486769611 775.535951067 208.486769611 c 0
 762.29258846 208.486769611 750.294941534 213.862735234 741.594826875 222.536233125 c 2
 653.659254886 310.471805114 l 1
 608.728446813 279.480706433 556.350269291 264.000244141 504 264.000244141 c 0
 451.649889248 264.000244141 399.271632489 279.480850615 354.340808437 310.471868437 c 1
 266.405173125 222.536233125 l 2
 257.71836685 213.84942685 245.720719924 208.473461227 232.477357317 208.473461227 c 0
 205.990632103 208.473461227 184.486769611 229.977323719 184.486769611 256.464048933 c 0
 184.486769611 269.70741154 189.862735234 281.705058466 198.536233125 290.405173125 c 2
 286.471805114 378.340745114 l 1
 255.480706433 423.271553187 240.000244141 475.649730709 240.000244141 528 c 0
 240.000244141 580.350110752 255.480850615 632.728367511 286.471868437 677.659191563 c 1
 198.536233125 765.594826875 l 2
 189.862735234 774.294941534 184.486769611 786.29258846 184.486769611 799.535951067 c 0
 184.486769611 826.022676281 205.990632103 847.526538773 232.477357317 847.526538773 c 0
 245.720719924 847.526538773 257.71836685 842.15057315 266.405173125 833.463766875 c 2
 354.340745114 745.528194886 l 1
 399.271553187 776.519293567 451.649730709 791.999755859 504 791.999755859 c 0
 556.350110752 791.999755859 608.728367511 776.519149385 653.659191563 745.528131563 c 1
 741.594826875 833.463766875 l 2
 750.294941534 842.137264766 762.29258846 847.513230389 775.535951067 847.513230389 c 0
EndSplineSet
EndChar

StartChar: brokenbar
Encoding: 166 166 102
Width: 1008
VWidth: 4000
Flags: HW
LayerCount: 2
Fore
SplineSet
456 1008 m 2
 456 1034.49192 477.50808 1056 504 1056 c 0
 530.49192 1056 552 1034.49192 552 1008 c 2
 552 588 l 2
 552 561.50808 530.49192 540 504 540 c 0
 477.50808 540 456 561.50808 456 588 c 2
 456 1008 l 2
456 168 m 2
 456 194.49192 477.50808 216 504 216 c 0
 530.49192 216 552 194.49192 552 168 c 2
 552 -252 l 2
 552 -278.49192 530.49192 -300 504 -300 c 0
 477.50808 -300 456 -278.49192 456 -252 c 2
 456 168 l 2
EndSplineSet
EndChar

StartChar: uni2114
Encoding: 8468 8468 104
Width: 1008
Flags: HW
LayerCount: 2
Fore
SplineSet
700.0546875 680 m 0
 643.857048031 680 574.108398438 555.387936155 574.108398438 378 c 0
 574.108398438 200.625399825 643.850930758 76 700.0546875 76 c 0
 756.252272294 76 826 200.612144156 826 378 c 0
 826 555.375169172 756.258091677 680 700.0546875 680 c 0
700.0546875 -20 m 0
 683.287533813 -20 627.870848224 -17.9744528105 574.08864394 46.6128943508 c 1
 573.352502342 20.762284285 552.135736423 0.00195312500001 526.108398438 0.001953125 c 0
 499.616478438 0.001953125 478.108398438 21.510033125 478.108398438 48.001953125 c 0
 478.108398438 816 478.108398438 816 478.108398438 816 c 1
 273.429217904 816 l 1
 273.965736041 96 l 1
 316.000976562 96 l 2
 342.492896562 96 364.000976562 74.49192 364.000976562 48 c 0
 364.000976562 21.50808 342.492896562 0 316.000976562 0 c 2
 136.000976562 0 l 2
 109.509056563 0 88.0009765625 21.50808 88.0009765625 48 c 0
 88.0009765625 74.49192 109.509056563 96 136.000976562 96 c 2
 177.965708864 96 l 1
 177.429190727 816 l 1
 136.000976562 816 l 2
 109.509056563 816 88.0009765625 837.50808 88.0009765625 864 c 0
 88.0009765625 890.49192 109.509056563 912 136.000976562 912 c 2
 177.357654976 912 l 1
 177.3218871 960 l 1
 136.713867188 960 l 2
 110.221947188 960 88.7138671875 981.50808 88.7138671875 1008 c 0
 88.7138671875 1034.49192 110.221947188 1056 136.713867188 1056 c 2
 225.286484688 1056 l 2
 251.763962075 1056 273.266389454 1034.51355218 273.286119225 1008.03646972 c 2
 273.357682152 912 l 1
 478.108398438 912 l 1
 478.108398438 960.0009127 l 1
 464.072605596 960.0009127 450.036812755 960.000000011 436.001019913 960.000000011 c 0
 409.509099913 960.000000011 388.001019913 981.508080011 388.001019913 1008.00000001 c 0
 388.001019913 1034.49156637 409.508525697 1055.99942579 435.998939086 1055.99999999 c 2
 526.10838818 1055.99999999 l 2
 552.600076424 1055.99999999 574.108111657 1034.49369651 574.108398438 1008.00195312 c 2
 574.108398438 912 l 1
 640.000976562 912 l 2
 666.492896563 912 688.000976562 890.49192 688.000976562 864 c 0
 688.000976562 837.50808 666.492896563 816 640.000976562 816 c 2
 574.108398438 816 l 1
 574.108398438 709.410826121 l 1
 590.895427953 729.565680541 634.488169296 776 700.0546875 776 c 0
 829.95059882 776 922 596.367815339 922 378 c 0
 922 159.64582037 829.958010871 -20 700.0546875 -20 c 0
EndSplineSet
EndChar

StartChar: uni2010
Encoding: 8208 8208 105
Width: 1008
VWidth: 4000
Flags: HW
HStem: 330 96<137.512 184 824 870.488>
LayerCount: 2
Fore
SplineSet
288 330 m 2
 261.50808 330 240 351.50808 240 378 c 0
 240 404.49192 261.50808 426 288 426 c 2
 720 426 l 2
 746.49192 426 768 404.49192 768 378 c 0
 768 351.50808 746.49192 330 720 330 c 2
 288 330 l 2
EndSplineSet
EndChar

StartChar: figuredash
Encoding: 8210 8210 107
Width: 1008
VWidth: 4000
Flags: HW
HStem: 330 96<137.512 184 824 870.488>
LayerCount: 2
Fore
SplineSet
192 330 m 2
 165.50808 330 144 351.50808 144 378 c 0
 144 404.49192 165.50808 426 192 426 c 2
 816 426 l 2
 842.49192 426 864 404.49192 864 378 c 0
 864 351.50808 842.49192 330 816 330 c 2
 192 330 l 2
EndSplineSet
EndChar

StartChar: endash
Encoding: 8211 8211 108
Width: 1008
VWidth: 4000
Flags: HW
HStem: 330 96<137.512 184 824 870.488>
LayerCount: 2
Fore
SplineSet
120 330 m 2
 93.50808 330 72 351.50808 72 378 c 0
 72 404.49192 93.50808 426 120 426 c 2
 888 426 l 2
 914.49192 426 936 404.49192 936 378 c 0
 936 351.50808 914.49192 330 888 330 c 2
 120 330 l 2
EndSplineSet
EndChar

StartChar: emdash
Encoding: 8212 8212 109
Width: 1008
VWidth: 4000
Flags: HW
HStem: 330 96<137.512 184 824 870.488>
LayerCount: 2
Fore
SplineSet
48 330 m 2
 21.50808 330 0 351.50808 0 378 c 0
 0 404.49192 21.50808 426 48 426 c 2
 960 426 l 2
 986.49192 426 1008 404.49192 1008 378 c 0
 1008 351.50808 986.49192 330 960 330 c 2
 48 330 l 2
EndSplineSet
EndChar

StartChar: uni2015
Encoding: 8213 8213 110
Width: 1008
VWidth: 4000
Flags: HW
HStem: 330 96<137.512 184 824 870.488>
LayerCount: 2
Fore
SplineSet
0 330 m 2
 -26.49192 330 -48 351.50808 -48 378 c 0
 -48 404.49192 -26.49192 426 0 426 c 2
 1008 426 l 2
 1034.49192 426 1056 404.49192 1056 378 c 0
 1056 351.50808 1034.49192 330 1008 330 c 2
 0 330 l 2
EndSplineSet
EndChar

StartChar: uni2016
Encoding: 8214 8214 111
Width: 1008
VWidth: 4000
Flags: HW
LayerCount: 2
Fore
SplineSet
360 1008 m 2
 360 1034.49192 381.50808 1056 408 1056 c 0
 434.49192 1056 456 1034.49192 456 1008 c 2
 456 -252 l 2
 456 -278.49192 434.49192 -300 408 -300 c 0
 381.50808 -300 360 -278.49192 360 -252 c 2
 360 1008 l 2
552 1008 m 2
 552 1034.49192 573.50808 1056 600 1056 c 0
 626.49192 1056 648 1034.49192 648 1008 c 2
 648 -252 l 2
 648 -278.49192 626.49192 -300 600 -300 c 0
 573.50808 -300 552 -278.49192 552 -252 c 2
 552 1008 l 2
EndSplineSet
EndChar

StartChar: underscoredbl
Encoding: 8215 8215 112
Width: 1008
VWidth: 4000
Flags: HW
LayerCount: 2
Fore
SplineSet
64 -300 m 2
 37.50808 -300 16 -278.49192 16 -252 c 0
 16 -225.50808 37.50808 -204 64 -204 c 2
 944 -204 l 2
 970.49192 -204 992 -225.50808 992 -252 c 0
 992 -278.49192 970.49192 -300 944 -300 c 2
 64 -300 l 2
64 -108 m 2
 37.50808 -108 16 -86.49192 16 -60 c 0
 16 -33.50808 37.50808 -12 64 -12 c 2
 944 -12 l 2
 970.49192 -12 992 -33.50808 992 -60 c 0
 992 -86.49192 970.49192 -108 944 -108 c 2
 64 -108 l 2
EndSplineSet
EndChar

StartChar: bullet
Encoding: 8226 8226 113
Width: 1008
VWidth: 4000
Flags: HW
LayerCount: 2
Fore
SplineSet
264 378 m 0
 264 510.518354805 371.481645195 618 504 618 c 0
 636.518354805 618 744 510.518354805 744 378 c 0
 744 245.481645195 636.518354805 138 504 138 c 0
 371.481645195 138 264 245.481645195 264 378 c 0
EndSplineSet
EndChar

StartChar: uni2042
Encoding: 8258 8258 119
Width: 1008
VWidth: 4000
Flags: HW
LayerCount: 2
Fore
SplineSet
588.372423405 938.139750193 m 0
 614.864740449 938.139750193 636.373142798 916.631347844 636.373142798 890.1390308 c 0
 636.373142798 881.419828422 634.043325955 873.240489871 629.972805052 866.190127928 c 2
 587.139193243 792 l 1
 672.74609375 792 l 2
 699.23801375 792 720.74609375 770.49192 720.74609375 744 c 0
 720.74609375 717.50808 699.23801375 696 672.74609375 696 c 2
 587.139193243 696 l 1
 629.972805051 621.809872072 l 2
 634.043325955 614.759510129 636.373142798 606.580171578 636.373142798 597.8609692 c 0
 636.373142798 571.368652156 614.864740448 549.860249807 588.372423405 549.860249807 c 0
 570.599308739 549.860249807 555.070587476 559.541414786 546.833082161 573.809218674 c 0
 504 647.998429223 504 647.998429223 504 647.998429223 c 1
 461.166917839 573.809218674 l 2
 452.869618198 559.437847784 437.339650858 549.757402153 419.566536193 549.757402153 c 0
 393.074219149 549.757402153 371.5658168 571.265804502 371.5658168 597.758121546 c 0
 371.5658168 606.477323924 373.895633642 614.656662475 378.027194948 621.809872072 c 2
 420.860806757 696 l 1
 335.25390625 696 l 2
 308.76198625 696 287.25390625 717.50808 287.25390625 744 c 0
 287.25390625 770.49192 308.76198625 792 335.25390625 792 c 2
 420.860806757 792 l 1
 378.027194949 866.190127928 l 2
 373.895633642 873.343337525 371.5658168 881.522676076 371.5658168 890.241878454 c 0
 371.5658168 916.734195498 393.074219149 938.242597847 419.566536193 938.242597847 c 0
 437.339650858 938.242597847 452.869618198 928.562152216 461.166917839 914.190781326 c 0
 504 840.001570777 504 840.001570777 504 840.001570777 c 1
 546.833082161 914.190781326 l 2
 555.0693414 928.459304563 570.599308739 938.139750193 588.372423405 938.139750193 c 0
840.372423405 506.139750193 m 0
 866.864740448 506.139750193 888.373142798 484.631347844 888.373142798 458.1390308 c 0
 888.373142798 449.419828422 886.043325955 441.240489871 881.972805051 434.190127928 c 2
 839.139193243 360 l 1
 924.74609375 360 l 2
 951.23801375 360 972.74609375 338.49192 972.74609375 312 c 0
 972.74609375 285.50808 951.23801375 264 924.74609375 264 c 2
 839.139193243 264 l 1
 881.972805052 189.809872072 l 2
 886.043325955 182.759510129 888.373142798 174.580171578 888.373142798 165.8609692 c 0
 888.373142798 139.368652156 866.864740449 117.860249807 840.372423405 117.860249807 c 0
 822.599308739 117.860249807 807.070587476 127.541414786 798.833082161 141.809218674 c 2
 756 215.998429223 l 1
 713.166917839 141.809218674 l 2
 704.869618198 127.437847784 689.339650858 117.757402153 671.566536193 117.757402153 c 0
 645.074219149 117.757402153 623.5658168 139.265804502 623.5658168 165.758121546 c 0
 623.5658168 174.477323924 625.895633642 182.656662475 630.027194949 189.809872072 c 2
 672.860806757 264 l 1
 587.25390625 264 l 2
 560.76198625 264 539.25390625 285.50808 539.25390625 312 c 0
 539.25390625 338.49192 560.76198625 360 587.25390625 360 c 2
 672.860806757 360 l 1
 630.027194949 434.190127928 l 2
 625.895633642 441.343337525 623.5658168 449.522676076 623.5658168 458.241878454 c 0
 623.5658168 484.734195498 645.074219149 506.242597847 671.566536193 506.242597847 c 0
 689.339650858 506.242597847 704.869618198 496.562152216 713.166917839 482.190781326 c 2
 756 408.001570777 l 1
 798.833082161 482.190781326 l 2
 807.0693414 496.459304563 822.599308739 506.139750193 840.372423405 506.139750193 c 0
336.372423405 506.139750193 m 0
 362.864740449 506.139750193 384.373142798 484.631347844 384.373142798 458.1390308 c 0
 384.373142798 449.419828422 382.043325955 441.240489871 377.972805052 434.190127928 c 2
 335.139193243 360 l 1
 420.74609375 360 l 2
 447.23801375 360 468.74609375 338.49192 468.74609375 312 c 0
 468.74609375 285.50808 447.23801375 264 420.74609375 264 c 2
 335.139193243 264 l 1
 377.972805052 189.809872072 l 2
 382.043325955 182.759510129 384.373142798 174.580171578 384.373142798 165.8609692 c 0
 384.373142798 139.368652156 362.864740449 117.860249807 336.372423405 117.860249807 c 0
 318.599308739 117.860249807 303.070587476 127.541414786 294.833082161 141.809218674 c 2
 252 215.998429223 l 1
 209.166917839 141.809218674 l 2
 200.869618198 127.437847784 185.339650858 117.757402153 167.566536193 117.757402153 c 0
 141.074219149 117.757402153 119.5658168 139.265804502 119.5658168 165.758121546 c 0
 119.5658168 174.477323924 121.895633642 182.656662475 126.027194949 189.809872072 c 2
 168.860806757 264 l 1
 83.25390625 264 l 2
 56.76198625 264 35.25390625 285.50808 35.25390625 312 c 0
 35.25390625 338.49192 56.76198625 360 83.25390625 360 c 2
 168.860806757 360 l 1
 126.027194949 434.190127928 l 2
 121.895633642 441.343337525 119.5658168 449.522676076 119.5658168 458.241878454 c 0
 119.5658168 484.734195498 141.074219149 506.242597847 167.566536193 506.242597847 c 0
 185.339650858 506.242597847 200.869618198 496.562152216 209.166917839 482.190781326 c 2
 252 408.001570777 l 1
 294.833082161 482.190781326 l 2
 303.0693414 496.459304563 318.599308739 506.139750193 336.372423405 506.139750193 c 0
EndSplineSet
EndChar

StartChar: SF100000
Encoding: 9472 9472 121
Width: 1008
Flags: HW
LayerCount: 2
Fore
SplineSet
0 486 m 1
 0 570 l 1
 1008 570 l 1
 1008 486 l 1
 0 486 l 1
EndSplineSet
EndChar

StartChar: uni2501
Encoding: 9473 9473 122
Width: 1008
Flags: HW
LayerCount: 2
Fore
SplineSet
0 402 m 1
 0 654 l 1
 1008 654 l 1
 1008 402 l 1
 0 402 l 1
EndSplineSet
EndChar

StartChar: SF110000
Encoding: 9474 9474 123
Width: 1008
Flags: HW
LayerCount: 2
Fore
SplineSet
462 -336 m 1
 462 1344 l 1
 546 1344 l 1
 546 -336 l 1
 462 -336 l 1
EndSplineSet
EndChar

StartChar: uni2503
Encoding: 9475 9475 124
Width: 1008
Flags: HW
LayerCount: 2
Fore
SplineSet
378 -336 m 1
 378 1344 l 1
 630 1344 l 1
 630 -336 l 1
 378 -336 l 1
EndSplineSet
EndChar

StartChar: uni2504
Encoding: 9476 9476 125
Width: 1008
Flags: HW
LayerCount: 2
Fore
SplineSet
84 486 m 1
 84 570 l 1
 252 570 l 1
 252 486 l 1
 84 486 l 1
420 486 m 1
 420 570 l 1
 588 570 l 1
 588 486 l 1
 420 486 l 1
756 486 m 1
 756 570 l 1
 924 570 l 1
 924 486 l 1
 756 486 l 1
EndSplineSet
EndChar

StartChar: uni2505
Encoding: 9477 9477 126
Width: 1008
Flags: HW
LayerCount: 2
Fore
SplineSet
84 402 m 1
 84 654 l 1
 252 654 l 1
 252 402 l 1
 84 402 l 1
420 402 m 1
 420 654 l 1
 588 654 l 1
 588 402 l 1
 420 402 l 1
756 402 m 1
 756 654 l 1
 924 654 l 1
 924 402 l 1
 756 402 l 1
EndSplineSet
EndChar

StartChar: uni2506
Encoding: 9478 9478 127
Width: 1008
Flags: HW
LayerCount: 2
Fore
SplineSet
462 -196 m 1
 462 84 l 1
 546 84 l 1
 546 -196 l 1
 462 -196 l 1
462 364 m 1
 462 644 l 1
 546 644 l 1
 546 364 l 1
 462 364 l 1
462 924 m 1
 462 1204 l 1
 546 1204 l 1
 546 924 l 1
 462 924 l 1
EndSplineSet
EndChar

StartChar: uni2507
Encoding: 9479 9479 128
Width: 1008
Flags: HW
LayerCount: 2
Fore
SplineSet
378 -196 m 1
 378 84 l 1
 630 84 l 1
 630 -196 l 1
 378 -196 l 1
378 364 m 1
 378 644 l 1
 630 644 l 1
 630 364 l 1
 378 364 l 1
378 924 m 1
 378 1204 l 1
 630 1204 l 1
 630 924 l 1
 378 924 l 1
EndSplineSet
EndChar

StartChar: uni2508
Encoding: 9480 9480 129
Width: 1008
Flags: HW
LayerCount: 2
Fore
SplineSet
63 486 m 1
 63 570 l 1
 189 570 l 1
 189 486 l 1
 63 486 l 1
315 486 m 1
 315 570 l 1
 441 570 l 1
 441 486 l 1
 315 486 l 1
567 486 m 1
 567 570 l 1
 693 570 l 1
 693 486 l 1
 567 486 l 1
819 486 m 1
 819 570 l 1
 945 570 l 1
 945 486 l 1
 819 486 l 1
EndSplineSet
EndChar

StartChar: uni2509
Encoding: 9481 9481 130
Width: 1008
Flags: HW
LayerCount: 2
Fore
SplineSet
63 402 m 1
 63 654 l 1
 189 654 l 1
 189 402 l 1
 63 402 l 1
315 402 m 1
 315 654 l 1
 441 654 l 1
 441 402 l 1
 315 402 l 1
567 402 m 1
 567 654 l 1
 693 654 l 1
 693 402 l 1
 567 402 l 1
819 402 m 1
 819 654 l 1
 945 654 l 1
 945 402 l 1
 819 402 l 1
EndSplineSet
EndChar

StartChar: uni250A
Encoding: 9482 9482 131
Width: 1008
Flags: HW
LayerCount: 2
Fore
SplineSet
462 -231 m 1
 462 -21 l 1
 546 -21 l 1
 546 -231 l 1
 462 -231 l 1
462 189 m 1
 462 399 l 1
 546 399 l 1
 546 189 l 1
 462 189 l 1
462 609 m 1
 462 819 l 1
 546 819 l 1
 546 609 l 1
 462 609 l 1
462 1029 m 1
 462 1239 l 1
 546 1239 l 1
 546 1029 l 1
 462 1029 l 1
EndSplineSet
EndChar

StartChar: uni250B
Encoding: 9483 9483 132
Width: 1008
Flags: HW
LayerCount: 2
Fore
SplineSet
378 -231 m 1
 378 -21 l 1
 630 -21 l 1
 630 -231 l 1
 378 -231 l 1
378 189 m 1
 378 399 l 1
 630 399 l 1
 630 189 l 1
 378 189 l 1
378 609 m 1
 378 819 l 1
 630 819 l 1
 630 609 l 1
 378 609 l 1
378 1029 m 1
 378 1239 l 1
 630 1239 l 1
 630 1029 l 1
 378 1029 l 1
EndSplineSet
EndChar

StartChar: SF010000
Encoding: 9484 9484 133
Width: 1008
Flags: HW
LayerCount: 2
Fore
SplineSet
462 570 m 1
 1008 570 l 1
 1008 486 l 1
 546 486 l 1
 546 -336 l 1
 462 -336 l 1
 462 570 l 1
EndSplineSet
EndChar

StartChar: uni250D
Encoding: 9485 9485 134
Width: 1008
Flags: HW
LayerCount: 2
Fore
SplineSet
462 612 m 1
 1008 612 l 1
 1008 444 l 1
 546 444 l 1
 546 -336 l 1
 462 -336 l 1
 462 612 l 1
EndSplineSet
EndChar

StartChar: uni250E
Encoding: 9486 9486 135
Width: 1008
Flags: HW
LayerCount: 2
Fore
SplineSet
420 570 m 1
 1008 570 l 1
 1008 486 l 1
 588 486 l 1
 588 -336 l 1
 420 -336 l 1
 420 570 l 1
EndSplineSet
EndChar

StartChar: uni250F
Encoding: 9487 9487 136
Width: 1008
Flags: HW
LayerCount: 2
Fore
SplineSet
420 612 m 1
 1008 612 l 1
 1008 444 l 1
 588 444 l 1
 588 -336 l 1
 420 -336 l 1
 420 612 l 1
EndSplineSet
EndChar

StartChar: SF030000
Encoding: 9488 9488 137
Width: 1008
Flags: HW
LayerCount: 2
Fore
SplineSet
546 570 m 1
 0 570 l 1
 0 486 l 1
 462 486 l 1
 462 -336 l 1
 546 -336 l 1
 546 570 l 1
EndSplineSet
EndChar

StartChar: uni2511
Encoding: 9489 9489 138
Width: 1008
Flags: HW
LayerCount: 2
Fore
SplineSet
546 612 m 1
 0 612 l 1
 0 444 l 1
 462 444 l 1
 462 -336 l 1
 546 -336 l 1
 546 612 l 1
EndSplineSet
EndChar

StartChar: uni2512
Encoding: 9490 9490 139
Width: 1008
Flags: HW
LayerCount: 2
Fore
SplineSet
588 570 m 1
 0 570 l 1
 0 486 l 1
 420 486 l 1
 420 -336 l 1
 588 -336 l 1
 588 570 l 1
EndSplineSet
EndChar

StartChar: uni2513
Encoding: 9491 9491 140
Width: 1008
Flags: HW
LayerCount: 2
Fore
SplineSet
588 612 m 1
 0 612 l 1
 0 444 l 1
 420 444 l 1
 420 -336 l 1
 588 -336 l 1
 588 612 l 1
EndSplineSet
EndChar

StartChar: SF020000
Encoding: 9492 9492 141
Width: 1008
Flags: HW
LayerCount: 2
Fore
SplineSet
462 486 m 1
 1008 486 l 1
 1008 570 l 1
 546 570 l 1
 546 1344 l 1
 462 1344 l 1
 462 486 l 1
EndSplineSet
EndChar

StartChar: uni2515
Encoding: 9493 9493 142
Width: 1008
Flags: HW
LayerCount: 2
Fore
SplineSet
462 444 m 1
 1008 444 l 1
 1008 612 l 1
 546 612 l 1
 546 1344 l 1
 462 1344 l 1
 462 444 l 1
EndSplineSet
EndChar

StartChar: uni2516
Encoding: 9494 9494 143
Width: 1008
Flags: HW
LayerCount: 2
Fore
SplineSet
420 486 m 1
 1008 486 l 1
 1008 570 l 1
 588 570 l 1
 588 1344 l 1
 420 1344 l 1
 420 486 l 1
EndSplineSet
EndChar

StartChar: uni2517
Encoding: 9495 9495 144
Width: 1008
Flags: HW
LayerCount: 2
Fore
SplineSet
420 444 m 1
 1008 444 l 1
 1008 612 l 1
 588 612 l 1
 588 1344 l 1
 420 1344 l 1
 420 444 l 1
EndSplineSet
EndChar

StartChar: SF040000
Encoding: 9496 9496 145
Width: 1008
Flags: HW
LayerCount: 2
Fore
SplineSet
546 486 m 1
 0 486 l 1
 0 570 l 1
 462 570 l 1
 462 1344 l 1
 546 1344 l 1
 546 486 l 1
EndSplineSet
EndChar

StartChar: uni2519
Encoding: 9497 9497 146
Width: 1008
Flags: HW
LayerCount: 2
Fore
SplineSet
546 444 m 1
 0 444 l 1
 0 612 l 1
 462 612 l 1
 462 1344 l 1
 546 1344 l 1
 546 444 l 1
EndSplineSet
EndChar

StartChar: uni251A
Encoding: 9498 9498 147
Width: 1008
Flags: HW
LayerCount: 2
Fore
SplineSet
588 486 m 1
 0 486 l 1
 0 570 l 1
 420 570 l 1
 420 1344 l 1
 588 1344 l 1
 588 486 l 1
EndSplineSet
EndChar

StartChar: uni251B
Encoding: 9499 9499 148
Width: 1008
Flags: HW
LayerCount: 2
Fore
SplineSet
588 444 m 1
 0 444 l 1
 0 612 l 1
 420 612 l 1
 420 1344 l 1
 588 1344 l 1
 588 444 l 1
EndSplineSet
EndChar

StartChar: SF080000
Encoding: 9500 9500 149
Width: 1008
Flags: HW
LayerCount: 2
Fore
SplineSet
462 1344 m 1
 546 1344 l 1
 546 570 l 1
 1008 570 l 1
 1008 486 l 1
 546 486 l 1
 546 -336 l 1
 462 -336 l 1
 462 1344 l 1
EndSplineSet
EndChar

StartChar: uni251D
Encoding: 9501 9501 150
Width: 1008
Flags: HW
LayerCount: 2
Fore
SplineSet
462 1344 m 1
 546 1344 l 1
 546 654 l 1
 1008 654 l 1
 1008 402 l 1
 546 402 l 1
 546 -336 l 1
 462 -336 l 1
 462 1344 l 1
EndSplineSet
EndChar

StartChar: uni251E
Encoding: 9502 9502 151
Width: 1008
Flags: HW
LayerCount: 2
Fore
SplineSet
378 1344 m 1
 630 1344 l 1
 630 570 l 1
 1008 570 l 1
 1008 486 l 1
 546 486 l 1
 546 -336 l 1
 462 -336 l 1
 462 486 l 1
 378 486 l 1
 378 1344 l 1
EndSplineSet
EndChar

StartChar: uni251F
Encoding: 9503 9503 152
Width: 1008
Flags: HW
LayerCount: 2
Fore
SplineSet
462 1344 m 1
 546 1344 l 1
 546 570 l 1
 1008 570 l 1
 1008 486 l 1
 630 486 l 1
 630 -336 l 1
 378 -336 l 1
 378 570 l 1
 462 570 l 1
 462 1344 l 1
EndSplineSet
EndChar

StartChar: uni2520
Encoding: 9504 9504 153
Width: 1008
Flags: HW
LayerCount: 2
Fore
SplineSet
378 1344 m 1
 630 1344 l 1
 630 570 l 1
 1008 570 l 1
 1008 486 l 1
 630 486 l 1
 630 -336 l 1
 378 -336 l 1
 378 1344 l 1
EndSplineSet
EndChar

StartChar: uni2521
Encoding: 9505 9505 154
Width: 1008
Flags: HW
LayerCount: 2
Fore
SplineSet
378 1344 m 1
 630 1344 l 1
 630 654 l 1
 1008 654 l 1
 1008 402 l 1
 546 402 l 1
 546 -336 l 1
 462 -336 l 1
 462 402 l 1
 378 402 l 1
 378 1344 l 1
EndSplineSet
EndChar

StartChar: uni2522
Encoding: 9506 9506 155
Width: 1008
Flags: HW
LayerCount: 2
Fore
SplineSet
462 1344 m 1
 546 1344 l 1
 546 654 l 1
 1008 654 l 1
 1008 402 l 1
 630 402 l 1
 630 -336 l 1
 378 -336 l 1
 378 654 l 1
 462 654 l 1
 462 1344 l 1
EndSplineSet
EndChar

StartChar: uni2523
Encoding: 9507 9507 156
Width: 1008
Flags: HW
LayerCount: 2
Fore
SplineSet
378 1344 m 1
 630 1344 l 1
 630 654 l 1
 1008 654 l 1
 1008 402 l 1
 630 402 l 1
 630 -336 l 1
 378 -336 l 1
 378 1344 l 1
EndSplineSet
EndChar

StartChar: SF090000
Encoding: 9508 9508 157
Width: 1008
Flags: HW
LayerCount: 2
Fore
SplineSet
546 1344 m 1
 462 1344 l 1
 462 570 l 1
 0 570 l 1
 0 486 l 1
 462 486 l 1
 462 -336 l 1
 546 -336 l 1
 546 1344 l 1
EndSplineSet
EndChar

StartChar: uni2525
Encoding: 9509 9509 158
Width: 1008
Flags: HW
LayerCount: 2
Fore
SplineSet
546 1344 m 1
 462 1344 l 1
 462 654 l 1
 0 654 l 1
 0 402 l 1
 462 402 l 1
 462 -336 l 1
 546 -336 l 1
 546 1344 l 1
EndSplineSet
EndChar

StartChar: uni2526
Encoding: 9510 9510 159
Width: 1008
Flags: HW
LayerCount: 2
Fore
SplineSet
630 1344 m 1
 378 1344 l 1
 378 570 l 1
 0 570 l 1
 0 486 l 1
 462 486 l 1
 462 -336 l 1
 546 -336 l 1
 546 486 l 1
 630 486 l 1
 630 1344 l 1
EndSplineSet
EndChar

StartChar: uni2527
Encoding: 9511 9511 160
Width: 1008
Flags: HW
LayerCount: 2
Fore
SplineSet
546 1344 m 1
 462 1344 l 1
 462 570 l 1
 0 570 l 1
 0 486 l 1
 378 486 l 1
 378 -336 l 1
 630 -336 l 1
 630 570 l 1
 546 570 l 1
 546 1344 l 1
EndSplineSet
EndChar

StartChar: uni2528
Encoding: 9512 9512 161
Width: 1008
Flags: HW
LayerCount: 2
Fore
SplineSet
630 1344 m 1
 378 1344 l 1
 378 570 l 1
 0 570 l 1
 0 486 l 1
 378 486 l 1
 378 -336 l 1
 630 -336 l 1
 630 1344 l 1
EndSplineSet
EndChar

StartChar: uni2529
Encoding: 9513 9513 162
Width: 1008
Flags: HW
LayerCount: 2
Fore
SplineSet
630 1344 m 1
 378 1344 l 1
 378 654 l 1
 0 654 l 1
 0 402 l 1
 462 402 l 1
 462 -336 l 1
 546 -336 l 1
 546 402 l 1
 630 402 l 1
 630 1344 l 1
EndSplineSet
EndChar

StartChar: uni252A
Encoding: 9514 9514 163
Width: 1008
Flags: HW
LayerCount: 2
Fore
SplineSet
546 1344 m 1
 462 1344 l 1
 462 654 l 1
 0 654 l 1
 0 402 l 1
 378 402 l 1
 378 -336 l 1
 630 -336 l 1
 630 654 l 1
 546 654 l 1
 546 1344 l 1
EndSplineSet
EndChar

StartChar: uni252B
Encoding: 9515 9515 164
Width: 1008
Flags: HW
LayerCount: 2
Fore
SplineSet
630 1344 m 1
 378 1344 l 1
 378 654 l 1
 0 654 l 1
 0 402 l 1
 378 402 l 1
 378 -336 l 1
 630 -336 l 1
 630 1344 l 1
EndSplineSet
EndChar

StartChar: SF060000
Encoding: 9516 9516 165
Width: 1008
Flags: HW
LayerCount: 2
Fore
SplineSet
0 570 m 1
 1008 570 l 1
 1008 486 l 1
 546 486 l 1
 546 -336 l 1
 462 -336 l 1
 462 486 l 1
 0 486 l 1
 0 570 l 1
EndSplineSet
EndChar

StartChar: uni252D
Encoding: 9517 9517 166
Width: 1008
Flags: HW
LayerCount: 2
Fore
SplineSet
0 654 m 1
 546 654 l 1
 546 570 l 1
 1008 570 l 1
 1008 486 l 1
 546 486 l 1
 546 -336 l 1
 462 -336 l 1
 462 402 l 1
 0 402 l 1
 0 654 l 1
EndSplineSet
EndChar

StartChar: uni252E
Encoding: 9518 9518 167
Width: 1008
Flags: HW
LayerCount: 2
Fore
SplineSet
0 570 m 1
 462 570 l 1
 462 654 l 1
 1008 654 l 1
 1008 402 l 1
 546 402 l 1
 546 -336 l 1
 462 -336 l 1
 462 486 l 1
 0 486 l 1
 0 570 l 1
EndSplineSet
EndChar

StartChar: uni252F
Encoding: 9519 9519 168
Width: 1008
Flags: HW
LayerCount: 2
Fore
SplineSet
0 654 m 1
 1008 654 l 1
 1008 402 l 1
 546 402 l 1
 546 -336 l 1
 462 -336 l 1
 462 402 l 1
 0 402 l 1
 0 654 l 1
EndSplineSet
EndChar

StartChar: uni2530
Encoding: 9520 9520 169
Width: 1008
Flags: HW
LayerCount: 2
Fore
SplineSet
0 570 m 1
 1008 570 l 1
 1008 486 l 1
 630 486 l 1
 630 -336 l 1
 378 -336 l 1
 378 486 l 1
 0 486 l 1
 0 570 l 1
EndSplineSet
EndChar

StartChar: uni2531
Encoding: 9521 9521 170
Width: 1008
Flags: HW
LayerCount: 2
Fore
SplineSet
0 654 m 1
 630 654 l 1
 630 570 l 1
 1008 570 l 1
 1008 486 l 1
 630 486 l 1
 630 -336 l 1
 378 -336 l 1
 378 402 l 1
 0 402 l 1
 0 654 l 1
EndSplineSet
EndChar

StartChar: uni2532
Encoding: 9522 9522 171
Width: 1008
Flags: HW
LayerCount: 2
Fore
SplineSet
0 570 m 1
 378 570 l 1
 378 654 l 1
 1008 654 l 1
 1008 402 l 1
 630 402 l 1
 630 -336 l 1
 378 -336 l 1
 378 486 l 1
 0 486 l 1
 0 570 l 1
EndSplineSet
EndChar

StartChar: uni2533
Encoding: 9523 9523 172
Width: 1008
Flags: HW
LayerCount: 2
Fore
SplineSet
0 654 m 1
 1008 654 l 1
 1008 402 l 1
 630 402 l 1
 630 -336 l 1
 378 -336 l 1
 378 402 l 1
 0 402 l 1
 0 654 l 1
EndSplineSet
EndChar

StartChar: SF070000
Encoding: 9524 9524 173
Width: 1008
Flags: HW
LayerCount: 2
Fore
SplineSet
0 486 m 1
 1008 486 l 1
 1008 570 l 1
 546 570 l 1
 546 1344 l 1
 462 1344 l 1
 462 570 l 1
 0 570 l 1
 0 486 l 1
EndSplineSet
EndChar

StartChar: uni2535
Encoding: 9525 9525 174
Width: 1008
Flags: HW
LayerCount: 2
Fore
SplineSet
0 402 m 1
 546 402 l 1
 546 486 l 1
 1008 486 l 1
 1008 570 l 1
 546 570 l 1
 546 1344 l 1
 462 1344 l 1
 462 654 l 1
 0 654 l 1
 0 402 l 1
EndSplineSet
EndChar

StartChar: uni2536
Encoding: 9526 9526 175
Width: 1008
Flags: HW
LayerCount: 2
Fore
SplineSet
0 486 m 1
 462 486 l 1
 462 402 l 1
 1008 402 l 1
 1008 654 l 1
 546 654 l 1
 546 1344 l 1
 462 1344 l 1
 462 570 l 1
 0 570 l 1
 0 486 l 1
EndSplineSet
EndChar

StartChar: uni2537
Encoding: 9527 9527 176
Width: 1008
Flags: HW
LayerCount: 2
Fore
SplineSet
0 402 m 1
 1008 402 l 1
 1008 654 l 1
 546 654 l 1
 546 1344 l 1
 462 1344 l 1
 462 654 l 1
 0 654 l 1
 0 402 l 1
EndSplineSet
EndChar

StartChar: uni2538
Encoding: 9528 9528 177
Width: 1008
Flags: HW
LayerCount: 2
Fore
SplineSet
0 486 m 1
 1008 486 l 1
 1008 570 l 1
 630 570 l 1
 630 1344 l 1
 378 1344 l 1
 378 570 l 1
 0 570 l 1
 0 486 l 1
EndSplineSet
EndChar

StartChar: uni2539
Encoding: 9529 9529 178
Width: 1008
Flags: HW
LayerCount: 2
Fore
SplineSet
0 402 m 1
 630 402 l 1
 630 486 l 1
 1008 486 l 1
 1008 570 l 1
 630 570 l 1
 630 1344 l 1
 378 1344 l 1
 378 654 l 1
 0 654 l 1
 0 402 l 1
EndSplineSet
EndChar

StartChar: uni253A
Encoding: 9530 9530 179
Width: 1008
Flags: HW
LayerCount: 2
Fore
SplineSet
0 486 m 1
 378 486 l 1
 378 402 l 1
 1008 402 l 1
 1008 654 l 1
 630 654 l 1
 630 1344 l 1
 378 1344 l 1
 378 570 l 1
 0 570 l 1
 0 486 l 1
EndSplineSet
EndChar

StartChar: uni253B
Encoding: 9531 9531 180
Width: 1008
Flags: HW
LayerCount: 2
Fore
SplineSet
0 402 m 1
 1008 402 l 1
 1008 654 l 1
 630 654 l 1
 630 1344 l 1
 378 1344 l 1
 378 654 l 1
 0 654 l 1
 0 402 l 1
EndSplineSet
EndChar

StartChar: SF050000
Encoding: 9532 9532 181
Width: 1008
Flags: HW
LayerCount: 2
Fore
SplineSet
462 1344 m 1
 546 1344 l 1
 546 570 l 1
 1008 570 l 1
 1008 486 l 1
 546 486 l 1
 546 -336 l 1
 462 -336 l 1
 462 486 l 1
 0 486 l 1
 0 570 l 1
 462 570 l 1
 462 1344 l 1
EndSplineSet
EndChar

StartChar: uni253D
Encoding: 9533 9533 182
Width: 1008
Flags: HW
LayerCount: 2
Fore
SplineSet
462 1344 m 1
 546 1344 l 1
 546 570 l 1
 1008 570 l 1
 1008 486 l 1
 546 486 l 1
 546 -336 l 1
 462 -336 l 1
 462 402 l 1
 0 402 l 1
 0 654 l 1
 462 654 l 1
 462 1344 l 1
EndSplineSet
EndChar

StartChar: uni253E
Encoding: 9534 9534 183
Width: 1008
Flags: HW
LayerCount: 2
Fore
SplineSet
462 1344 m 1
 546 1344 l 1
 546 654 l 1
 1008 654 l 1
 1008 402 l 1
 546 402 l 1
 546 -336 l 1
 462 -336 l 1
 462 486 l 1
 0 486 l 1
 0 570 l 1
 462 570 l 1
 462 1344 l 1
EndSplineSet
EndChar

StartChar: uni253F
Encoding: 9535 9535 184
Width: 1008
Flags: HW
LayerCount: 2
Fore
SplineSet
462 1344 m 1
 546 1344 l 1
 546 654 l 1
 1008 654 l 1
 1008 402 l 1
 546 402 l 1
 546 -336 l 1
 462 -336 l 1
 462 402 l 1
 0 402 l 1
 0 654 l 1
 462 654 l 1
 462 1344 l 1
EndSplineSet
EndChar

StartChar: uni2540
Encoding: 9536 9536 185
Width: 1008
Flags: HW
LayerCount: 2
Fore
SplineSet
378 1344 m 1
 630 1344 l 1
 630 570 l 1
 1008 570 l 1
 1008 486 l 1
 546 486 l 1
 546 -336 l 1
 462 -336 l 1
 462 486 l 1
 0 486 l 1
 0 570 l 1
 378 570 l 1
 378 1344 l 1
EndSplineSet
EndChar

StartChar: uni2541
Encoding: 9537 9537 186
Width: 1008
Flags: HW
LayerCount: 2
Fore
SplineSet
462 1344 m 1
 546 1344 l 1
 546 570 l 1
 1008 570 l 1
 1008 486 l 1
 630 486 l 1
 630 -336 l 1
 378 -336 l 1
 378 486 l 1
 0 486 l 1
 0 570 l 1
 462 570 l 1
 462 1344 l 1
EndSplineSet
EndChar

StartChar: uni2542
Encoding: 9538 9538 187
Width: 1008
Flags: HW
LayerCount: 2
Fore
SplineSet
378 1344 m 1
 630 1344 l 1
 630 570 l 1
 1008 570 l 1
 1008 486 l 1
 630 486 l 1
 630 -336 l 1
 378 -336 l 1
 378 486 l 1
 0 486 l 1
 0 570 l 1
 378 570 l 1
 378 1344 l 1
EndSplineSet
EndChar

StartChar: uni2543
Encoding: 9539 9539 188
Width: 1008
Flags: HW
LayerCount: 2
Fore
SplineSet
378 1344 m 1
 630 1344 l 1
 630 570 l 1
 1008 570 l 1
 1008 486 l 1
 546 486 l 1
 546 -336 l 1
 462 -336 l 1
 462 402 l 1
 0 402 l 1
 0 654 l 1
 378 654 l 1
 378 1344 l 1
EndSplineSet
EndChar

StartChar: uni2544
Encoding: 9540 9540 189
Width: 1008
Flags: HW
LayerCount: 2
Fore
SplineSet
378 1344 m 1
 630 1344 l 1
 630 654 l 1
 1008 654 l 1
 1008 402 l 1
 546 402 l 1
 546 -336 l 1
 462 -336 l 1
 462 486 l 1
 0 486 l 1
 0 570 l 1
 378 570 l 1
 378 1344 l 1
EndSplineSet
EndChar

StartChar: uni2545
Encoding: 9541 9541 190
Width: 1008
Flags: HW
LayerCount: 2
Fore
SplineSet
462 1344 m 1
 546 1344 l 1
 546 570 l 1
 1008 570 l 1
 1008 486 l 1
 630 486 l 1
 630 -336 l 1
 378 -336 l 1
 378 402 l 1
 0 402 l 1
 0 654 l 1
 462 654 l 1
 462 1344 l 1
EndSplineSet
EndChar

StartChar: uni2546
Encoding: 9542 9542 191
Width: 1008
Flags: HW
LayerCount: 2
Fore
SplineSet
462 1344 m 1
 546 1344 l 1
 546 654 l 1
 1008 654 l 1
 1008 402 l 1
 630 402 l 1
 630 -336 l 1
 378 -336 l 1
 378 486 l 1
 0 486 l 1
 0 570 l 1
 462 570 l 1
 462 1344 l 1
EndSplineSet
EndChar

StartChar: uni2547
Encoding: 9543 9543 192
Width: 1008
Flags: HW
LayerCount: 2
Fore
SplineSet
378 1344 m 1
 630 1344 l 1
 630 654 l 1
 1008 654 l 1
 1008 402 l 1
 546 402 l 1
 546 -336 l 1
 462 -336 l 1
 462 402 l 1
 0 402 l 1
 0 654 l 1
 378 654 l 1
 378 1344 l 1
EndSplineSet
EndChar

StartChar: uni2548
Encoding: 9544 9544 193
Width: 1008
Flags: HW
LayerCount: 2
Fore
SplineSet
462 1344 m 1
 546 1344 l 1
 546 654 l 1
 1008 654 l 1
 1008 402 l 1
 630 402 l 1
 630 -336 l 1
 378 -336 l 1
 378 402 l 1
 0 402 l 1
 0 654 l 1
 462 654 l 1
 462 1344 l 1
EndSplineSet
EndChar

StartChar: uni2549
Encoding: 9545 9545 194
Width: 1008
Flags: HW
LayerCount: 2
Fore
SplineSet
378 1344 m 1
 630 1344 l 1
 630 570 l 1
 1008 570 l 1
 1008 486 l 1
 630 486 l 1
 630 -336 l 1
 378 -336 l 1
 378 402 l 1
 0 402 l 1
 0 654 l 1
 378 654 l 1
 378 1344 l 1
EndSplineSet
EndChar

StartChar: uni254A
Encoding: 9546 9546 195
Width: 1008
Flags: HW
LayerCount: 2
Fore
SplineSet
378 1344 m 1
 630 1344 l 1
 630 654 l 1
 1008 654 l 1
 1008 402 l 1
 630 402 l 1
 630 -336 l 1
 378 -336 l 1
 378 486 l 1
 0 486 l 1
 0 570 l 1
 378 570 l 1
 378 1344 l 1
EndSplineSet
EndChar

StartChar: uni254B
Encoding: 9547 9547 196
Width: 1008
Flags: HW
LayerCount: 2
Fore
SplineSet
378 1344 m 1
 630 1344 l 1
 630 654 l 1
 1008 654 l 1
 1008 402 l 1
 630 402 l 1
 630 -336 l 1
 378 -336 l 1
 378 402 l 1
 0 402 l 1
 0 654 l 1
 378 654 l 1
 378 1344 l 1
EndSplineSet
EndChar

StartChar: uni254C
Encoding: 9548 9548 197
Width: 1008
Flags: HW
LayerCount: 2
Fore
SplineSet
126 486 m 1
 126 570 l 1
 378 570 l 1
 378 486 l 1
 126 486 l 1
630 486 m 1
 630 570 l 1
 882 570 l 1
 882 486 l 1
 630 486 l 1
EndSplineSet
EndChar

StartChar: uni254D
Encoding: 9549 9549 198
Width: 1008
Flags: HW
LayerCount: 2
Fore
SplineSet
126 402 m 1
 126 654 l 1
 378 654 l 1
 378 402 l 1
 126 402 l 1
630 402 m 1
 630 654 l 1
 882 654 l 1
 882 402 l 1
 630 402 l 1
EndSplineSet
EndChar

StartChar: uni254E
Encoding: 9550 9550 199
Width: 1008
Flags: HW
LayerCount: 2
Fore
SplineSet
462 -126 m 1
 462 294 l 1
 546 294 l 1
 546 -126 l 1
 462 -126 l 1
462 714 m 1
 462 1134 l 1
 546 1134 l 1
 546 714 l 1
 462 714 l 1
EndSplineSet
EndChar

StartChar: uni254F
Encoding: 9551 9551 200
Width: 1008
Flags: HW
LayerCount: 2
Fore
SplineSet
378 -126 m 1
 378 294 l 1
 630 294 l 1
 630 -126 l 1
 378 -126 l 1
378 714 m 1
 378 1134 l 1
 630 1134 l 1
 630 714 l 1
 378 714 l 1
EndSplineSet
EndChar

StartChar: SF430000
Encoding: 9552 9552 201
Width: 1008
Flags: HW
LayerCount: 2
Fore
SplineSet
1008 360 m 1
 0 360 l 1
 0 444 l 1
 1008 444 l 1
 1008 360 l 1
1008 612 m 1
 0 612 l 1
 0 696 l 1
 1008 696 l 1
 1008 612 l 1
EndSplineSet
EndChar

StartChar: SF240000
Encoding: 9553 9553 202
Width: 1008
Flags: HW
LayerCount: 2
Fore
SplineSet
420 1344 m 1
 420 -336 l 1
 336 -336 l 1
 336 1344 l 1
 420 1344 l 1
672 1344 m 1
 672 -336 l 1
 588 -336 l 1
 588 1344 l 1
 672 1344 l 1
EndSplineSet
EndChar

StartChar: SF510000
Encoding: 9554 9554 203
Width: 1008
Flags: HW
LayerCount: 2
Fore
SplineSet
1008 570 m 1
 1008 486 l 2
 672 486 l 1
 672 -336 l 1
 588 -336 l 1
 588 486 l 1
 420 486 l 1
 420 -336 l 1
 336 -336 l 1
 336 528 l 2
 336 551.18043 354.81957 570 378 570 c 0
 1008 570 1008 570 1008 570 c 1
EndSplineSet
EndChar

StartChar: SF520000
Encoding: 9555 9555 204
Width: 1008
Flags: HW
LayerCount: 2
Fore
SplineSet
1008 612 m 1
 546 612 l 1
 546 444 l 1
 1008 444 l 1
 1008 360 l 1
 546 360 l 1
 546 -336 l 1
 462 -336 l 1
 462 654 l 2
 462 677.18043 480.81957 696 504 696 c 2
 1008 696 l 1
 1008 612 l 1
EndSplineSet
EndChar

StartChar: SF390000
Encoding: 9556 9556 205
Width: 1008
Flags: HW
LayerCount: 2
Fore
SplineSet
588 -336 m 1
 588 402 l 2
 588 425.18043 606.81957 444 630 444 c 2
 1008 444 l 1
 1008 360 l 1
 672 360 l 1
 672 -336 l 1
 588 -336 l 1
336 -336 m 1
 336 654 l 2
 336 677.18043 354.81957 696 378 696 c 2
 1008 696 l 1
 1008 612 l 1
 420 612 l 1
 420 -336 l 1
 336 -336 l 1
EndSplineSet
EndChar

StartChar: SF220000
Encoding: 9557 9557 206
Width: 1008
Flags: HW
LayerCount: 2
Fore
SplineSet
0 486 m 1
 0 570 l 1
 630 570 l 2
 653.18043 570 672 551.18043 672 528 c 2
 672 -336 l 1
 588 -336 l 1
 588 486 l 1
 420 486 l 1
 420 -336 l 1
 336 -336 l 1
 336 486 l 1
 0 486 l 1
EndSplineSet
EndChar

StartChar: SF210000
Encoding: 9558 9558 207
Width: 1008
Flags: HW
LayerCount: 2
Fore
SplineSet
462 -336 m 1
 462 360 l 1
 0 360 l 1
 0 444 l 1
 462 444 l 1
 462 612 l 1
 0 612 l 1
 0 696 l 1
 504 696 l 2
 527.18043 696 546 677.18043 546 654 c 0
 546 -336 546 -336 546 -336 c 1
 462 -336 l 1
EndSplineSet
EndChar

StartChar: SF250000
Encoding: 9559 9559 208
Width: 1008
Flags: HW
LayerCount: 2
Fore
SplineSet
336 -336 m 1
 336 360 l 1
 0 360 l 1
 0 444 l 1
 378 444 l 2
 401.18043 444 420 425.18043 420 402 c 2
 420 -336 l 1
 336 -336 l 1
588 -336 m 1
 588 612 l 1
 0 612 l 1
 0 696 l 1
 630 696 l 2
 653.18043 696 672 677.18043 672 654 c 2
 672 -336 l 1
 588 -336 l 1
EndSplineSet
EndChar

StartChar: SF500000
Encoding: 9560 9560 209
Width: 1008
Flags: HW
LayerCount: 2
Fore
SplineSet
1008 570 m 1
 1008 486 l 2
 378 486 l 2
 354.81957 486 336 504.81957 336 528 c 2
 336 1344 l 1
 420 1344 l 1
 420 570 l 1
 588 570 l 1
 588 1344 l 1
 672 1344 l 1
 672 570 l 1
 1008 570 l 1
EndSplineSet
EndChar

StartChar: SF490000
Encoding: 9561 9561 210
Width: 1008
Flags: HW
LayerCount: 2
Fore
SplineSet
546 1344 m 1
 546 696 l 1
 1008 696 l 1
 1008 612 l 1
 546 612 l 1
 546 444 l 1
 1008 444 l 1
 1008 360 l 1
 504 360 l 2
 480.81957 360 462 378.81957 462 402 c 0
 462 1344 462 1344 462 1344 c 1
 546 1344 l 1
EndSplineSet
EndChar

StartChar: SF380000
Encoding: 9562 9562 211
Width: 1008
Flags: HW
LayerCount: 2
Fore
SplineSet
672 1344 m 1
 672 696 l 1
 1008 696 l 1
 1008 612 l 1
 630 612 l 2
 606.81957 612 588 630.81957 588 654 c 2
 588 1344 l 1
 672 1344 l 1
420 1344 m 1
 420 444 l 1
 1008 444 l 1
 1008 360 l 1
 378 360 l 2
 354.81957 360 336 378.81957 336 402 c 2
 336 1344 l 1
 420 1344 l 1
EndSplineSet
EndChar

StartChar: SF280000
Encoding: 9563 9563 212
Width: 1008
Flags: HW
LayerCount: 2
Fore
SplineSet
0 486 m 1
 0 570 l 1
 336 570 l 1
 336 1344 l 1
 420 1344 l 1
 420 570 l 1
 588 570 l 1
 588 1344 l 1
 672 1344 l 1
 672 528 l 2
 672 504.81957 653.18043 486 630 486 c 0
 0 486 0 486 0 486 c 1
EndSplineSet
EndChar

StartChar: SF270000
Encoding: 9564 9564 213
Width: 1008
Flags: HW
LayerCount: 2
Fore
SplineSet
0 444 m 1
 462 444 l 1
 462 612 l 1
 0 612 l 1
 0 696 l 1
 462 696 l 1
 462 1344 l 1
 546 1344 l 1
 546 402 l 2
 546 378.81957 527.18043 360 504 360 c 2
 0 360 l 1
 0 444 l 1
EndSplineSet
EndChar

StartChar: SF260000
Encoding: 9565 9565 214
Width: 1008
Flags: HW
LayerCount: 2
Fore
SplineSet
420 1344 m 1
 420 654 l 2
 420 630.81957 401.18043 612 378 612 c 2
 0 612 l 1
 0 696 l 1
 336 696 l 1
 336 1344 l 1
 420 1344 l 1
672 1344 m 1
 672 402 l 2
 672 378.81957 653.18043 360 630 360 c 2
 0 360 l 1
 0 444 l 1
 588 444 l 1
 588 1344 l 1
 672 1344 l 1
EndSplineSet
EndChar

StartChar: SF360000
Encoding: 9566 9566 215
Width: 1008
Flags: HW
LayerCount: 2
Fore
SplineSet
1008 360 m 1
 546 360 l 1
 546 -336 l 1
 462 -336 l 1
 462 1344 l 1
 546 1344 l 1
 546 696 l 1
 1008 696 l 1
 1008 612 l 1
 546 612 l 1
 546 444 l 1
 1008 444 l 1
 1008 360 l 1
EndSplineSet
EndChar

StartChar: SF370000
Encoding: 9567 9567 216
Width: 1008
Flags: HW
LayerCount: 2
Fore
SplineSet
336 -336 m 1
 336 1344 l 1
 420 1344 l 1
 420 -336 l 1
 336 -336 l 1
588 -336 m 1
 588 1344 l 1
 672 1344 l 1
 672 570 l 1
 1008 570 l 1
 1008 486 l 2
 672 486 l 1
 672 -336 l 1
 588 -336 l 1
EndSplineSet
EndChar

StartChar: SF420000
Encoding: 9568 9568 217
Width: 1008
Flags: HW
LayerCount: 2
Fore
SplineSet
420 1344 m 1
 420 -336 l 1
 336 -336 l 1
 336 1344 l 1
 420 1344 l 1
672 1344 m 1
 672 696 l 1
 1008 696 l 1
 1008 612 l 1
 630 612 l 2
 606.81957 612 588 630.81957 588 654 c 2
 588 1344 l 1
 672 1344 l 1
1008 360 m 1
 672 360 l 1
 672 -336 l 1
 588 -336 l 1
 588 402 l 2
 588 425.18043 606.81957 444 630 444 c 2
 1008 444 l 1
 1008 360 l 1
EndSplineSet
EndChar

StartChar: SF190000
Encoding: 9569 9569 218
Width: 1008
Flags: HW
LayerCount: 2
Fore
SplineSet
546 1344 m 1
 546 -336 l 1
 462 -336 l 1
 462 360 l 1
 0 360 l 1
 0 444 l 1
 462 444 l 1
 462 612 l 1
 0 612 l 1
 0 696 l 1
 462 696 l 1
 462 1344 l 1
 546 1344 l 1
EndSplineSet
EndChar

StartChar: SF200000
Encoding: 9570 9570 219
Width: 1008
Flags: HW
LayerCount: 2
Fore
SplineSet
0 570 m 1
 336 570 l 1
 336 1344 l 1
 420 1344 l 1
 420 -336 420 -336 420 -336 c 1
 336 -336 l 1
 336 486 l 1
 0 486 l 1
 0 570 l 1
588 -336 m 1
 588 1344 l 1
 672 1344 l 1
 672 -336 l 1
 588 -336 l 1
EndSplineSet
EndChar

StartChar: SF230000
Encoding: 9571 9571 220
Width: 1008
Flags: HW
LayerCount: 2
Fore
SplineSet
420 1344 m 1
 420 654 l 2
 420 630.81957 401.18043 612 378 612 c 2
 0 612 l 1
 0 696 l 1
 336 696 l 1
 336 1344 l 1
 420 1344 l 1
336 -336 m 1
 336 360 l 1
 0 360 l 1
 0 444 l 1
 378 444 l 2
 401.18043 444 420 425.18043 420 402 c 2
 420 -336 l 1
 336 -336 l 1
672 1344 m 1
 672 -336 l 1
 588 -336 l 1
 588 1344 l 1
 672 1344 l 1
EndSplineSet
EndChar

StartChar: SF470000
Encoding: 9572 9572 221
Width: 1008
Flags: HW
LayerCount: 2
Fore
SplineSet
1008 612 m 1
 0 612 l 1
 0 696 l 1
 1008 696 l 1
 1008 612 l 1
462 -336 m 1
 462 360 l 1
 0 360 l 1
 0 444 l 1
 1008 444 1008 444 1008 444 c 1
 1008 360 l 1
 546 360 l 1
 546 -336 l 1
 462 -336 l 1
EndSplineSet
EndChar

StartChar: SF480000
Encoding: 9573 9573 222
Width: 1008
Flags: HW
LayerCount: 2
Fore
SplineSet
336 -336 m 1
 336 486 l 1
 0 486 l 1
 0 570 l 1
 1008 570 l 1
 1008 486 l 2
 672 486 l 1
 672 -336 l 1
 588 -336 l 1
 588 486 l 1
 420 486 l 1
 420 -336 l 1
 336 -336 l 1
EndSplineSet
EndChar

StartChar: SF410000
Encoding: 9574 9574 223
Width: 1008
Flags: HW
LayerCount: 2
Fore
SplineSet
1008 612 m 1
 0 612 l 1
 0 696 l 1
 1008 696 l 1
 1008 612 l 1
336 -336 m 1
 336 360 l 1
 0 360 l 1
 0 444 l 1
 378 444 l 2
 401.18043 444 420 425.18043 420 402 c 2
 420 -336 l 1
 336 -336 l 1
1008 360 m 1
 672 360 l 1
 672 -336 l 1
 588 -336 l 1
 588 402 l 2
 588 425.18043 606.81957 444 630 444 c 2
 1008 444 l 1
 1008 360 l 1
EndSplineSet
EndChar

StartChar: SF450000
Encoding: 9575 9575 224
Width: 1008
Flags: HW
LayerCount: 2
Fore
SplineSet
1008 612 m 1
 0 612 0 612 0 612 c 1
 0 696 l 1
 462 696 l 1
 462 1344 l 1
 546 1344 l 1
 546 696 l 1
 1008 696 l 1
 1008 612 l 1
1008 360 m 1
 0 360 l 1
 0 444 l 1
 1008 444 l 1
 1008 360 l 1
EndSplineSet
EndChar

StartChar: SF460000
Encoding: 9576 9576 225
Width: 1008
Flags: HW
LayerCount: 2
Fore
SplineSet
1008 486 m 1
 0 486 l 1
 0 570 l 1
 336 570 l 1
 336 1344 l 1
 420 1344 l 1
 420 570 l 1
 588 570 l 1
 588 1344 l 1
 672 1344 l 1
 672 570 l 1
 1008 570 l 1
 1008 486 l 1
EndSplineSet
EndChar

StartChar: SF400000
Encoding: 9577 9577 226
Width: 1008
Flags: HW
LayerCount: 2
Fore
SplineSet
420 1344 m 1
 420 654 l 2
 420 630.81957 401.18043 612 378 612 c 2
 0 612 l 1
 0 696 l 1
 336 696 l 1
 336 1344 l 1
 420 1344 l 1
1008 360 m 1
 0 360 l 1
 0 444 l 1
 1008 444 l 1
 1008 360 l 1
672 1344 m 1
 672 696 l 1
 1008 696 l 1
 1008 612 l 1
 630 612 l 2
 606.81957 612 588 630.81957 588 654 c 2
 588 1344 l 1
 672 1344 l 1
EndSplineSet
EndChar

StartChar: SF540000
Encoding: 9578 9578 227
Width: 1008
Flags: HW
LayerCount: 2
Fore
SplineSet
1008 360 m 1
 546 360 l 1
 546 -336 l 1
 462 -336 l 1
 462 360 l 1
 0 360 l 1
 0 444 l 1
 462 444 l 1
 462 612 l 1
 0 612 l 1
 0 696 l 1
 462 696 l 1
 462 1344 l 1
 546 1344 l 1
 546 696 l 1
 1008 696 l 1
 1008 612 l 1
 546 612 l 1
 546 444 l 1
 1008 444 l 1
 1008 360 l 1
EndSplineSet
EndChar

StartChar: SF530000
Encoding: 9579 9579 228
Width: 1008
Flags: HW
LayerCount: 2
Fore
SplineSet
336 -336 m 1
 336 486 l 1
 0 486 l 1
 0 570 l 1
 336 570 l 1
 336 1344 l 1
 420 1344 l 1
 420 570 l 1
 588 570 l 1
 588 1344 l 1
 672 1344 l 1
 672 570 l 1
 1008 570 l 1
 1008 486 l 2
 672 486 l 1
 672 -336 l 1
 588 -336 l 1
 588 486 l 1
 420 486 l 1
 420 -336 l 1
 336 -336 l 1
EndSplineSet
EndChar

StartChar: SF440000
Encoding: 9580 9580 229
Width: 1008
Flags: HW
LayerCount: 2
Fore
SplineSet
420 1344 m 1
 420 654 l 2
 420 630.81957 401.18043 612 378 612 c 2
 0 612 l 1
 0 696 l 1
 336 696 l 1
 336 1344 l 1
 420 1344 l 1
336 -336 m 1
 336 360 l 1
 0 360 l 1
 0 444 l 1
 378 444 l 2
 401.18043 444 420 425.18043 420 402 c 2
 420 -336 l 1
 336 -336 l 1
672 1344 m 1
 672 696 l 1
 1008 696 l 1
 1008 612 l 1
 630 612 l 2
 606.81957 612 588 630.81957 588 654 c 2
 588 1344 l 1
 672 1344 l 1
1008 360 m 1
 672 360 l 1
 672 -336 l 1
 588 -336 l 1
 588 402 l 2
 588 425.18043 606.81957 444 630 444 c 2
 1008 444 l 1
 1008 360 l 1
EndSplineSet
EndChar

StartChar: uni256D
Encoding: 9581 9581 230
Width: 1008
Flags: HW
LayerCount: 2
Fore
SplineSet
705.6 486 m 2
 638.88835178 486 546 393.384557384 546 326.4 c 2
 546 -336 l 1
 462 -336 l 1
 462 326.4 l 2
 462 440.322022949 592.038095202 570 705.6 570 c 2
 1008 570 l 1
 1008 486 l 2
 705.6 486 l 2
EndSplineSet
EndChar

StartChar: uni256E
Encoding: 9582 9582 231
Width: 1008
Flags: HW
LayerCount: 2
Fore
SplineSet
302.4 570 m 2
 416.322022949 570 546 439.961904798 546 326.4 c 2
 546 -336 l 1
 462 -336 l 1
 462 326.4 l 2
 462 393.11164822 369.384557384 486 302.4 486 c 2
 0 486 l 2
 0 570 l 1
 302.4 570 l 2
EndSplineSet
EndChar

StartChar: uni256F
Encoding: 9583 9583 232
Width: 1008
Flags: HW
LayerCount: 2
Fore
SplineSet
302.4 570 m 2
 369.11164822 570 462 662.615442616 462 729.6 c 2
 462 1344 l 1
 546 1344 l 1
 546 729.6 l 2
 546 616.032824172 416.316756925 486 302.4 486 c 2
 0 486 l 2
 0 570 l 1
 302.4 570 l 2
EndSplineSet
EndChar

StartChar: uni2570
Encoding: 9584 9584 233
Width: 1008
Flags: HW
LayerCount: 2
Fore
SplineSet
705.6 486 m 2
 592.032824172 486 462 615.683243075 462 729.6 c 2
 462 1344 l 1
 546 1344 l 1
 546 729.6 l 2
 546 662.88835178 638.615442616 570 705.6 570 c 2
 1008 570 l 1
 1008 486 l 2
 705.6 486 l 2
EndSplineSet
EndChar

StartChar: uni2571
Encoding: 9585 9585 234
Width: 1008
Flags: HW
LayerCount: 2
Fore
SplineSet
959.020297406 -336 m 1
 0 1262.36716234 l 1
 0 1344 l 1
 48.9797025936 1344 l 1
 1008 -254.367162344 l 1
 1008 -336 l 1
 959.020297406 -336 l 1
EndSplineSet
EndChar

StartChar: uni2572
Encoding: 9586 9586 235
Width: 1008
Flags: HW
LayerCount: 2
Fore
SplineSet
959.020297463 1344 m 1
 1008 1344 l 1
 1008 1262.36716234 l 1
 48.9797025936 -336 l 1
 0 -336 l 1
 0 -254.367162347 l 1
 959.020297463 1344 l 1
EndSplineSet
EndChar

StartChar: uni2573
Encoding: 9587 9587 236
Width: 1008
Flags: HW
LayerCount: 2
Fore
SplineSet
0 1262.36716234 m 1
 0 1344 l 1
 48.9797025936 1344 l 1
 504 585.632837656 l 1
 959.020297462 1344 l 1
 1008 1344 l 1
 1008 1262.36716234 l 1
 552.979702594 504 l 1
 1008 -254.367162344 l 1
 1008 -336 l 1
 959.020297406 -336 l 1
 504 422.367162344 l 1
 48.9797025936 -336 l 1
 0 -336 l 1
 -3.5527136788e-15 -254.367162344 l 1
 455.020297406 504 l 1
 0 1262.36716234 l 1
EndSplineSet
EndChar

StartChar: uni2574
Encoding: 9588 9588 237
Width: 1008
Flags: HW
LayerCount: 2
Fore
SplineSet
0 486 m 1
 0 570 l 1
 504 570 l 1
 504 486 l 1
 0 486 l 1
EndSplineSet
EndChar

StartChar: uni2575
Encoding: 9589 9589 238
Width: 1008
Flags: HW
LayerCount: 2
Fore
SplineSet
462 528 m 1
 462 1344 l 1
 546 1344 l 1
 546 528 l 1
 462 528 l 1
EndSplineSet
EndChar

StartChar: uni2576
Encoding: 9590 9590 239
Width: 1008
Flags: HW
LayerCount: 2
Fore
SplineSet
504 486 m 1
 504 570 l 1
 1008 570 l 1
 1008 486 l 1
 504 486 l 1
EndSplineSet
EndChar

StartChar: uni2577
Encoding: 9591 9591 240
Width: 1008
Flags: HW
LayerCount: 2
Fore
SplineSet
462 -336 m 1
 462 528 l 1
 546 528 l 1
 546 -336 l 1
 462 -336 l 1
EndSplineSet
EndChar

StartChar: uni2578
Encoding: 9592 9592 241
Width: 1008
Flags: HW
LayerCount: 2
Fore
SplineSet
0 402 m 1
 0 654 l 1
 504 654 l 1
 504 402 l 1
 0 402 l 1
EndSplineSet
EndChar

StartChar: uni2579
Encoding: 9593 9593 242
Width: 1008
Flags: HW
LayerCount: 2
Fore
SplineSet
378 528 m 1
 378 1344 l 1
 630 1344 l 1
 630 528 l 1
 378 528 l 1
EndSplineSet
EndChar

StartChar: uni257A
Encoding: 9594 9594 243
Width: 1008
Flags: HW
LayerCount: 2
Fore
SplineSet
504 402 m 1
 504 654 l 1
 1008 654 l 1
 1008 402 l 1
 504 402 l 1
EndSplineSet
EndChar

StartChar: uni257B
Encoding: 9595 9595 244
Width: 1008
Flags: HW
LayerCount: 2
Fore
SplineSet
378 -336 m 1
 378 528 l 1
 630 528 l 1
 630 -336 l 1
 378 -336 l 1
EndSplineSet
EndChar

StartChar: uni257C
Encoding: 9596 9596 245
Width: 1008
Flags: HW
LayerCount: 2
Fore
SplineSet
0 486 m 1
 0 570 l 1
 504 570 l 1
 504 654 l 1
 1008 654 l 1
 1008 402 l 1
 504 402 l 1
 504 486 l 1
 0 486 l 1
EndSplineSet
EndChar

StartChar: uni257D
Encoding: 9597 9597 246
Width: 1008
Flags: HW
LayerCount: 2
Fore
SplineSet
378 -336 m 1
 378 528 l 1
 462 528 l 1
 462 1344 l 1
 546 1344 l 1
 546 528 l 1
 630 528 l 1
 630 -336 l 1
 378 -336 l 1
EndSplineSet
EndChar

StartChar: uni257E
Encoding: 9598 9598 247
Width: 1008
Flags: HW
LayerCount: 2
Fore
SplineSet
0 402 m 1
 0 654 l 1
 504 654 l 1
 504 570 l 1
 1008 570 l 1
 1008 486 l 1
 504 486 l 1
 504 402 l 1
 0 402 l 1
EndSplineSet
EndChar

StartChar: uni257F
Encoding: 9599 9599 248
Width: 1008
Flags: HW
LayerCount: 2
Fore
SplineSet
378 528 m 1
 378 1344 l 1
 630 1344 l 1
 630 528 l 1
 546 528 l 1
 546 -336 l 1
 462 -336 l 1
 462 528 l 1
 378 528 l 1
EndSplineSet
EndChar

StartChar: upblock
Encoding: 9600 9600 249
Width: 1008
Flags: HW
LayerCount: 2
Fore
SplineSet
0 1344 m 1
 0 504 l 1
 1008 504 l 1
 1008 1344 l 1
 0 1344 l 1
EndSplineSet
EndChar

StartChar: uni2581
Encoding: 9601 9601 250
Width: 1008
Flags: HW
LayerCount: 2
Fore
SplineSet
0 -336 m 1
 0 -126 l 1
 1008 -126 l 1
 1008 -336 l 1
 0 -336 l 1
EndSplineSet
EndChar

StartChar: uni2582
Encoding: 9602 9602 251
Width: 1008
Flags: HW
LayerCount: 2
Fore
SplineSet
0 -336 m 1
 0 84 l 1
 1008 84 l 1
 1008 -336 l 1
 0 -336 l 1
EndSplineSet
EndChar

StartChar: uni2583
Encoding: 9603 9603 252
Width: 1008
Flags: HW
LayerCount: 2
Fore
SplineSet
0 -336 m 1
 0 294 l 1
 1008 294 l 1
 1008 -336 l 1
 0 -336 l 1
EndSplineSet
EndChar

StartChar: dnblock
Encoding: 9604 9604 253
Width: 1008
Flags: HW
LayerCount: 2
Fore
SplineSet
0 -336 m 1
 0 504 l 1
 1008 504 l 1
 1008 -336 l 1
 0 -336 l 1
EndSplineSet
EndChar

StartChar: uni2585
Encoding: 9605 9605 254
Width: 1008
Flags: HW
LayerCount: 2
Fore
SplineSet
0 -336 m 1
 0 714 l 1
 1008 714 l 1
 1008 -336 l 1
 0 -336 l 1
EndSplineSet
EndChar

StartChar: uni2586
Encoding: 9606 9606 255
Width: 1008
Flags: HW
LayerCount: 2
Fore
SplineSet
0 -336 m 1
 0 924 l 1
 1008 924 l 1
 1008 -336 l 1
 0 -336 l 1
EndSplineSet
EndChar

StartChar: uni2587
Encoding: 9607 9607 256
Width: 1008
Flags: HW
LayerCount: 2
Fore
SplineSet
0 -336 m 1
 0 1134 l 1
 1008 1134 l 1
 1008 -336 l 1
 0 -336 l 1
EndSplineSet
EndChar

StartChar: block
Encoding: 9608 9608 257
Width: 1008
Flags: HW
LayerCount: 2
Fore
SplineSet
0 -336 m 1
 0 1344 l 1
 1008 1344 l 1
 1008 -336 l 1
 0 -336 l 1
EndSplineSet
EndChar

StartChar: uni2589
Encoding: 9609 9609 258
Width: 1008
Flags: HW
LayerCount: 2
Fore
SplineSet
0 -336 m 1
 0 1344 l 1
 882 1344 l 1
 882 -336 l 1
 0 -336 l 1
EndSplineSet
EndChar

StartChar: uni258A
Encoding: 9610 9610 259
Width: 1008
Flags: HW
LayerCount: 2
Fore
SplineSet
0 -336 m 1
 0 1344 l 1
 756 1344 l 1
 756 -336 l 1
 0 -336 l 1
EndSplineSet
EndChar

StartChar: uni258B
Encoding: 9611 9611 260
Width: 1008
Flags: HW
LayerCount: 2
Fore
SplineSet
0 -336 m 1
 0 1344 l 1
 630 1344 l 1
 630 -336 l 1
 0 -336 l 1
EndSplineSet
EndChar

StartChar: lfblock
Encoding: 9612 9612 261
Width: 1008
Flags: HW
LayerCount: 2
Fore
SplineSet
0 -336 m 1
 0 1344 l 1
 504 1344 l 1
 504 -336 l 1
 0 -336 l 1
EndSplineSet
EndChar

StartChar: uni258D
Encoding: 9613 9613 262
Width: 1008
Flags: HW
LayerCount: 2
Fore
SplineSet
0 -336 m 1
 0 1344 l 1
 378 1344 l 1
 378 -336 l 1
 0 -336 l 1
EndSplineSet
EndChar

StartChar: uni258E
Encoding: 9614 9614 263
Width: 1008
Flags: HW
LayerCount: 2
Fore
SplineSet
0 -336 m 1
 0 1344 l 1
 252 1344 l 1
 252 -336 l 1
 0 -336 l 1
EndSplineSet
EndChar

StartChar: uni258F
Encoding: 9615 9615 264
Width: 1008
Flags: HW
LayerCount: 2
Fore
SplineSet
0 -336 m 1
 0 1344 l 1
 126 1344 l 1
 126 -336 l 1
 0 -336 l 1
EndSplineSet
EndChar

StartChar: rtblock
Encoding: 9616 9616 265
Width: 1008
Flags: HW
LayerCount: 2
Fore
SplineSet
0 -336 m 1
 0 1344 l 1
 504 1344 l 1
 504 -336 l 1
 0 -336 l 1
EndSplineSet
EndChar

StartChar: ltshade
Encoding: 9617 9617 266
Width: 1008
Flags: HW
LayerCount: 2
Fore
SplineSet
42 -336 m 1
 42 -252 l 1
 126 -252 l 1
 126 -336 l 1
 42 -336 l 1
378 -336 m 1
 378 -252 l 1
 462 -252 l 1
 462 -336 l 1
 378 -336 l 1
714 -336 m 1
 714 -252 l 1
 798 -252 l 1
 798 -336 l 1
 714 -336 l 1
210 -252 m 1
 210 -168 l 1
 294 -168 l 1
 294 -252 l 1
 210 -252 l 1
546 -252 m 1
 546 -168 l 1
 630 -168 l 1
 630 -252 l 1
 546 -252 l 1
882 -252 m 1
 882 -168 l 1
 966 -168 l 1
 966 -252 l 1
 882 -252 l 1
42 -168 m 1
 42 -84 l 1
 126 -84 l 1
 126 -168 l 1
 42 -168 l 1
378 -168 m 1
 378 -84 l 1
 462 -84 l 1
 462 -168 l 1
 378 -168 l 1
714 -168 m 1
 714 -84 l 1
 798 -84 l 1
 798 -168 l 1
 714 -168 l 1
210 -84 m 1
 210 0 l 1
 294 0 l 1
 294 -84 l 1
 210 -84 l 1
546 -84 m 1
 546 0 l 1
 630 0 l 1
 630 -84 l 1
 546 -84 l 1
882 -84 m 1
 882 0 l 1
 966 0 l 1
 966 -84 l 1
 882 -84 l 1
42 0 m 1
 42 84 l 1
 126 84 l 1
 126 0 l 1
 42 0 l 1
378 0 m 1
 378 84 l 1
 462 84 l 1
 462 0 l 1
 378 0 l 1
714 0 m 1
 714 84 l 1
 798 84 l 1
 798 0 l 1
 714 0 l 1
210 84 m 1
 210 168 l 1
 294 168 l 1
 294 84 l 1
 210 84 l 1
546 84 m 1
 546 168 l 1
 630 168 l 1
 630 84 l 1
 546 84 l 1
882 84 m 1
 882 168 l 1
 966 168 l 1
 966 84 l 1
 882 84 l 1
42 168 m 1
 42 252 l 1
 126 252 l 1
 126 168 l 1
 42 168 l 1
378 168 m 1
 378 252 l 1
 462 252 l 1
 462 168 l 1
 378 168 l 1
714 168 m 1
 714 252 l 1
 798 252 l 1
 798 168 l 1
 714 168 l 1
210 252 m 1
 210 336 l 1
 294 336 l 1
 294 252 l 1
 210 252 l 1
546 252 m 1
 546 336 l 1
 630 336 l 1
 630 252 l 1
 546 252 l 1
882 252 m 1
 882 336 l 1
 966 336 l 1
 966 252 l 1
 882 252 l 1
42 336 m 1
 42 420 l 1
 126 420 l 1
 126 336 l 1
 42 336 l 1
378 336 m 1
 378 420 l 1
 462 420 l 1
 462 336 l 1
 378 336 l 1
714 336 m 1
 714 420 l 1
 798 420 l 1
 798 336 l 1
 714 336 l 1
210 420 m 1
 210 504 l 1
 294 504 l 1
 294 420 l 1
 210 420 l 1
546 420 m 1
 546 504 l 1
 630 504 l 1
 630 420 l 1
 546 420 l 1
882 420 m 1
 882 504 l 1
 966 504 l 1
 966 420 l 1
 882 420 l 1
42 504 m 1
 42 588 l 1
 126 588 l 1
 126 504 l 1
 42 504 l 1
378 504 m 1
 378 588 l 1
 462 588 l 1
 462 504 l 1
 378 504 l 1
714 504 m 1
 714 588 l 1
 798 588 l 1
 798 504 l 1
 714 504 l 1
210 588 m 1
 210 672 l 1
 294 672 l 1
 294 588 l 1
 210 588 l 1
546 588 m 1
 546 672 l 1
 630 672 l 1
 630 588 l 1
 546 588 l 1
882 588 m 1
 882 672 l 1
 966 672 l 1
 966 588 l 1
 882 588 l 1
42 672 m 1
 42 756 l 1
 126 756 l 1
 126 672 l 1
 42 672 l 1
378 672 m 1
 378 756 l 1
 462 756 l 1
 462 672 l 1
 378 672 l 1
714 672 m 1
 714 756 l 1
 798 756 l 1
 798 672 l 1
 714 672 l 1
210 756 m 1
 210 840 l 1
 294 840 l 1
 294 756 l 1
 210 756 l 1
546 756 m 1
 546 840 l 1
 630 840 l 1
 630 756 l 1
 546 756 l 1
882 756 m 1
 882 840 l 1
 966 840 l 1
 966 756 l 1
 882 756 l 1
42 840 m 1
 42 924 l 1
 126 924 l 1
 126 840 l 1
 42 840 l 1
378 840 m 1
 378 924 l 1
 462 924 l 1
 462 840 l 1
 378 840 l 1
714 840 m 1
 714 924 l 1
 798 924 l 1
 798 840 l 1
 714 840 l 1
210 924 m 1
 210 1008 l 1
 294 1008 l 1
 294 924 l 1
 210 924 l 1
546 924 m 1
 546 1008 l 1
 630 1008 l 1
 630 924 l 1
 546 924 l 1
882 924 m 1
 882 1008 l 1
 966 1008 l 1
 966 924 l 1
 882 924 l 1
42 1008 m 1
 42 1092 l 1
 126 1092 l 1
 126 1008 l 1
 42 1008 l 1
378 1008 m 1
 378 1092 l 1
 462 1092 l 1
 462 1008 l 1
 378 1008 l 1
714 1008 m 1
 714 1092 l 1
 798 1092 l 1
 798 1008 l 1
 714 1008 l 1
210 1092 m 1
 210 1176 l 1
 294 1176 l 1
 294 1092 l 1
 210 1092 l 1
546 1092 m 1
 546 1176 l 1
 630 1176 l 1
 630 1092 l 1
 546 1092 l 1
882 1092 m 1
 882 1176 l 1
 966 1176 l 1
 966 1092 l 1
 882 1092 l 1
42 1176 m 1
 42 1260 l 1
 126 1260 l 1
 126 1176 l 1
 42 1176 l 1
378 1176 m 1
 378 1260 l 1
 462 1260 l 1
 462 1176 l 1
 378 1176 l 1
714 1176 m 1
 714 1260 l 1
 798 1260 l 1
 798 1176 l 1
 714 1176 l 1
210 1260 m 1
 210 1344 l 1
 294 1344 l 1
 294 1260 l 1
 210 1260 l 1
546 1260 m 1
 546 1344 l 1
 630 1344 l 1
 630 1260 l 1
 546 1260 l 1
882 1260 m 1
 882 1344 l 1
 966 1344 l 1
 966 1260 l 1
 882 1260 l 1
EndSplineSet
EndChar

StartChar: shade
Encoding: 9618 9618 267
Width: 1008
Flags: HW
LayerCount: 2
Fore
SplineSet
0 -336 m 1
 0 -252 l 1
 84 -252 l 1
 84 -336 l 1
 0 -336 l 1
0 -168 m 1
 0 -84 l 1
 84 -84 l 1
 84 -168 l 1
 168 -168 l 1
 168 -252 l 1
 252 -252 l 1
 252 -336 l 1
 168 -336 l 1
 168 -252 l 1
 84 -252 l 1
 84 -168 l 1
 0 -168 l 1
0 0 m 1
 0 84 l 1
 84 84 l 1
 84 0 l 1
 168 0 l 1
 168 -84 l 1
 252 -84 l 1
 252 -168 l 1
 336 -168 l 1
 336 -252 l 1
 420 -252 l 1
 420 -336 l 1
 336 -336 l 1
 336 -252 l 1
 252 -252 l 1
 252 -168 l 1
 168 -168 l 1
 168 -84 l 1
 84 -84 l 1
 84 0 l 1
 0 0 l 1
0 168 m 1
 0 252 l 1
 84 252 l 1
 84 168 l 1
 168 168 l 1
 168 84 l 1
 252 84 l 1
 252 0 l 1
 336 0 l 1
 336 -84 l 1
 420 -84 l 1
 420 -168 l 1
 504 -168 l 1
 504 -252 l 1
 588 -252 l 1
 588 -336 l 1
 504 -336 l 1
 504 -252 l 1
 420 -252 l 1
 420 -168 l 1
 336 -168 l 1
 336 -84 l 1
 252 -84 l 1
 252 0 l 1
 168 0 l 1
 168 84 l 1
 84 84 l 1
 84 168 l 1
 0 168 l 1
0 336 m 1
 0 420 l 1
 84 420 l 1
 84 336 l 1
 168 336 l 1
 168 252 l 1
 252 252 l 1
 252 168 l 1
 336 168 l 1
 336 84 l 1
 420 84 l 1
 420 0 l 1
 504 0 l 1
 504 -84 l 1
 588 -84 l 1
 588 -168 l 1
 672 -168 l 1
 672 -252 l 1
 756 -252 l 1
 756 -336 l 1
 672 -336 l 1
 672 -252 l 1
 588 -252 l 1
 588 -168 l 1
 504 -168 l 1
 504 -84 l 1
 420 -84 l 1
 420 0 l 1
 336 0 l 1
 336 84 l 1
 252 84 l 1
 252 168 l 1
 168 168 l 1
 168 252 l 1
 84 252 l 1
 84 336 l 1
 0 336 l 1
0 504 m 1
 0 588 l 1
 84 588 l 1
 84 504 l 1
 168 504 l 1
 168 420 l 1
 252 420 l 1
 252 336 l 1
 336 336 l 1
 336 252 l 1
 420 252 l 1
 420 168 l 1
 504 168 l 1
 504 84 l 1
 588 84 l 1
 588 0 l 1
 672 0 l 1
 672 -84 l 1
 756 -84 l 1
 756 -168 l 1
 840 -168 l 1
 840 -252 l 1
 924 -252 l 1
 924 -336 l 1
 840 -336 l 1
 840 -252 l 1
 756 -252 l 1
 756 -168 l 1
 672 -168 l 1
 672 -84 l 1
 588 -84 l 1
 588 0 l 1
 504 0 l 1
 504 84 l 1
 420 84 l 1
 420 168 l 1
 336 168 l 1
 336 252 l 1
 252 252 l 1
 252 336 l 1
 168 336 l 1
 168 420 l 1
 84 420 l 1
 84 504 l 1
 0 504 l 1
0 672 m 1
 0 756 l 1
 84 756 l 1
 84 672 l 1
 168 672 l 1
 168 588 l 1
 252 588 l 1
 252 504 l 1
 336 504 l 1
 336 420 l 1
 420 420 l 1
 420 336 l 1
 504 336 l 1
 504 252 l 1
 588 252 l 1
 588 168 l 1
 672 168 l 1
 672 84 l 1
 756 84 l 1
 756 0 l 1
 840 0 l 1
 840 -84 l 1
 924 -84 l 1
 924 -168 l 1
 1008 -168 l 1
 1008 -252 l 1
 924 -252 l 1
 924 -168 l 1
 840 -168 l 1
 840 -84 l 1
 756 -84 l 1
 756 0 l 1
 672 0 l 1
 672 84 l 1
 588 84 l 1
 588 168 l 1
 504 168 l 1
 504 252 l 1
 420 252 l 1
 420 336 l 1
 336 336 l 1
 336 420 l 1
 252 420 l 1
 252 504 l 1
 168 504 l 1
 168 588 l 1
 84 588 l 1
 84 672 l 1
 0 672 l 1
0 840 m 1
 0 924 l 1
 84 924 l 1
 84 840 l 1
 168 840 l 1
 168 756 l 1
 252 756 l 1
 252 672 l 1
 336 672 l 1
 336 588 l 1
 420 588 l 1
 420 504 l 1
 504 504 l 1
 504 420 l 1
 588 420 l 1
 588 336 l 1
 672 336 l 1
 672 252 l 1
 756 252 l 1
 756 168 l 1
 840 168 l 1
 840 84 l 1
 924 84 l 1
 924 0 l 1
 1008 0 l 1
 1008 -84 l 1
 924 -84 l 1
 924 0 l 1
 840 0 l 1
 840 84 l 1
 756 84 l 1
 756 168 l 1
 672 168 l 1
 672 252 l 1
 588 252 l 1
 588 336 l 1
 504 336 l 1
 504 420 l 1
 420 420 l 1
 420 504 l 1
 336 504 l 1
 336 588 l 1
 252 588 l 1
 252 672 l 1
 168 672 l 1
 168 756 l 1
 84 756 l 1
 84 840 l 1
 0 840 l 1
0 1008 m 1
 0 1092 l 1
 84 1092 l 1
 84 1008 l 1
 168 1008 l 1
 168 924 l 1
 252 924 l 1
 252 840 l 1
 336 840 l 1
 336 756 l 1
 420 756 l 1
 420 672 l 1
 504 672 l 1
 504 588 l 1
 588 588 l 1
 588 504 l 1
 672 504 l 1
 672 420 l 1
 756 420 l 1
 756 336 l 1
 840 336 l 1
 840 252 l 1
 924 252 l 1
 924 168 l 1
 1008 168 l 1
 1008 84 l 1
 924 84 l 1
 924 168 l 1
 840 168 l 1
 840 252 l 1
 756 252 l 1
 756 336 l 1
 672 336 l 1
 672 420 l 1
 588 420 l 1
 588 504 l 1
 504 504 l 1
 504 588 l 1
 420 588 l 1
 420 672 l 1
 336 672 l 1
 336 756 l 1
 252 756 l 1
 252 840 l 1
 168 840 l 1
 168 924 l 1
 84 924 l 1
 84 1008 l 1
 0 1008 l 1
0 1176 m 1
 0 1260 l 1
 84 1260 l 1
 84 1176 l 1
 168 1176 l 1
 168 1092 l 1
 252 1092 l 1
 252 1008 l 1
 336 1008 l 1
 336 924 l 1
 420 924 l 1
 420 840 l 1
 504 840 l 1
 504 756 l 1
 588 756 l 1
 588 672 l 1
 672 672 l 1
 672 588 l 1
 756 588 l 1
 756 504 l 1
 840 504 l 1
 840 420 l 1
 924 420 l 1
 924 336 l 1
 1008 336 l 1
 1008 252 l 1
 924 252 l 1
 924 336 l 1
 840 336 l 1
 840 420 l 1
 756 420 l 1
 756 504 l 1
 672 504 l 1
 672 588 l 1
 588 588 l 1
 588 672 l 1
 504 672 l 1
 504 756 l 1
 420 756 l 1
 420 840 l 1
 336 840 l 1
 336 924 l 1
 252 924 l 1
 252 1008 l 1
 168 1008 l 1
 168 1092 l 1
 84 1092 l 1
 84 1176 l 1
 0 1176 l 1
924 420 m 1
 924 504 l 1
 1008 504 l 1
 1008 420 l 1
 924 420 l 1
924 504 m 1
 840 504 l 1
 840 588 l 1
 924 588 l 1
 924 504 l 1
840 588 m 1
 756 588 l 1
 756 672 l 1
 840 672 l 1
 840 588 l 1
924 588 m 1
 924 672 l 1
 1008 672 l 1
 1008 588 l 1
 924 588 l 1
756 672 m 1
 672 672 l 1
 672 756 l 1
 756 756 l 1
 756 672 l 1
924 672 m 1
 840 672 l 1
 840 756 l 1
 924 756 l 1
 924 672 l 1
672 756 m 1
 588 756 l 1
 588 840 l 1
 672 840 l 1
 672 756 l 1
840 756 m 1
 756 756 l 1
 756 840 l 1
 840 840 l 1
 840 756 l 1
924 756 m 1
 924 840 l 1
 1008 840 l 1
 1008 756 l 1
 924 756 l 1
588 840 m 1
 504 840 l 1
 504 924 l 1
 588 924 l 1
 588 840 l 1
756 840 m 1
 672 840 l 1
 672 924 l 1
 756 924 l 1
 756 840 l 1
924 840 m 1
 840 840 l 1
 840 924 l 1
 924 924 l 1
 924 840 l 1
504 924 m 1
 420 924 l 1
 420 1008 l 1
 504 1008 l 1
 504 924 l 1
672 924 m 1
 588 924 l 1
 588 1008 l 1
 672 1008 l 1
 672 924 l 1
840 924 m 1
 756 924 l 1
 756 1008 l 1
 840 1008 l 1
 840 924 l 1
924 924 m 1
 924 1008 l 1
 1008 1008 l 1
 1008 924 l 1
 924 924 l 1
420 1008 m 1
 336 1008 l 1
 336 1092 l 1
 420 1092 l 1
 420 1008 l 1
588 1008 m 1
 504 1008 l 1
 504 1092 l 1
 588 1092 l 1
 588 1008 l 1
756 1008 m 1
 672 1008 l 1
 672 1092 l 1
 756 1092 l 1
 756 1008 l 1
924 1008 m 1
 840 1008 l 1
 840 1092 l 1
 924 1092 l 1
 924 1008 l 1
336 1092 m 1
 252 1092 l 1
 252 1176 l 1
 336 1176 l 1
 336 1092 l 1
504 1092 m 1
 420 1092 l 1
 420 1176 l 1
 504 1176 l 1
 504 1092 l 1
672 1092 m 1
 588 1092 l 1
 588 1176 l 1
 672 1176 l 1
 672 1092 l 1
840 1092 m 1
 756 1092 l 1
 756 1176 l 1
 840 1176 l 1
 840 1092 l 1
924 1092 m 1
 924 1176 l 1
 1008 1176 l 1
 1008 1092 l 1
 924 1092 l 1
252 1176 m 1
 168 1176 l 1
 168 1260 l 1
 252 1260 l 1
 252 1176 l 1
420 1176 m 1
 336 1176 l 1
 336 1260 l 1
 420 1260 l 1
 420 1176 l 1
588 1176 m 1
 504 1176 l 1
 504 1260 l 1
 588 1260 l 1
 588 1176 l 1
756 1176 m 1
 672 1176 l 1
 672 1260 l 1
 756 1260 l 1
 756 1176 l 1
924 1176 m 1
 840 1176 l 1
 840 1260 l 1
 924 1260 l 1
 924 1176 l 1
168 1260 m 1
 84 1260 l 1
 84 1344 l 1
 168 1344 l 1
 168 1260 l 1
336 1260 m 1
 252 1260 l 1
 252 1344 l 1
 336 1344 l 1
 336 1260 l 1
504 1260 m 1
 420 1260 l 1
 420 1344 l 1
 504 1344 l 1
 504 1260 l 1
672 1260 m 1
 588 1260 l 1
 588 1344 l 1
 672 1344 l 1
 672 1260 l 1
840 1260 m 1
 756 1260 l 1
 756 1344 l 1
 840 1344 l 1
 840 1260 l 1
924 1260 m 1
 924 1344 l 1
 1008 1344 l 1
 1008 1260 l 1
 924 1260 l 1
EndSplineSet
EndChar

StartChar: dkshade
Encoding: 9619 9619 268
Width: 1008
Flags: HW
LayerCount: 2
Fore
SplineSet
210 -252 m 1
 210 -168 l 1
 294 -168 l 1
 294 -252 l 1
 210 -252 l 1
546 -252 m 1
 546 -168 l 1
 630 -168 l 1
 630 -252 l 1
 546 -252 l 1
882 -252 m 1
 882 -168 l 1
 966 -168 l 1
 966 -252 l 1
 882 -252 l 1
42 -168 m 1
 42 -84 l 1
 126 -84 l 1
 126 -168 l 1
 42 -168 l 1
378 -168 m 1
 378 -84 l 1
 462 -84 l 1
 462 -168 l 1
 378 -168 l 1
714 -168 m 1
 714 -84 l 1
 798 -84 l 1
 798 -168 l 1
 714 -168 l 1
210 -84 m 1
 210 0 l 1
 294 0 l 1
 294 -84 l 1
 210 -84 l 1
546 -84 m 1
 546 0 l 1
 630 0 l 1
 630 -84 l 1
 546 -84 l 1
882 -84 m 1
 882 0 l 1
 966 0 l 1
 966 -84 l 1
 882 -84 l 1
42 0 m 1
 42 84 l 1
 126 84 l 1
 126 0 l 1
 42 0 l 1
378 0 m 1
 378 84 l 1
 462 84 l 1
 462 0 l 1
 378 0 l 1
714 0 m 1
 714 84 l 1
 798 84 l 1
 798 0 l 1
 714 0 l 1
210 84 m 1
 210 168 l 1
 294 168 l 1
 294 84 l 1
 210 84 l 1
546 84 m 1
 546 168 l 1
 630 168 l 1
 630 84 l 1
 546 84 l 1
882 84 m 1
 882 168 l 1
 966 168 l 1
 966 84 l 1
 882 84 l 1
42 168 m 1
 42 252 l 1
 126 252 l 1
 126 168 l 1
 42 168 l 1
378 168 m 1
 378 252 l 1
 462 252 l 1
 462 168 l 1
 378 168 l 1
714 168 m 1
 714 252 l 1
 798 252 l 1
 798 168 l 1
 714 168 l 1
210 252 m 1
 210 336 l 1
 294 336 l 1
 294 252 l 1
 210 252 l 1
546 252 m 1
 546 336 l 1
 630 336 l 1
 630 252 l 1
 546 252 l 1
882 252 m 1
 882 336 l 1
 966 336 l 1
 966 252 l 1
 882 252 l 1
42 336 m 1
 42 420 l 1
 126 420 l 1
 126 336 l 1
 42 336 l 1
378 336 m 1
 378 420 l 1
 462 420 l 1
 462 336 l 1
 378 336 l 1
714 336 m 1
 714 420 l 1
 798 420 l 1
 798 336 l 1
 714 336 l 1
210 420 m 1
 210 504 l 1
 294 504 l 1
 294 420 l 1
 210 420 l 1
546 420 m 1
 546 504 l 1
 630 504 l 1
 630 420 l 1
 546 420 l 1
882 420 m 1
 882 504 l 1
 966 504 l 1
 966 420 l 1
 882 420 l 1
42 504 m 1
 42 588 l 1
 126 588 l 1
 126 504 l 1
 42 504 l 1
378 504 m 1
 378 588 l 1
 462 588 l 1
 462 504 l 1
 378 504 l 1
714 504 m 1
 714 588 l 1
 798 588 l 1
 798 504 l 1
 714 504 l 1
210 588 m 1
 210 672 l 1
 294 672 l 1
 294 588 l 1
 210 588 l 1
546 588 m 1
 546 672 l 1
 630 672 l 1
 630 588 l 1
 546 588 l 1
882 588 m 1
 882 672 l 1
 966 672 l 1
 966 588 l 1
 882 588 l 1
42 672 m 1
 42 756 l 1
 126 756 l 1
 126 672 l 1
 42 672 l 1
378 672 m 1
 378 756 l 1
 462 756 l 1
 462 672 l 1
 378 672 l 1
714 672 m 1
 714 756 l 1
 798 756 l 1
 798 672 l 1
 714 672 l 1
210 756 m 1
 210 840 l 1
 294 840 l 1
 294 756 l 1
 210 756 l 1
546 756 m 1
 546 840 l 1
 630 840 l 1
 630 756 l 1
 546 756 l 1
882 756 m 1
 882 840 l 1
 966 840 l 1
 966 756 l 1
 882 756 l 1
42 840 m 1
 42 924 l 1
 126 924 l 1
 126 840 l 1
 42 840 l 1
378 840 m 1
 378 924 l 1
 462 924 l 1
 462 840 l 1
 378 840 l 1
714 840 m 1
 714 924 l 1
 798 924 l 1
 798 840 l 1
 714 840 l 1
210 924 m 1
 210 1008 l 1
 294 1008 l 1
 294 924 l 1
 210 924 l 1
546 924 m 1
 546 1008 l 1
 630 1008 l 1
 630 924 l 1
 546 924 l 1
882 924 m 1
 882 1008 l 1
 966 1008 l 1
 966 924 l 1
 882 924 l 1
42 1008 m 1
 42 1092 l 1
 126 1092 l 1
 126 1008 l 1
 42 1008 l 1
378 1008 m 1
 378 1092 l 1
 462 1092 l 1
 462 1008 l 1
 378 1008 l 1
714 1008 m 1
 714 1092 l 1
 798 1092 l 1
 798 1008 l 1
 714 1008 l 1
210 1092 m 1
 210 1176 l 1
 294 1176 l 1
 294 1092 l 1
 210 1092 l 1
546 1092 m 1
 546 1176 l 1
 630 1176 l 1
 630 1092 l 1
 546 1092 l 1
882 1092 m 1
 882 1176 l 1
 966 1176 l 1
 966 1092 l 1
 882 1092 l 1
42 1176 m 1
 42 1260 l 1
 126 1260 l 1
 126 1176 l 1
 42 1176 l 1
378 1176 m 1
 378 1260 l 1
 462 1260 l 1
 462 1176 l 1
 378 1176 l 1
714 1176 m 1
 714 1260 l 1
 798 1260 l 1
 798 1176 l 1
 714 1176 l 1
1008 -336 m 1
 1008 1344 l 1
 966 1344 l 1
 966 1260 l 1
 882 1260 l 1
 882 1344 l 1
 630 1344 l 1
 630 1260 l 1
 546 1260 l 1
 546 1344 l 1
 294 1344 l 1
 294 1260 l 1
 210 1260 l 1
 210 1344 l 1
 0 1344 l 1
 0 -336 l 1
 42 -336 l 1
 42 -252 l 1
 126 -252 l 1
 126 -336 l 1
 378 -336 l 1
 378 -252 l 1
 462 -252 l 1
 462 -336 l 1
 714 -336 l 1
 714 -252 l 1
 798 -252 l 1
 798 -336 l 1
 1008 -336 l 1
EndSplineSet
EndChar

StartChar: uni2594
Encoding: 9620 9620 269
Width: 1008
Flags: HW
LayerCount: 2
Fore
SplineSet
0 1344 m 1
 0 1134 l 1
 1008 1134 l 1
 1008 1344 l 1
 0 1344 l 1
EndSplineSet
EndChar

StartChar: uni2595
Encoding: 9621 9621 270
Width: 1008
Flags: HW
LayerCount: 2
Fore
SplineSet
882 1344 m 1
 882 -336 l 1
 1008 -336 l 1
 1008 1344 l 1
 882 1344 l 1
EndSplineSet
EndChar

StartChar: uni2596
Encoding: 9622 9622 271
Width: 1008
Flags: HW
LayerCount: 2
Fore
SplineSet
0 -336 m 1
 0 504 l 1
 504 504 l 1
 504 -336 l 1
 0 -336 l 1
EndSplineSet
EndChar

StartChar: uni2597
Encoding: 9623 9623 272
Width: 1008
Flags: HW
LayerCount: 2
Fore
SplineSet
504 -336 m 1
 504 504 l 1
 1008 504 l 1
 1008 -336 l 1
 504 -336 l 1
EndSplineSet
EndChar

StartChar: uni2598
Encoding: 9624 9624 273
Width: 1008
Flags: HW
LayerCount: 2
Fore
SplineSet
0 1344 m 1
 0 504 l 1
 504 504 l 1
 504 1344 l 1
 0 1344 l 1
EndSplineSet
EndChar

StartChar: uni2599
Encoding: 9625 9625 274
Width: 1008
Flags: HW
LayerCount: 2
Fore
SplineSet
0 -336 m 1
 0 1344 l 1
 504 1344 l 1
 504 504 l 1
 1008 504 l 1
 1008 -336 l 1
 0 -336 l 1
EndSplineSet
EndChar

StartChar: uni259A
Encoding: 9626 9626 275
Width: 1008
Flags: HW
LayerCount: 2
Fore
SplineSet
0 1344 m 1
 0 504 l 1
 504 504 l 1
 504 1344 l 1
 0 1344 l 1
504 504 m 1
 1008 504 l 1
 1008 -336 l 1
 504 -336 l 1
 504 504 l 1
EndSplineSet
EndChar

StartChar: uni259B
Encoding: 9627 9627 276
Width: 1008
Flags: HW
LayerCount: 2
Fore
SplineSet
0 1344 m 1
 0 -336 l 1
 504 -336 l 1
 504 504 l 1
 1008 504 l 1
 1008 1344 l 1
 0 1344 l 1
EndSplineSet
EndChar

StartChar: uni259C
Encoding: 9628 9628 277
Width: 1008
Flags: HW
LayerCount: 2
Fore
SplineSet
1008 1344 m 1
 1008 -336 l 1
 504 -336 l 1
 504 504 l 1
 0 504 l 1
 0 1344 l 1
 1008 1344 l 1
EndSplineSet
EndChar

StartChar: uni259D
Encoding: 9629 9629 278
Width: 1008
Flags: HW
LayerCount: 2
Fore
SplineSet
504 1344 m 1
 504 504 l 1
 1008 504 l 1
 1008 1344 l 1
 504 1344 l 1
EndSplineSet
EndChar

StartChar: uni259E
Encoding: 9630 9630 279
Width: 1008
Flags: HW
LayerCount: 2
Fore
SplineSet
0 -336 m 1
 0 504 l 1
 504 504 l 1
 504 -336 l 1
 0 -336 l 1
504 504 m 1
 1008 504 l 1
 1008 1344 l 1
 504 1344 l 1
 504 504 l 1
EndSplineSet
EndChar

StartChar: uni259F
Encoding: 9631 9631 280
Width: 1008
Flags: HW
LayerCount: 2
Fore
SplineSet
1008 -336 m 1
 1008 1344 l 1
 504 1344 l 1
 504 504 l 1
 0 504 l 1
 0 -336 l 1
 1008 -336 l 1
EndSplineSet
EndChar

StartChar: dieresis
Encoding: 168 168 281
Width: 1008
VWidth: 4000
Flags: HW
HStem: 1120 176<193.491 334.509 673.491 814.509>
VStem: 176 176<1137.49 1278.51> 656 176<1137.49 1278.51>
LayerCount: 2
Fore
SplineSet
656 978 m 0
 656 929.428710938 695.428710938 890 744 890 c 0
 792.571289062 890 832 929.428710938 832 978 c 0
 832 1026.57128906 792.571289062 1066 744 1066 c 0
 695.428710938 1066 656 1026.57128906 656 978 c 0
176 978 m 0
 176 929.428710938 215.428710938 890 264 890 c 0
 312.571289062 890 352 929.428710938 352 978 c 0
 352 1026.57128906 312.571289062 1066 264 1066 c 0
 215.428710938 1066 176 1026.57128906 176 978 c 0
EndSplineSet
EndChar

StartChar: macron
Encoding: 175 175 282
Width: 1008
VWidth: 4000
Flags: HW
HStem: 330 96<137.512 184 824 870.488>
LayerCount: 2
Fore
SplineSet
264 1176 m 2
 237.50808 1176 216 1197.50808 216 1224 c 0
 216 1250.49192 237.50808 1272 264 1272 c 2
 744 1272 l 2
 770.49192 1272 792 1250.49192 792 1224 c 0
 792 1197.50808 770.49192 1176 744 1176 c 2
 264 1176 l 2
EndSplineSet
EndChar

StartChar: mu
Encoding: 181 181 283
Width: 1008
VWidth: 4000
Flags: HW
VStem: 456 96<-278.488 -232 1008 1054.49>
LayerCount: 2
Fore
SplineSet
455.899414062 -21.0009765625 m 0
 417.085989967 -21.0009765625 360.554108182 -10.9442313277 308.015442353 35.949334602 c 1
 308 -252 l 2
 308 -278.49192 286.49192 -300 260 -300 c 0
 233.50808 -300 212 -278.49192 212 -252 c 2
 212 660 l 1
 152 660 l 2
 125.50808 660 104 681.50808 104 708 c 0
 104 734.49192 125.50808 756 152 756 c 2
 260 756 l 2
 286.794410196 756 308.051485675 734.190711869 308.051485675 708.039313977 c 2
 308.027687964 264.289891977 l 2
 309.406397084 171.868229872 363.008425468 74.9990234375 455.899414062 74.9990234375 c 0
 544.128872627 74.9990234375 596.646034177 148.920926081 692 288.48095354 c 1
 692 660 l 1
 632 660 l 2
 605.50808 660 584 681.50808 584 708 c 0
 584 734.49192 605.50808 756 632 756 c 2
 740.040197923 756.024450982 l 2
 766.472122538 756.024450982 788 734.600187425 788 708 c 2
 788 96 l 1
 856 96 l 2
 882.49192 96 904 74.49192 904 48 c 0
 904 21.50808 882.49192 0 856 0 c 2
 740 0 l 2
 713.50808 0 692 21.50808 692 48 c 2
 692 122.463006312 l 1
 632.016688042 44.9542255568 562.741187472 -21.0009765625 455.899414062 -21.0009765625 c 0
EndSplineSet
EndChar

StartChar: dagger
Encoding: 8224 8224 284
Width: 1008
VWidth: 4000
Flags: HW
HStem: 330 96<137.512 184 824 870.488>
LayerCount: 2
Fore
SplineSet
264 720 m 2
 237.50808 720 216 741.50808 216 768 c 0
 216 794.49192 237.50808 816 264 816 c 2
 456 816 l 1
 456 1008 l 2
 456 1034.49192 477.50808 1056 504 1056 c 0
 530.49192 1056 552 1034.49192 552 1008 c 2
 552 816 l 1
 744 816 l 2
 770.49192 816 792 794.49192 792 768 c 0
 792 741.50808 770.49192 720 744 720 c 2
 552 720 l 1
 552 -252 l 2
 552 -278.49192 530.49192 -300 504 -300 c 0
 477.50808 -300 456 -278.49192 456 -252 c 2
 456 720 l 1
 264 720 l 2
EndSplineSet
EndChar

StartChar: daggerdbl
Encoding: 8225 8225 285
Width: 1008
VWidth: 4000
Flags: HW
LayerCount: 2
Fore
SplineSet
744 36 m 2
 770.49192 36 792 14.49192 792 -12 c 0
 792 -38.49192 770.49192 -60 744 -60 c 2
 552 -60 l 1
 552 -252 l 2
 552 -278.49192 530.49192 -300 504 -300 c 0
 477.50808 -300 456 -278.49192 456 -252 c 2
 456 -60 l 1
 264 -60 l 2
 237.50808 -60 216 -38.49192 216 -12 c 0
 216 14.49192 237.50808 36 264 36 c 2
 456 36 l 1
 456 720 l 1
 264 720 l 2
 237.50808 720 216 741.50808 216 768 c 0
 216 794.49192 237.50808 816 264 816 c 2
 456 816 l 1
 456 1008 l 2
 456 1034.49192 477.50808 1056 504 1056 c 0
 530.49192 1056 552 1034.49192 552 1008 c 2
 552 816 l 1
 744 816 l 2
 770.49192 816 792 794.49192 792 768 c 0
 792 741.50808 770.49192 720 744 720 c 2
 552 720 l 1
 552 36 l 1
 744 36 l 2
EndSplineSet
EndChar

StartChar: uni203E
Encoding: 8254 8254 287
Width: 1008
VWidth: 4000
Flags: HW
HStem: -300 96<17.5122 64 944 990.488>
LayerCount: 2
Fore
SplineSet
64 1152 m 2
 37.50808 1152 16 1173.50808 16 1200 c 0
 16 1226.49192 37.50808 1248 64 1248 c 2
 944 1248 l 2
 970.49192 1248 992 1226.49192 992 1200 c 0
 992 1173.50808 970.49192 1152 944 1152 c 2
 64 1152 l 2
EndSplineSet
EndChar

StartChar: uni2045
Encoding: 8261 8261 288
Width: 1008
VWidth: 4000
Flags: HW
HStem: -300 96<17.5122 64 944 990.488>
LayerCount: 2
Fore
SplineSet
603.999023438 1056 m 2
 630.490943438 1056 651.999023438 1034.49192 651.999023438 1008 c 0
 651.999023438 981.50808 630.490943438 960 603.999023438 960 c 2
 451.999097842 960 l 1
 451.999097842 782 451.999888646 604 451.999888646 426 c 1
 604 426 l 2
 630.49192 426 652 404.49192 652 378 c 0
 652 351.50808 630.49192 330 604 330 c 2
 452.000111354 330 l 1
 452.000111354 152 452.000902158 -26 452.000902158 -204 c 1
 604.000976562 -204 l 2
 630.492896563 -204 652.000976562 -225.50808 652.000976562 -252 c 0
 652.000976562 -278.49192 630.492896563 -300 604.000976562 -300 c 2
 404.000975833 -300 l 2
 377.50907317 -300 356.000997018 -278.491948468 356.000976562 -252 c 2
 356.000976562 1008.00003685 l 2
 356.000976562 1034.49191579 377.507103438 1055.99997928 403.999023438 1056 c 2
 603.999023438 1056 l 2
EndSplineSet
EndChar

StartChar: uni2046
Encoding: 8262 8262 289
Width: 1008
VWidth: 4000
Flags: HW
HStem: -300 96<17.5122 64 944 990.488>
LayerCount: 2
Fore
SplineSet
404 330 m 2
 377.50808 330 356 351.50808 356 378 c 0
 356 404.49192 377.50808 426 404 426 c 2
 556.000111354 426 l 1
 556.000111354 604 556.000902158 782 556.000902158 960 c 1
 404.000976562 960 l 2
 377.509056563 960 356.000976562 981.50808 356.000976562 1008 c 0
 356.000976562 1034.49192 377.509056563 1056 404.000976562 1056 c 2
 604.000976562 1056 l 2
 630.492896562 1055.99997809 652.000936864 1034.49187964 652.000936864 1007.99995884 c 0
 652.000936864 -252.000075871 652.000936864 -252.000075871 652.000936864 -252.000075871 c 2
 652.000895799 -278.491984037 630.490884605 -299.999999536 603.998972635 -299.999999536 c 0
 403.999023438 -299.999999536 403.999023438 -299.999999536 403.999023438 -299.999999536 c 2
 377.507103438 -299.999999536 355.999023438 -278.49192 355.999023438 -252 c 0
 355.999023438 -225.50808 377.507103438 -204 403.999023438 -204 c 2
 555.999097842 -204 l 1
 555.999097842 -26 555.999888646 152 555.999888646 330 c 1
 404 330 l 2
EndSplineSet
EndChar

StartChar: colon.orig
Encoding: 65578 -1 291
Width: 1008
VWidth: 4000
Flags: HW
HStem: -20 196<428.393 579.607> 580 196<428.393 579.607>
VStem: 406 196<2.38281 153.611 602.383 753.611>
LayerCount: 2
Fore
SplineSet
406 78 m 0
 406 132.093605399 449.906394601 176 504 176 c 0
 558.093605399 176 602 132.093605399 602 78 c 0
 602 23.9063946005 558.093605399 -20 504 -20 c 0
 449.906394601 -20 406 23.9063946005 406 78 c 0
406 678 m 0
 406 732.093605399 449.906394601 776 504 776 c 0
 558.093605399 776 602 732.093605399 602 678 c 0
 602 623.906394601 558.093605399 580 504 580 c 0
 449.906394601 580 406 623.906394601 406 678 c 0
EndSplineSet
EndChar

StartChar: comma.orig
Encoding: 65576 -1 292
Width: 1008
VWidth: 4000
Flags: HW
HStem: 580 196<428.339 579.553>
VStem: 405.946 196<7.17731 153.611 602.383 753.611>
LayerCount: 2
Fore
SplineSet
366.764155961 -112.47986103 m 0
 367.935859253 -111.674315017 426.930822572 -70.864829921 468.844135862 -13.4969961361 c 1
 432.099205624 0.64411501188 406 36.2942740612 406 78 c 0
 406 132.093605399 449.906394601 176 504 176 c 0
 558.093605399 176 602 132.093605399 602 78 c 0
 602 -64.3862354355 434.596838497 -182.334455275 421.14655167 -191.581527473 c 0
 413.330423943 -196.945752501 403.979635965 -200.054349184 393.908525741 -200.054349184 c 0
 367.418735015 -200.054349184 345.912383716 -178.547997885 345.912383716 -152.058207159 c 0
 345.912383716 -135.639526657 354.174402626 -121.135316453 366.764155961 -112.47986103 c 0
EndSplineSet
EndChar

StartChar: semicolon.orig
Encoding: 65579 -1 293
Width: 1008
VWidth: 4000
Flags: HW
HStem: 580 196<428.339 579.553>
VStem: 405.946 196<7.17731 153.611 602.383 753.611>
LayerCount: 2
Fore
SplineSet
366.763992839 -113.813958097 m 0
 367.935700604 -113.008401857 426.930931358 -72.1983701818 468.844297253 -14.8300660591 c 1
 432.099282047 -0.688997189053 406 34.9612051887 406 76.6669921875 c 0
 406 130.760597587 449.906394601 174.666992188 504 174.666992188 c 0
 558.093605399 174.666992188 602 130.760597587 602 76.6669921875 c 0
 602 -65.7193594609 434.596453359 -183.668622341 421.146716134 -192.915398779 c 0
 413.330557804 -198.279691981 403.979708607 -201.388332781 393.908526942 -201.388332781 c 0
 367.41873634 -201.388332781 345.912385142 -179.881981583 345.912385142 -153.392190981 c 0
 345.912385142 -136.973582044 354.174332066 -122.469426725 366.763992839 -113.813958097 c 0
406 678 m 0
 406 732.093605399 449.906394601 776 504 776 c 0
 558.093605399 776 602 732.093605399 602 678 c 0
 602 623.906394601 558.093605399 580 504 580 c 0
 449.906394601 580 406 623.906394601 406 678 c 0
EndSplineSet
EndChar

StartChar: period.orig
Encoding: 65577 -1 294
Width: 1008
VWidth: 4000
Flags: HW
HStem: -20 196<428.393 579.607> 580 196<428.393 579.607>
VStem: 406 196<2.38281 153.611 602.383 753.611>
LayerCount: 2
Fore
SplineSet
406 78 m 0
 406 132.093605399 449.906394601 176 504 176 c 0
 558.093605399 176 602 132.093605399 602 78 c 0
 602 23.9063946005 558.093605399 -20 504 -20 c 0
 449.906394601 -20 406 23.9063946005 406 78 c 0
EndSplineSet
EndChar

StartChar: comma.bigger
Encoding: 65580 -1 295
Width: 1008
Flags: HW
LayerCount: 2
Fore
SplineSet
381 103 m 0
 381 170.901367188 436.098632812 226 504 226 c 0
 571.901367188 226 627 170.901367188 627 103 c 0
 627 -99.40625 380.0078125 -272.051757812 366.146484375 -281.581054688 c 0
 358.423828125 -286.891601562 349.072265625 -290 339 -290 c 0
 292.244140625 -290 273.16015625 -229.020507812 311.853515625 -202.418945312 c 0
 342.219988217 -181.652750924 435.77538258 -107.555391817 490.334221594 -19.2484400069 c 1
 428.857504639 -12.444671965 380.999999983 39.7175721594 381 103 c 0
EndSplineSet
EndChar

StartChar: period.bigger
Encoding: 65581 -1 296
Width: 1008
Flags: HW
LayerCount: 2
Fore
SplineSet
381 103 m 0
 381 170.901367188 436.098632812 226 504 226 c 0
 571.901367188 226 627 170.901367188 627 103 c 0
 627 35.0986328125 571.901367188 -20 504 -20 c 0
 436.098632812 -20 381 35.0986328125 381 103 c 0
EndSplineSet
EndChar

StartChar: colon.bigger
Encoding: 65582 -1 297
Width: 1008
Flags: HW
LayerCount: 2
Fore
SplineSet
381 653 m 4
 381 720.901367188 436.098632812 776 504 776 c 4
 571.901367188 776 627 720.901367188 627 653 c 4
 627 585.098632812 571.901367188 530 504 530 c 4
 436.098632812 530 381 585.098632812 381 653 c 4
381 103 m 0
 381 170.901367188 436.098632812 226 504 226 c 0
 571.901367188 226 627 170.901367188 627 103 c 0
 627 35.0986328125 571.901367188 -20 504 -20 c 0
 436.098632812 -20 381 35.0986328125 381 103 c 0
EndSplineSet
EndChar

StartChar: semicolon.bigger
Encoding: 65583 -1 298
Width: 1008
Flags: HW
LayerCount: 2
Fore
SplineSet
381 653 m 4
 381 720.901367188 436.098632812 776 504 776 c 4
 571.901367188 776 627 720.901367188 627 653 c 4
 627 585.098632812 571.901367188 530 504 530 c 4
 436.098632812 530 381 585.098632812 381 653 c 4
381 103 m 0
 381 170.901367188 436.098632812 226 504 226 c 0
 571.901367188 226 627 170.901367188 627 103 c 0
 627 -99.40625 380.0078125 -272.051757812 366.146484375 -281.581054688 c 0
 358.423828125 -286.891601562 349.072265625 -290 339 -290 c 0
 292.244140625 -290 273.16015625 -229.020507812 311.853515625 -202.418945312 c 0
 342.219988217 -181.652750924 435.77538258 -107.555391817 490.334221594 -19.2484400069 c 1
 428.857504639 -12.444671965 380.999999983 39.7175721594 381 103 c 0
EndSplineSet
EndChar

StartChar: uni2801
Encoding: 10241 10241 323
Width: 1008
Flags: HW
LayerCount: 2
Fore
SplineSet
318 1162 m 0
 373 1162 418 1117 418 1062 c 0
 418 1007 373 962 318 962 c 0
 263 962 218 1007 218 1062 c 0
 218 1117 263 1162 318 1162 c 0
EndSplineSet
EndChar

StartChar: uni2802
Encoding: 10242 10242 324
Width: 1008
Flags: HW
LayerCount: 2
Fore
SplineSet
318 790 m 0
 373 790 418 745 418 690 c 0
 418 635 373 590 318 590 c 0
 263 590 218 635 218 690 c 0
 218 745 263 790 318 790 c 0
EndSplineSet
EndChar

StartChar: uni2803
Encoding: 10243 10243 325
Width: 1008
Flags: HW
LayerCount: 2
Fore
SplineSet
318 790 m 0
 373 790 418 745 418 690 c 0
 418 635 373 590 318 590 c 0
 263 590 218 635 218 690 c 0
 218 745 263 790 318 790 c 0
318 1162 m 0
 373 1162 418 1117 418 1062 c 0
 418 1007 373 962 318 962 c 0
 263 962 218 1007 218 1062 c 0
 218 1117 263 1162 318 1162 c 0
EndSplineSet
EndChar

StartChar: uni2804
Encoding: 10244 10244 326
Width: 1008
Flags: HW
LayerCount: 2
Fore
SplineSet
318 418 m 0
 373 418 418 373 418 318 c 0
 418 263 373 218 318 218 c 0
 263 218 218 263 218 318 c 0
 218 373 263 418 318 418 c 0
EndSplineSet
EndChar

StartChar: uni2805
Encoding: 10245 10245 327
Width: 1008
Flags: HW
LayerCount: 2
Fore
SplineSet
318 418 m 0
 373 418 418 373 418 318 c 0
 418 263 373 218 318 218 c 0
 263 218 218 263 218 318 c 0
 218 373 263 418 318 418 c 0
318 1162 m 0
 373 1162 418 1117 418 1062 c 0
 418 1007 373 962 318 962 c 0
 263 962 218 1007 218 1062 c 0
 218 1117 263 1162 318 1162 c 0
EndSplineSet
EndChar

StartChar: uni2806
Encoding: 10246 10246 328
Width: 1008
Flags: HW
LayerCount: 2
Fore
SplineSet
318 418 m 0
 373 418 418 373 418 318 c 0
 418 263 373 218 318 218 c 0
 263 218 218 263 218 318 c 0
 218 373 263 418 318 418 c 0
318 790 m 0
 373 790 418 745 418 690 c 0
 418 635 373 590 318 590 c 0
 263 590 218 635 218 690 c 0
 218 745 263 790 318 790 c 0
EndSplineSet
EndChar

StartChar: uni2807
Encoding: 10247 10247 329
Width: 1008
Flags: HW
LayerCount: 2
Fore
SplineSet
318 418 m 0
 373 418 418 373 418 318 c 0
 418 263 373 218 318 218 c 0
 263 218 218 263 218 318 c 0
 218 373 263 418 318 418 c 0
318 790 m 0
 373 790 418 745 418 690 c 0
 418 635 373 590 318 590 c 0
 263 590 218 635 218 690 c 0
 218 745 263 790 318 790 c 0
318 1162 m 0
 373 1162 418 1117 418 1062 c 0
 418 1007 373 962 318 962 c 0
 263 962 218 1007 218 1062 c 0
 218 1117 263 1162 318 1162 c 0
EndSplineSet
EndChar

StartChar: uni2808
Encoding: 10248 10248 330
Width: 1008
Flags: HW
LayerCount: 2
Fore
SplineSet
690 1162 m 0
 745 1162 790 1117 790 1062 c 0
 790 1007 745 962 690 962 c 0
 635 962 590 1007 590 1062 c 0
 590 1117 635 1162 690 1162 c 0
EndSplineSet
EndChar

StartChar: uni2809
Encoding: 10249 10249 331
Width: 1008
Flags: HW
LayerCount: 2
Fore
SplineSet
690 1162 m 0
 745 1162 790 1117 790 1062 c 0
 790 1007 745 962 690 962 c 0
 635 962 590 1007 590 1062 c 0
 590 1117 635 1162 690 1162 c 0
318 1162 m 0
 373 1162 418 1117 418 1062 c 0
 418 1007 373 962 318 962 c 0
 263 962 218 1007 218 1062 c 0
 218 1117 263 1162 318 1162 c 0
EndSplineSet
EndChar

StartChar: uni280A
Encoding: 10250 10250 332
Width: 1008
Flags: HW
LayerCount: 2
Fore
SplineSet
690 1162 m 0
 745 1162 790 1117 790 1062 c 0
 790 1007 745 962 690 962 c 0
 635 962 590 1007 590 1062 c 0
 590 1117 635 1162 690 1162 c 0
318 790 m 0
 373 790 418 745 418 690 c 0
 418 635 373 590 318 590 c 0
 263 590 218 635 218 690 c 0
 218 745 263 790 318 790 c 0
EndSplineSet
EndChar

StartChar: uni280B
Encoding: 10251 10251 333
Width: 1008
Flags: HW
LayerCount: 2
Fore
SplineSet
690 1162 m 0
 745 1162 790 1117 790 1062 c 0
 790 1007 745 962 690 962 c 0
 635 962 590 1007 590 1062 c 0
 590 1117 635 1162 690 1162 c 0
318 790 m 0
 373 790 418 745 418 690 c 0
 418 635 373 590 318 590 c 0
 263 590 218 635 218 690 c 0
 218 745 263 790 318 790 c 0
318 1162 m 0
 373 1162 418 1117 418 1062 c 0
 418 1007 373 962 318 962 c 0
 263 962 218 1007 218 1062 c 0
 218 1117 263 1162 318 1162 c 0
EndSplineSet
EndChar

StartChar: uni280C
Encoding: 10252 10252 334
Width: 1008
Flags: HW
LayerCount: 2
Fore
SplineSet
690 1162 m 0
 745 1162 790 1117 790 1062 c 0
 790 1007 745 962 690 962 c 0
 635 962 590 1007 590 1062 c 0
 590 1117 635 1162 690 1162 c 0
318 418 m 0
 373 418 418 373 418 318 c 0
 418 263 373 218 318 218 c 0
 263 218 218 263 218 318 c 0
 218 373 263 418 318 418 c 0
EndSplineSet
EndChar

StartChar: uni280D
Encoding: 10253 10253 335
Width: 1008
Flags: HW
LayerCount: 2
Fore
SplineSet
690 1162 m 0
 745 1162 790 1117 790 1062 c 0
 790 1007 745 962 690 962 c 0
 635 962 590 1007 590 1062 c 0
 590 1117 635 1162 690 1162 c 0
318 418 m 0
 373 418 418 373 418 318 c 0
 418 263 373 218 318 218 c 0
 263 218 218 263 218 318 c 0
 218 373 263 418 318 418 c 0
318 1162 m 0
 373 1162 418 1117 418 1062 c 0
 418 1007 373 962 318 962 c 0
 263 962 218 1007 218 1062 c 0
 218 1117 263 1162 318 1162 c 0
EndSplineSet
EndChar

StartChar: uni280E
Encoding: 10254 10254 336
Width: 1008
Flags: HW
LayerCount: 2
Fore
SplineSet
690 1162 m 0
 745 1162 790 1117 790 1062 c 0
 790 1007 745 962 690 962 c 0
 635 962 590 1007 590 1062 c 0
 590 1117 635 1162 690 1162 c 0
318 418 m 0
 373 418 418 373 418 318 c 0
 418 263 373 218 318 218 c 0
 263 218 218 263 218 318 c 0
 218 373 263 418 318 418 c 0
318 790 m 0
 373 790 418 745 418 690 c 0
 418 635 373 590 318 590 c 0
 263 590 218 635 218 690 c 0
 218 745 263 790 318 790 c 0
EndSplineSet
EndChar

StartChar: uni280F
Encoding: 10255 10255 337
Width: 1008
Flags: HW
LayerCount: 2
Fore
SplineSet
690 1162 m 0
 745 1162 790 1117 790 1062 c 0
 790 1007 745 962 690 962 c 0
 635 962 590 1007 590 1062 c 0
 590 1117 635 1162 690 1162 c 0
318 418 m 0
 373 418 418 373 418 318 c 0
 418 263 373 218 318 218 c 0
 263 218 218 263 218 318 c 0
 218 373 263 418 318 418 c 0
318 790 m 0
 373 790 418 745 418 690 c 0
 418 635 373 590 318 590 c 0
 263 590 218 635 218 690 c 0
 218 745 263 790 318 790 c 0
318 1162 m 0
 373 1162 418 1117 418 1062 c 0
 418 1007 373 962 318 962 c 0
 263 962 218 1007 218 1062 c 0
 218 1117 263 1162 318 1162 c 0
EndSplineSet
EndChar

StartChar: uni2810
Encoding: 10256 10256 338
Width: 1008
Flags: HW
LayerCount: 2
Fore
SplineSet
690 790 m 0
 745 790 790 745 790 690 c 0
 790 635 745 590 690 590 c 0
 635 590 590 635 590 690 c 0
 590 745 635 790 690 790 c 0
EndSplineSet
EndChar

StartChar: uni2811
Encoding: 10257 10257 339
Width: 1008
Flags: HW
LayerCount: 2
Fore
SplineSet
690 790 m 0
 745 790 790 745 790 690 c 0
 790 635 745 590 690 590 c 0
 635 590 590 635 590 690 c 0
 590 745 635 790 690 790 c 0
318 1162 m 0
 373 1162 418 1117 418 1062 c 0
 418 1007 373 962 318 962 c 0
 263 962 218 1007 218 1062 c 0
 218 1117 263 1162 318 1162 c 0
EndSplineSet
EndChar

StartChar: uni2812
Encoding: 10258 10258 340
Width: 1008
Flags: HW
LayerCount: 2
Fore
SplineSet
690 790 m 0
 745 790 790 745 790 690 c 0
 790 635 745 590 690 590 c 0
 635 590 590 635 590 690 c 0
 590 745 635 790 690 790 c 0
318 790 m 0
 373 790 418 745 418 690 c 0
 418 635 373 590 318 590 c 0
 263 590 218 635 218 690 c 0
 218 745 263 790 318 790 c 0
EndSplineSet
EndChar

StartChar: uni2813
Encoding: 10259 10259 341
Width: 1008
Flags: HW
LayerCount: 2
Fore
SplineSet
690 790 m 0
 745 790 790 745 790 690 c 0
 790 635 745 590 690 590 c 0
 635 590 590 635 590 690 c 0
 590 745 635 790 690 790 c 0
318 790 m 0
 373 790 418 745 418 690 c 0
 418 635 373 590 318 590 c 0
 263 590 218 635 218 690 c 0
 218 745 263 790 318 790 c 0
318 1162 m 0
 373 1162 418 1117 418 1062 c 0
 418 1007 373 962 318 962 c 0
 263 962 218 1007 218 1062 c 0
 218 1117 263 1162 318 1162 c 0
EndSplineSet
EndChar

StartChar: uni2814
Encoding: 10260 10260 342
Width: 1008
Flags: HW
LayerCount: 2
Fore
SplineSet
690 790 m 0
 745 790 790 745 790 690 c 0
 790 635 745 590 690 590 c 0
 635 590 590 635 590 690 c 0
 590 745 635 790 690 790 c 0
318 418 m 0
 373 418 418 373 418 318 c 0
 418 263 373 218 318 218 c 0
 263 218 218 263 218 318 c 0
 218 373 263 418 318 418 c 0
EndSplineSet
EndChar

StartChar: uni2815
Encoding: 10261 10261 343
Width: 1008
Flags: HW
LayerCount: 2
Fore
SplineSet
690 790 m 0
 745 790 790 745 790 690 c 0
 790 635 745 590 690 590 c 0
 635 590 590 635 590 690 c 0
 590 745 635 790 690 790 c 0
318 418 m 0
 373 418 418 373 418 318 c 0
 418 263 373 218 318 218 c 0
 263 218 218 263 218 318 c 0
 218 373 263 418 318 418 c 0
318 1162 m 0
 373 1162 418 1117 418 1062 c 0
 418 1007 373 962 318 962 c 0
 263 962 218 1007 218 1062 c 0
 218 1117 263 1162 318 1162 c 0
EndSplineSet
EndChar

StartChar: uni2816
Encoding: 10262 10262 344
Width: 1008
Flags: HW
LayerCount: 2
Fore
SplineSet
690 790 m 0
 745 790 790 745 790 690 c 0
 790 635 745 590 690 590 c 0
 635 590 590 635 590 690 c 0
 590 745 635 790 690 790 c 0
318 418 m 0
 373 418 418 373 418 318 c 0
 418 263 373 218 318 218 c 0
 263 218 218 263 218 318 c 0
 218 373 263 418 318 418 c 0
318 790 m 0
 373 790 418 745 418 690 c 0
 418 635 373 590 318 590 c 0
 263 590 218 635 218 690 c 0
 218 745 263 790 318 790 c 0
EndSplineSet
EndChar

StartChar: uni2817
Encoding: 10263 10263 345
Width: 1008
Flags: HW
LayerCount: 2
Fore
SplineSet
690 790 m 0
 745 790 790 745 790 690 c 0
 790 635 745 590 690 590 c 0
 635 590 590 635 590 690 c 0
 590 745 635 790 690 790 c 0
318 418 m 0
 373 418 418 373 418 318 c 0
 418 263 373 218 318 218 c 0
 263 218 218 263 218 318 c 0
 218 373 263 418 318 418 c 0
318 790 m 0
 373 790 418 745 418 690 c 0
 418 635 373 590 318 590 c 0
 263 590 218 635 218 690 c 0
 218 745 263 790 318 790 c 0
318 1162 m 0
 373 1162 418 1117 418 1062 c 0
 418 1007 373 962 318 962 c 0
 263 962 218 1007 218 1062 c 0
 218 1117 263 1162 318 1162 c 0
EndSplineSet
EndChar

StartChar: uni2818
Encoding: 10264 10264 346
Width: 1008
Flags: HW
LayerCount: 2
Fore
SplineSet
690 790 m 0
 745 790 790 745 790 690 c 0
 790 635 745 590 690 590 c 0
 635 590 590 635 590 690 c 0
 590 745 635 790 690 790 c 0
690 1162 m 0
 745 1162 790 1117 790 1062 c 0
 790 1007 745 962 690 962 c 0
 635 962 590 1007 590 1062 c 0
 590 1117 635 1162 690 1162 c 0
EndSplineSet
EndChar

StartChar: uni2819
Encoding: 10265 10265 347
Width: 1008
Flags: HW
LayerCount: 2
Fore
SplineSet
690 790 m 0
 745 790 790 745 790 690 c 0
 790 635 745 590 690 590 c 0
 635 590 590 635 590 690 c 0
 590 745 635 790 690 790 c 0
690 1162 m 0
 745 1162 790 1117 790 1062 c 0
 790 1007 745 962 690 962 c 0
 635 962 590 1007 590 1062 c 0
 590 1117 635 1162 690 1162 c 0
318 1162 m 0
 373 1162 418 1117 418 1062 c 0
 418 1007 373 962 318 962 c 0
 263 962 218 1007 218 1062 c 0
 218 1117 263 1162 318 1162 c 0
EndSplineSet
EndChar

StartChar: uni281A
Encoding: 10266 10266 348
Width: 1008
Flags: HW
LayerCount: 2
Fore
SplineSet
690 790 m 0
 745 790 790 745 790 690 c 0
 790 635 745 590 690 590 c 0
 635 590 590 635 590 690 c 0
 590 745 635 790 690 790 c 0
690 1162 m 0
 745 1162 790 1117 790 1062 c 0
 790 1007 745 962 690 962 c 0
 635 962 590 1007 590 1062 c 0
 590 1117 635 1162 690 1162 c 0
318 790 m 0
 373 790 418 745 418 690 c 0
 418 635 373 590 318 590 c 0
 263 590 218 635 218 690 c 0
 218 745 263 790 318 790 c 0
EndSplineSet
EndChar

StartChar: uni281B
Encoding: 10267 10267 349
Width: 1008
Flags: HW
LayerCount: 2
Fore
SplineSet
690 790 m 0
 745 790 790 745 790 690 c 0
 790 635 745 590 690 590 c 0
 635 590 590 635 590 690 c 0
 590 745 635 790 690 790 c 0
690 1162 m 0
 745 1162 790 1117 790 1062 c 0
 790 1007 745 962 690 962 c 0
 635 962 590 1007 590 1062 c 0
 590 1117 635 1162 690 1162 c 0
318 790 m 0
 373 790 418 745 418 690 c 0
 418 635 373 590 318 590 c 0
 263 590 218 635 218 690 c 0
 218 745 263 790 318 790 c 0
318 1162 m 0
 373 1162 418 1117 418 1062 c 0
 418 1007 373 962 318 962 c 0
 263 962 218 1007 218 1062 c 0
 218 1117 263 1162 318 1162 c 0
EndSplineSet
EndChar

StartChar: uni281C
Encoding: 10268 10268 350
Width: 1008
Flags: HW
LayerCount: 2
Fore
SplineSet
690 790 m 0
 745 790 790 745 790 690 c 0
 790 635 745 590 690 590 c 0
 635 590 590 635 590 690 c 0
 590 745 635 790 690 790 c 0
690 1162 m 0
 745 1162 790 1117 790 1062 c 0
 790 1007 745 962 690 962 c 0
 635 962 590 1007 590 1062 c 0
 590 1117 635 1162 690 1162 c 0
318 418 m 0
 373 418 418 373 418 318 c 0
 418 263 373 218 318 218 c 0
 263 218 218 263 218 318 c 0
 218 373 263 418 318 418 c 0
EndSplineSet
EndChar

StartChar: uni281D
Encoding: 10269 10269 351
Width: 1008
Flags: HW
LayerCount: 2
Fore
SplineSet
690 790 m 0
 745 790 790 745 790 690 c 0
 790 635 745 590 690 590 c 0
 635 590 590 635 590 690 c 0
 590 745 635 790 690 790 c 0
690 1162 m 0
 745 1162 790 1117 790 1062 c 0
 790 1007 745 962 690 962 c 0
 635 962 590 1007 590 1062 c 0
 590 1117 635 1162 690 1162 c 0
318 418 m 0
 373 418 418 373 418 318 c 0
 418 263 373 218 318 218 c 0
 263 218 218 263 218 318 c 0
 218 373 263 418 318 418 c 0
318 1162 m 0
 373 1162 418 1117 418 1062 c 0
 418 1007 373 962 318 962 c 0
 263 962 218 1007 218 1062 c 0
 218 1117 263 1162 318 1162 c 0
EndSplineSet
EndChar

StartChar: uni281E
Encoding: 10270 10270 352
Width: 1008
Flags: HW
LayerCount: 2
Fore
SplineSet
690 790 m 0
 745 790 790 745 790 690 c 0
 790 635 745 590 690 590 c 0
 635 590 590 635 590 690 c 0
 590 745 635 790 690 790 c 0
690 1162 m 0
 745 1162 790 1117 790 1062 c 0
 790 1007 745 962 690 962 c 0
 635 962 590 1007 590 1062 c 0
 590 1117 635 1162 690 1162 c 0
318 418 m 0
 373 418 418 373 418 318 c 0
 418 263 373 218 318 218 c 0
 263 218 218 263 218 318 c 0
 218 373 263 418 318 418 c 0
318 790 m 0
 373 790 418 745 418 690 c 0
 418 635 373 590 318 590 c 0
 263 590 218 635 218 690 c 0
 218 745 263 790 318 790 c 0
EndSplineSet
EndChar

StartChar: uni281F
Encoding: 10271 10271 353
Width: 1008
Flags: HW
LayerCount: 2
Fore
SplineSet
690 790 m 0
 745 790 790 745 790 690 c 0
 790 635 745 590 690 590 c 0
 635 590 590 635 590 690 c 0
 590 745 635 790 690 790 c 0
690 1162 m 0
 745 1162 790 1117 790 1062 c 0
 790 1007 745 962 690 962 c 0
 635 962 590 1007 590 1062 c 0
 590 1117 635 1162 690 1162 c 0
318 418 m 0
 373 418 418 373 418 318 c 0
 418 263 373 218 318 218 c 0
 263 218 218 263 218 318 c 0
 218 373 263 418 318 418 c 0
318 790 m 0
 373 790 418 745 418 690 c 0
 418 635 373 590 318 590 c 0
 263 590 218 635 218 690 c 0
 218 745 263 790 318 790 c 0
318 1162 m 0
 373 1162 418 1117 418 1062 c 0
 418 1007 373 962 318 962 c 0
 263 962 218 1007 218 1062 c 0
 218 1117 263 1162 318 1162 c 0
EndSplineSet
EndChar

StartChar: uni2820
Encoding: 10272 10272 354
Width: 1008
Flags: HW
LayerCount: 2
Fore
SplineSet
690 418 m 0
 745 418 790 373 790 318 c 0
 790 263 745 218 690 218 c 0
 635 218 590 263 590 318 c 0
 590 373 635 418 690 418 c 0
EndSplineSet
EndChar

StartChar: uni2821
Encoding: 10273 10273 355
Width: 1008
Flags: HW
LayerCount: 2
Fore
SplineSet
690 418 m 0
 745 418 790 373 790 318 c 0
 790 263 745 218 690 218 c 0
 635 218 590 263 590 318 c 0
 590 373 635 418 690 418 c 0
318 1162 m 0
 373 1162 418 1117 418 1062 c 0
 418 1007 373 962 318 962 c 0
 263 962 218 1007 218 1062 c 0
 218 1117 263 1162 318 1162 c 0
EndSplineSet
EndChar

StartChar: uni2822
Encoding: 10274 10274 356
Width: 1008
Flags: HW
LayerCount: 2
Fore
SplineSet
690 418 m 0
 745 418 790 373 790 318 c 0
 790 263 745 218 690 218 c 0
 635 218 590 263 590 318 c 0
 590 373 635 418 690 418 c 0
318 790 m 0
 373 790 418 745 418 690 c 0
 418 635 373 590 318 590 c 0
 263 590 218 635 218 690 c 0
 218 745 263 790 318 790 c 0
EndSplineSet
EndChar

StartChar: uni2823
Encoding: 10275 10275 357
Width: 1008
Flags: HW
LayerCount: 2
Fore
SplineSet
690 418 m 0
 745 418 790 373 790 318 c 0
 790 263 745 218 690 218 c 0
 635 218 590 263 590 318 c 0
 590 373 635 418 690 418 c 0
318 790 m 0
 373 790 418 745 418 690 c 0
 418 635 373 590 318 590 c 0
 263 590 218 635 218 690 c 0
 218 745 263 790 318 790 c 0
318 1162 m 0
 373 1162 418 1117 418 1062 c 0
 418 1007 373 962 318 962 c 0
 263 962 218 1007 218 1062 c 0
 218 1117 263 1162 318 1162 c 0
EndSplineSet
EndChar

StartChar: uni2824
Encoding: 10276 10276 358
Width: 1008
Flags: HW
LayerCount: 2
Fore
SplineSet
690 418 m 0
 745 418 790 373 790 318 c 0
 790 263 745 218 690 218 c 0
 635 218 590 263 590 318 c 0
 590 373 635 418 690 418 c 0
318 418 m 0
 373 418 418 373 418 318 c 0
 418 263 373 218 318 218 c 0
 263 218 218 263 218 318 c 0
 218 373 263 418 318 418 c 0
EndSplineSet
EndChar

StartChar: uni2825
Encoding: 10277 10277 359
Width: 1008
Flags: HW
LayerCount: 2
Fore
SplineSet
690 418 m 0
 745 418 790 373 790 318 c 0
 790 263 745 218 690 218 c 0
 635 218 590 263 590 318 c 0
 590 373 635 418 690 418 c 0
318 418 m 0
 373 418 418 373 418 318 c 0
 418 263 373 218 318 218 c 0
 263 218 218 263 218 318 c 0
 218 373 263 418 318 418 c 0
318 1162 m 0
 373 1162 418 1117 418 1062 c 0
 418 1007 373 962 318 962 c 0
 263 962 218 1007 218 1062 c 0
 218 1117 263 1162 318 1162 c 0
EndSplineSet
EndChar

StartChar: uni2826
Encoding: 10278 10278 360
Width: 1008
Flags: HW
LayerCount: 2
Fore
SplineSet
690 418 m 0
 745 418 790 373 790 318 c 0
 790 263 745 218 690 218 c 0
 635 218 590 263 590 318 c 0
 590 373 635 418 690 418 c 0
318 418 m 0
 373 418 418 373 418 318 c 0
 418 263 373 218 318 218 c 0
 263 218 218 263 218 318 c 0
 218 373 263 418 318 418 c 0
318 790 m 0
 373 790 418 745 418 690 c 0
 418 635 373 590 318 590 c 0
 263 590 218 635 218 690 c 0
 218 745 263 790 318 790 c 0
EndSplineSet
EndChar

StartChar: uni2827
Encoding: 10279 10279 361
Width: 1008
Flags: HW
LayerCount: 2
Fore
SplineSet
690 418 m 0
 745 418 790 373 790 318 c 0
 790 263 745 218 690 218 c 0
 635 218 590 263 590 318 c 0
 590 373 635 418 690 418 c 0
318 418 m 0
 373 418 418 373 418 318 c 0
 418 263 373 218 318 218 c 0
 263 218 218 263 218 318 c 0
 218 373 263 418 318 418 c 0
318 790 m 0
 373 790 418 745 418 690 c 0
 418 635 373 590 318 590 c 0
 263 590 218 635 218 690 c 0
 218 745 263 790 318 790 c 0
318 1162 m 0
 373 1162 418 1117 418 1062 c 0
 418 1007 373 962 318 962 c 0
 263 962 218 1007 218 1062 c 0
 218 1117 263 1162 318 1162 c 0
EndSplineSet
EndChar

StartChar: uni2828
Encoding: 10280 10280 362
Width: 1008
Flags: HW
LayerCount: 2
Fore
SplineSet
690 418 m 0
 745 418 790 373 790 318 c 0
 790 263 745 218 690 218 c 0
 635 218 590 263 590 318 c 0
 590 373 635 418 690 418 c 0
690 1162 m 0
 745 1162 790 1117 790 1062 c 0
 790 1007 745 962 690 962 c 0
 635 962 590 1007 590 1062 c 0
 590 1117 635 1162 690 1162 c 0
EndSplineSet
EndChar

StartChar: uni2829
Encoding: 10281 10281 363
Width: 1008
Flags: HW
LayerCount: 2
Fore
SplineSet
690 418 m 0
 745 418 790 373 790 318 c 0
 790 263 745 218 690 218 c 0
 635 218 590 263 590 318 c 0
 590 373 635 418 690 418 c 0
690 1162 m 0
 745 1162 790 1117 790 1062 c 0
 790 1007 745 962 690 962 c 0
 635 962 590 1007 590 1062 c 0
 590 1117 635 1162 690 1162 c 0
318 1162 m 0
 373 1162 418 1117 418 1062 c 0
 418 1007 373 962 318 962 c 0
 263 962 218 1007 218 1062 c 0
 218 1117 263 1162 318 1162 c 0
EndSplineSet
EndChar

StartChar: uni282A
Encoding: 10282 10282 364
Width: 1008
Flags: HW
LayerCount: 2
Fore
SplineSet
690 418 m 0
 745 418 790 373 790 318 c 0
 790 263 745 218 690 218 c 0
 635 218 590 263 590 318 c 0
 590 373 635 418 690 418 c 0
690 1162 m 0
 745 1162 790 1117 790 1062 c 0
 790 1007 745 962 690 962 c 0
 635 962 590 1007 590 1062 c 0
 590 1117 635 1162 690 1162 c 0
318 790 m 0
 373 790 418 745 418 690 c 0
 418 635 373 590 318 590 c 0
 263 590 218 635 218 690 c 0
 218 745 263 790 318 790 c 0
EndSplineSet
EndChar

StartChar: uni282B
Encoding: 10283 10283 365
Width: 1008
Flags: HW
LayerCount: 2
Fore
SplineSet
690 418 m 0
 745 418 790 373 790 318 c 0
 790 263 745 218 690 218 c 0
 635 218 590 263 590 318 c 0
 590 373 635 418 690 418 c 0
690 1162 m 0
 745 1162 790 1117 790 1062 c 0
 790 1007 745 962 690 962 c 0
 635 962 590 1007 590 1062 c 0
 590 1117 635 1162 690 1162 c 0
318 790 m 0
 373 790 418 745 418 690 c 0
 418 635 373 590 318 590 c 0
 263 590 218 635 218 690 c 0
 218 745 263 790 318 790 c 0
318 1162 m 0
 373 1162 418 1117 418 1062 c 0
 418 1007 373 962 318 962 c 0
 263 962 218 1007 218 1062 c 0
 218 1117 263 1162 318 1162 c 0
EndSplineSet
EndChar

StartChar: uni282C
Encoding: 10284 10284 366
Width: 1008
Flags: HW
LayerCount: 2
Fore
SplineSet
690 418 m 0
 745 418 790 373 790 318 c 0
 790 263 745 218 690 218 c 0
 635 218 590 263 590 318 c 0
 590 373 635 418 690 418 c 0
690 1162 m 0
 745 1162 790 1117 790 1062 c 0
 790 1007 745 962 690 962 c 0
 635 962 590 1007 590 1062 c 0
 590 1117 635 1162 690 1162 c 0
318 418 m 0
 373 418 418 373 418 318 c 0
 418 263 373 218 318 218 c 0
 263 218 218 263 218 318 c 0
 218 373 263 418 318 418 c 0
EndSplineSet
EndChar

StartChar: uni282D
Encoding: 10285 10285 367
Width: 1008
Flags: HW
LayerCount: 2
Fore
SplineSet
690 418 m 0
 745 418 790 373 790 318 c 0
 790 263 745 218 690 218 c 0
 635 218 590 263 590 318 c 0
 590 373 635 418 690 418 c 0
690 1162 m 0
 745 1162 790 1117 790 1062 c 0
 790 1007 745 962 690 962 c 0
 635 962 590 1007 590 1062 c 0
 590 1117 635 1162 690 1162 c 0
318 418 m 0
 373 418 418 373 418 318 c 0
 418 263 373 218 318 218 c 0
 263 218 218 263 218 318 c 0
 218 373 263 418 318 418 c 0
318 1162 m 0
 373 1162 418 1117 418 1062 c 0
 418 1007 373 962 318 962 c 0
 263 962 218 1007 218 1062 c 0
 218 1117 263 1162 318 1162 c 0
EndSplineSet
EndChar

StartChar: uni282E
Encoding: 10286 10286 368
Width: 1008
Flags: HW
LayerCount: 2
Fore
SplineSet
690 418 m 0
 745 418 790 373 790 318 c 0
 790 263 745 218 690 218 c 0
 635 218 590 263 590 318 c 0
 590 373 635 418 690 418 c 0
690 1162 m 0
 745 1162 790 1117 790 1062 c 0
 790 1007 745 962 690 962 c 0
 635 962 590 1007 590 1062 c 0
 590 1117 635 1162 690 1162 c 0
318 418 m 0
 373 418 418 373 418 318 c 0
 418 263 373 218 318 218 c 0
 263 218 218 263 218 318 c 0
 218 373 263 418 318 418 c 0
318 790 m 0
 373 790 418 745 418 690 c 0
 418 635 373 590 318 590 c 0
 263 590 218 635 218 690 c 0
 218 745 263 790 318 790 c 0
EndSplineSet
EndChar

StartChar: uni282F
Encoding: 10287 10287 369
Width: 1008
Flags: HW
LayerCount: 2
Fore
SplineSet
690 418 m 0
 745 418 790 373 790 318 c 0
 790 263 745 218 690 218 c 0
 635 218 590 263 590 318 c 0
 590 373 635 418 690 418 c 0
690 1162 m 0
 745 1162 790 1117 790 1062 c 0
 790 1007 745 962 690 962 c 0
 635 962 590 1007 590 1062 c 0
 590 1117 635 1162 690 1162 c 0
318 418 m 0
 373 418 418 373 418 318 c 0
 418 263 373 218 318 218 c 0
 263 218 218 263 218 318 c 0
 218 373 263 418 318 418 c 0
318 790 m 0
 373 790 418 745 418 690 c 0
 418 635 373 590 318 590 c 0
 263 590 218 635 218 690 c 0
 218 745 263 790 318 790 c 0
318 1162 m 0
 373 1162 418 1117 418 1062 c 0
 418 1007 373 962 318 962 c 0
 263 962 218 1007 218 1062 c 0
 218 1117 263 1162 318 1162 c 0
EndSplineSet
EndChar

StartChar: uni2830
Encoding: 10288 10288 370
Width: 1008
Flags: HW
LayerCount: 2
Fore
SplineSet
690 418 m 0
 745 418 790 373 790 318 c 0
 790 263 745 218 690 218 c 0
 635 218 590 263 590 318 c 0
 590 373 635 418 690 418 c 0
690 790 m 0
 745 790 790 745 790 690 c 0
 790 635 745 590 690 590 c 0
 635 590 590 635 590 690 c 0
 590 745 635 790 690 790 c 0
EndSplineSet
EndChar

StartChar: uni2831
Encoding: 10289 10289 371
Width: 1008
Flags: HW
LayerCount: 2
Fore
SplineSet
690 418 m 0
 745 418 790 373 790 318 c 0
 790 263 745 218 690 218 c 0
 635 218 590 263 590 318 c 0
 590 373 635 418 690 418 c 0
690 790 m 0
 745 790 790 745 790 690 c 0
 790 635 745 590 690 590 c 0
 635 590 590 635 590 690 c 0
 590 745 635 790 690 790 c 0
318 1162 m 0
 373 1162 418 1117 418 1062 c 0
 418 1007 373 962 318 962 c 0
 263 962 218 1007 218 1062 c 0
 218 1117 263 1162 318 1162 c 0
EndSplineSet
EndChar

StartChar: uni2832
Encoding: 10290 10290 372
Width: 1008
Flags: HW
LayerCount: 2
Fore
SplineSet
690 418 m 0
 745 418 790 373 790 318 c 0
 790 263 745 218 690 218 c 0
 635 218 590 263 590 318 c 0
 590 373 635 418 690 418 c 0
690 790 m 0
 745 790 790 745 790 690 c 0
 790 635 745 590 690 590 c 0
 635 590 590 635 590 690 c 0
 590 745 635 790 690 790 c 0
318 790 m 0
 373 790 418 745 418 690 c 0
 418 635 373 590 318 590 c 0
 263 590 218 635 218 690 c 0
 218 745 263 790 318 790 c 0
EndSplineSet
EndChar

StartChar: uni2833
Encoding: 10291 10291 373
Width: 1008
Flags: HW
LayerCount: 2
Fore
SplineSet
690 418 m 0
 745 418 790 373 790 318 c 0
 790 263 745 218 690 218 c 0
 635 218 590 263 590 318 c 0
 590 373 635 418 690 418 c 0
690 790 m 0
 745 790 790 745 790 690 c 0
 790 635 745 590 690 590 c 0
 635 590 590 635 590 690 c 0
 590 745 635 790 690 790 c 0
318 790 m 0
 373 790 418 745 418 690 c 0
 418 635 373 590 318 590 c 0
 263 590 218 635 218 690 c 0
 218 745 263 790 318 790 c 0
318 1162 m 0
 373 1162 418 1117 418 1062 c 0
 418 1007 373 962 318 962 c 0
 263 962 218 1007 218 1062 c 0
 218 1117 263 1162 318 1162 c 0
EndSplineSet
EndChar

StartChar: uni2834
Encoding: 10292 10292 374
Width: 1008
Flags: HW
LayerCount: 2
Fore
SplineSet
690 418 m 0
 745 418 790 373 790 318 c 0
 790 263 745 218 690 218 c 0
 635 218 590 263 590 318 c 0
 590 373 635 418 690 418 c 0
690 790 m 0
 745 790 790 745 790 690 c 0
 790 635 745 590 690 590 c 0
 635 590 590 635 590 690 c 0
 590 745 635 790 690 790 c 0
318 418 m 0
 373 418 418 373 418 318 c 0
 418 263 373 218 318 218 c 0
 263 218 218 263 218 318 c 0
 218 373 263 418 318 418 c 0
EndSplineSet
EndChar

StartChar: uni2835
Encoding: 10293 10293 375
Width: 1008
Flags: HW
LayerCount: 2
Fore
SplineSet
690 418 m 0
 745 418 790 373 790 318 c 0
 790 263 745 218 690 218 c 0
 635 218 590 263 590 318 c 0
 590 373 635 418 690 418 c 0
690 790 m 0
 745 790 790 745 790 690 c 0
 790 635 745 590 690 590 c 0
 635 590 590 635 590 690 c 0
 590 745 635 790 690 790 c 0
318 418 m 0
 373 418 418 373 418 318 c 0
 418 263 373 218 318 218 c 0
 263 218 218 263 218 318 c 0
 218 373 263 418 318 418 c 0
318 1162 m 0
 373 1162 418 1117 418 1062 c 0
 418 1007 373 962 318 962 c 0
 263 962 218 1007 218 1062 c 0
 218 1117 263 1162 318 1162 c 0
EndSplineSet
EndChar

StartChar: uni2836
Encoding: 10294 10294 376
Width: 1008
Flags: HW
LayerCount: 2
Fore
SplineSet
690 418 m 0
 745 418 790 373 790 318 c 0
 790 263 745 218 690 218 c 0
 635 218 590 263 590 318 c 0
 590 373 635 418 690 418 c 0
690 790 m 0
 745 790 790 745 790 690 c 0
 790 635 745 590 690 590 c 0
 635 590 590 635 590 690 c 0
 590 745 635 790 690 790 c 0
318 418 m 0
 373 418 418 373 418 318 c 0
 418 263 373 218 318 218 c 0
 263 218 218 263 218 318 c 0
 218 373 263 418 318 418 c 0
318 790 m 0
 373 790 418 745 418 690 c 0
 418 635 373 590 318 590 c 0
 263 590 218 635 218 690 c 0
 218 745 263 790 318 790 c 0
EndSplineSet
EndChar

StartChar: uni2837
Encoding: 10295 10295 377
Width: 1008
Flags: HW
LayerCount: 2
Fore
SplineSet
690 418 m 0
 745 418 790 373 790 318 c 0
 790 263 745 218 690 218 c 0
 635 218 590 263 590 318 c 0
 590 373 635 418 690 418 c 0
690 790 m 0
 745 790 790 745 790 690 c 0
 790 635 745 590 690 590 c 0
 635 590 590 635 590 690 c 0
 590 745 635 790 690 790 c 0
318 418 m 0
 373 418 418 373 418 318 c 0
 418 263 373 218 318 218 c 0
 263 218 218 263 218 318 c 0
 218 373 263 418 318 418 c 0
318 790 m 0
 373 790 418 745 418 690 c 0
 418 635 373 590 318 590 c 0
 263 590 218 635 218 690 c 0
 218 745 263 790 318 790 c 0
318 1162 m 0
 373 1162 418 1117 418 1062 c 0
 418 1007 373 962 318 962 c 0
 263 962 218 1007 218 1062 c 0
 218 1117 263 1162 318 1162 c 0
EndSplineSet
EndChar

StartChar: uni2838
Encoding: 10296 10296 378
Width: 1008
Flags: HW
LayerCount: 2
Fore
SplineSet
690 418 m 0
 745 418 790 373 790 318 c 0
 790 263 745 218 690 218 c 0
 635 218 590 263 590 318 c 0
 590 373 635 418 690 418 c 0
690 790 m 0
 745 790 790 745 790 690 c 0
 790 635 745 590 690 590 c 0
 635 590 590 635 590 690 c 0
 590 745 635 790 690 790 c 0
690 1162 m 0
 745 1162 790 1117 790 1062 c 0
 790 1007 745 962 690 962 c 0
 635 962 590 1007 590 1062 c 0
 590 1117 635 1162 690 1162 c 0
EndSplineSet
EndChar

StartChar: uni2839
Encoding: 10297 10297 379
Width: 1008
Flags: HW
LayerCount: 2
Fore
SplineSet
690 418 m 0
 745 418 790 373 790 318 c 0
 790 263 745 218 690 218 c 0
 635 218 590 263 590 318 c 0
 590 373 635 418 690 418 c 0
690 790 m 0
 745 790 790 745 790 690 c 0
 790 635 745 590 690 590 c 0
 635 590 590 635 590 690 c 0
 590 745 635 790 690 790 c 0
690 1162 m 0
 745 1162 790 1117 790 1062 c 0
 790 1007 745 962 690 962 c 0
 635 962 590 1007 590 1062 c 0
 590 1117 635 1162 690 1162 c 0
318 1162 m 0
 373 1162 418 1117 418 1062 c 0
 418 1007 373 962 318 962 c 0
 263 962 218 1007 218 1062 c 0
 218 1117 263 1162 318 1162 c 0
EndSplineSet
EndChar

StartChar: uni283A
Encoding: 10298 10298 380
Width: 1008
Flags: HW
LayerCount: 2
Fore
SplineSet
690 418 m 0
 745 418 790 373 790 318 c 0
 790 263 745 218 690 218 c 0
 635 218 590 263 590 318 c 0
 590 373 635 418 690 418 c 0
690 790 m 0
 745 790 790 745 790 690 c 0
 790 635 745 590 690 590 c 0
 635 590 590 635 590 690 c 0
 590 745 635 790 690 790 c 0
690 1162 m 0
 745 1162 790 1117 790 1062 c 0
 790 1007 745 962 690 962 c 0
 635 962 590 1007 590 1062 c 0
 590 1117 635 1162 690 1162 c 0
318 790 m 0
 373 790 418 745 418 690 c 0
 418 635 373 590 318 590 c 0
 263 590 218 635 218 690 c 0
 218 745 263 790 318 790 c 0
EndSplineSet
EndChar

StartChar: uni283B
Encoding: 10299 10299 381
Width: 1008
Flags: HW
LayerCount: 2
Fore
SplineSet
690 418 m 0
 745 418 790 373 790 318 c 0
 790 263 745 218 690 218 c 0
 635 218 590 263 590 318 c 0
 590 373 635 418 690 418 c 0
690 790 m 0
 745 790 790 745 790 690 c 0
 790 635 745 590 690 590 c 0
 635 590 590 635 590 690 c 0
 590 745 635 790 690 790 c 0
690 1162 m 0
 745 1162 790 1117 790 1062 c 0
 790 1007 745 962 690 962 c 0
 635 962 590 1007 590 1062 c 0
 590 1117 635 1162 690 1162 c 0
318 790 m 0
 373 790 418 745 418 690 c 0
 418 635 373 590 318 590 c 0
 263 590 218 635 218 690 c 0
 218 745 263 790 318 790 c 0
318 1162 m 0
 373 1162 418 1117 418 1062 c 0
 418 1007 373 962 318 962 c 0
 263 962 218 1007 218 1062 c 0
 218 1117 263 1162 318 1162 c 0
EndSplineSet
EndChar

StartChar: uni283C
Encoding: 10300 10300 382
Width: 1008
Flags: HW
LayerCount: 2
Fore
SplineSet
690 418 m 0
 745 418 790 373 790 318 c 0
 790 263 745 218 690 218 c 0
 635 218 590 263 590 318 c 0
 590 373 635 418 690 418 c 0
690 790 m 0
 745 790 790 745 790 690 c 0
 790 635 745 590 690 590 c 0
 635 590 590 635 590 690 c 0
 590 745 635 790 690 790 c 0
690 1162 m 0
 745 1162 790 1117 790 1062 c 0
 790 1007 745 962 690 962 c 0
 635 962 590 1007 590 1062 c 0
 590 1117 635 1162 690 1162 c 0
318 418 m 0
 373 418 418 373 418 318 c 0
 418 263 373 218 318 218 c 0
 263 218 218 263 218 318 c 0
 218 373 263 418 318 418 c 0
EndSplineSet
EndChar

StartChar: uni283D
Encoding: 10301 10301 383
Width: 1008
Flags: HW
LayerCount: 2
Fore
SplineSet
690 418 m 0
 745 418 790 373 790 318 c 0
 790 263 745 218 690 218 c 0
 635 218 590 263 590 318 c 0
 590 373 635 418 690 418 c 0
690 790 m 0
 745 790 790 745 790 690 c 0
 790 635 745 590 690 590 c 0
 635 590 590 635 590 690 c 0
 590 745 635 790 690 790 c 0
690 1162 m 0
 745 1162 790 1117 790 1062 c 0
 790 1007 745 962 690 962 c 0
 635 962 590 1007 590 1062 c 0
 590 1117 635 1162 690 1162 c 0
318 418 m 0
 373 418 418 373 418 318 c 0
 418 263 373 218 318 218 c 0
 263 218 218 263 218 318 c 0
 218 373 263 418 318 418 c 0
318 1162 m 0
 373 1162 418 1117 418 1062 c 0
 418 1007 373 962 318 962 c 0
 263 962 218 1007 218 1062 c 0
 218 1117 263 1162 318 1162 c 0
EndSplineSet
EndChar

StartChar: uni283E
Encoding: 10302 10302 384
Width: 1008
Flags: HW
LayerCount: 2
Fore
SplineSet
690 418 m 0
 745 418 790 373 790 318 c 0
 790 263 745 218 690 218 c 0
 635 218 590 263 590 318 c 0
 590 373 635 418 690 418 c 0
690 790 m 0
 745 790 790 745 790 690 c 0
 790 635 745 590 690 590 c 0
 635 590 590 635 590 690 c 0
 590 745 635 790 690 790 c 0
690 1162 m 0
 745 1162 790 1117 790 1062 c 0
 790 1007 745 962 690 962 c 0
 635 962 590 1007 590 1062 c 0
 590 1117 635 1162 690 1162 c 0
318 418 m 0
 373 418 418 373 418 318 c 0
 418 263 373 218 318 218 c 0
 263 218 218 263 218 318 c 0
 218 373 263 418 318 418 c 0
318 790 m 0
 373 790 418 745 418 690 c 0
 418 635 373 590 318 590 c 0
 263 590 218 635 218 690 c 0
 218 745 263 790 318 790 c 0
EndSplineSet
EndChar

StartChar: uni283F
Encoding: 10303 10303 385
Width: 1008
Flags: HW
LayerCount: 2
Fore
SplineSet
690 418 m 0
 745 418 790 373 790 318 c 0
 790 263 745 218 690 218 c 0
 635 218 590 263 590 318 c 0
 590 373 635 418 690 418 c 0
690 790 m 0
 745 790 790 745 790 690 c 0
 790 635 745 590 690 590 c 0
 635 590 590 635 590 690 c 0
 590 745 635 790 690 790 c 0
690 1162 m 0
 745 1162 790 1117 790 1062 c 0
 790 1007 745 962 690 962 c 0
 635 962 590 1007 590 1062 c 0
 590 1117 635 1162 690 1162 c 0
318 418 m 0
 373 418 418 373 418 318 c 0
 418 263 373 218 318 218 c 0
 263 218 218 263 218 318 c 0
 218 373 263 418 318 418 c 0
318 790 m 0
 373 790 418 745 418 690 c 0
 418 635 373 590 318 590 c 0
 263 590 218 635 218 690 c 0
 218 745 263 790 318 790 c 0
318 1162 m 0
 373 1162 418 1117 418 1062 c 0
 418 1007 373 962 318 962 c 0
 263 962 218 1007 218 1062 c 0
 218 1117 263 1162 318 1162 c 0
EndSplineSet
EndChar

StartChar: uni2840
Encoding: 10304 10304 386
Width: 1008
Flags: HW
LayerCount: 2
Fore
SplineSet
318 46 m 0
 373 46 418 1 418 -54 c 0
 418 -109 373 -154 318 -154 c 0
 263 -154 218 -109 218 -54 c 0
 218 1 263 46 318 46 c 0
EndSplineSet
EndChar

StartChar: uni2841
Encoding: 10305 10305 387
Width: 1008
Flags: HW
LayerCount: 2
Fore
SplineSet
318 46 m 0
 373 46 418 1 418 -54 c 0
 418 -109 373 -154 318 -154 c 0
 263 -154 218 -109 218 -54 c 0
 218 1 263 46 318 46 c 0
318 1162 m 0
 373 1162 418 1117 418 1062 c 0
 418 1007 373 962 318 962 c 0
 263 962 218 1007 218 1062 c 0
 218 1117 263 1162 318 1162 c 0
EndSplineSet
EndChar

StartChar: uni2842
Encoding: 10306 10306 388
Width: 1008
Flags: HW
LayerCount: 2
Fore
SplineSet
318 46 m 0
 373 46 418 1 418 -54 c 0
 418 -109 373 -154 318 -154 c 0
 263 -154 218 -109 218 -54 c 0
 218 1 263 46 318 46 c 0
318 790 m 0
 373 790 418 745 418 690 c 0
 418 635 373 590 318 590 c 0
 263 590 218 635 218 690 c 0
 218 745 263 790 318 790 c 0
EndSplineSet
EndChar

StartChar: uni2843
Encoding: 10307 10307 389
Width: 1008
Flags: HW
LayerCount: 2
Fore
SplineSet
318 46 m 0
 373 46 418 1 418 -54 c 0
 418 -109 373 -154 318 -154 c 0
 263 -154 218 -109 218 -54 c 0
 218 1 263 46 318 46 c 0
318 790 m 0
 373 790 418 745 418 690 c 0
 418 635 373 590 318 590 c 0
 263 590 218 635 218 690 c 0
 218 745 263 790 318 790 c 0
318 1162 m 0
 373 1162 418 1117 418 1062 c 0
 418 1007 373 962 318 962 c 0
 263 962 218 1007 218 1062 c 0
 218 1117 263 1162 318 1162 c 0
EndSplineSet
EndChar

StartChar: uni2844
Encoding: 10308 10308 390
Width: 1008
Flags: HW
LayerCount: 2
Fore
SplineSet
318 46 m 0
 373 46 418 1 418 -54 c 0
 418 -109 373 -154 318 -154 c 0
 263 -154 218 -109 218 -54 c 0
 218 1 263 46 318 46 c 0
318 418 m 0
 373 418 418 373 418 318 c 0
 418 263 373 218 318 218 c 0
 263 218 218 263 218 318 c 0
 218 373 263 418 318 418 c 0
EndSplineSet
EndChar

StartChar: uni2845
Encoding: 10309 10309 391
Width: 1008
Flags: HW
LayerCount: 2
Fore
SplineSet
318 46 m 0
 373 46 418 1 418 -54 c 0
 418 -109 373 -154 318 -154 c 0
 263 -154 218 -109 218 -54 c 0
 218 1 263 46 318 46 c 0
318 418 m 0
 373 418 418 373 418 318 c 0
 418 263 373 218 318 218 c 0
 263 218 218 263 218 318 c 0
 218 373 263 418 318 418 c 0
318 1162 m 0
 373 1162 418 1117 418 1062 c 0
 418 1007 373 962 318 962 c 0
 263 962 218 1007 218 1062 c 0
 218 1117 263 1162 318 1162 c 0
EndSplineSet
EndChar

StartChar: uni2846
Encoding: 10310 10310 392
Width: 1008
Flags: HW
LayerCount: 2
Fore
SplineSet
318 46 m 0
 373 46 418 1 418 -54 c 0
 418 -109 373 -154 318 -154 c 0
 263 -154 218 -109 218 -54 c 0
 218 1 263 46 318 46 c 0
318 418 m 0
 373 418 418 373 418 318 c 0
 418 263 373 218 318 218 c 0
 263 218 218 263 218 318 c 0
 218 373 263 418 318 418 c 0
318 790 m 0
 373 790 418 745 418 690 c 0
 418 635 373 590 318 590 c 0
 263 590 218 635 218 690 c 0
 218 745 263 790 318 790 c 0
EndSplineSet
EndChar

StartChar: uni2847
Encoding: 10311 10311 393
Width: 1008
Flags: HW
LayerCount: 2
Fore
SplineSet
318 46 m 0
 373 46 418 1 418 -54 c 0
 418 -109 373 -154 318 -154 c 0
 263 -154 218 -109 218 -54 c 0
 218 1 263 46 318 46 c 0
318 418 m 0
 373 418 418 373 418 318 c 0
 418 263 373 218 318 218 c 0
 263 218 218 263 218 318 c 0
 218 373 263 418 318 418 c 0
318 790 m 0
 373 790 418 745 418 690 c 0
 418 635 373 590 318 590 c 0
 263 590 218 635 218 690 c 0
 218 745 263 790 318 790 c 0
318 1162 m 0
 373 1162 418 1117 418 1062 c 0
 418 1007 373 962 318 962 c 0
 263 962 218 1007 218 1062 c 0
 218 1117 263 1162 318 1162 c 0
EndSplineSet
EndChar

StartChar: uni2848
Encoding: 10312 10312 394
Width: 1008
Flags: HW
LayerCount: 2
Fore
SplineSet
318 46 m 0
 373 46 418 1 418 -54 c 0
 418 -109 373 -154 318 -154 c 0
 263 -154 218 -109 218 -54 c 0
 218 1 263 46 318 46 c 0
690 1162 m 0
 745 1162 790 1117 790 1062 c 0
 790 1007 745 962 690 962 c 0
 635 962 590 1007 590 1062 c 0
 590 1117 635 1162 690 1162 c 0
EndSplineSet
EndChar

StartChar: uni2849
Encoding: 10313 10313 395
Width: 1008
Flags: HW
LayerCount: 2
Fore
SplineSet
318 46 m 0
 373 46 418 1 418 -54 c 0
 418 -109 373 -154 318 -154 c 0
 263 -154 218 -109 218 -54 c 0
 218 1 263 46 318 46 c 0
690 1162 m 0
 745 1162 790 1117 790 1062 c 0
 790 1007 745 962 690 962 c 0
 635 962 590 1007 590 1062 c 0
 590 1117 635 1162 690 1162 c 0
318 1162 m 0
 373 1162 418 1117 418 1062 c 0
 418 1007 373 962 318 962 c 0
 263 962 218 1007 218 1062 c 0
 218 1117 263 1162 318 1162 c 0
EndSplineSet
EndChar

StartChar: uni284A
Encoding: 10314 10314 396
Width: 1008
Flags: HW
LayerCount: 2
Fore
SplineSet
318 46 m 0
 373 46 418 1 418 -54 c 0
 418 -109 373 -154 318 -154 c 0
 263 -154 218 -109 218 -54 c 0
 218 1 263 46 318 46 c 0
690 1162 m 0
 745 1162 790 1117 790 1062 c 0
 790 1007 745 962 690 962 c 0
 635 962 590 1007 590 1062 c 0
 590 1117 635 1162 690 1162 c 0
318 790 m 0
 373 790 418 745 418 690 c 0
 418 635 373 590 318 590 c 0
 263 590 218 635 218 690 c 0
 218 745 263 790 318 790 c 0
EndSplineSet
EndChar

StartChar: uni284B
Encoding: 10315 10315 397
Width: 1008
Flags: HW
LayerCount: 2
Fore
SplineSet
318 46 m 0
 373 46 418 1 418 -54 c 0
 418 -109 373 -154 318 -154 c 0
 263 -154 218 -109 218 -54 c 0
 218 1 263 46 318 46 c 0
690 1162 m 0
 745 1162 790 1117 790 1062 c 0
 790 1007 745 962 690 962 c 0
 635 962 590 1007 590 1062 c 0
 590 1117 635 1162 690 1162 c 0
318 790 m 0
 373 790 418 745 418 690 c 0
 418 635 373 590 318 590 c 0
 263 590 218 635 218 690 c 0
 218 745 263 790 318 790 c 0
318 1162 m 0
 373 1162 418 1117 418 1062 c 0
 418 1007 373 962 318 962 c 0
 263 962 218 1007 218 1062 c 0
 218 1117 263 1162 318 1162 c 0
EndSplineSet
EndChar

StartChar: uni284C
Encoding: 10316 10316 398
Width: 1008
Flags: HW
LayerCount: 2
Fore
SplineSet
318 46 m 0
 373 46 418 1 418 -54 c 0
 418 -109 373 -154 318 -154 c 0
 263 -154 218 -109 218 -54 c 0
 218 1 263 46 318 46 c 0
690 1162 m 0
 745 1162 790 1117 790 1062 c 0
 790 1007 745 962 690 962 c 0
 635 962 590 1007 590 1062 c 0
 590 1117 635 1162 690 1162 c 0
318 418 m 0
 373 418 418 373 418 318 c 0
 418 263 373 218 318 218 c 0
 263 218 218 263 218 318 c 0
 218 373 263 418 318 418 c 0
EndSplineSet
EndChar

StartChar: uni284D
Encoding: 10317 10317 399
Width: 1008
Flags: HW
LayerCount: 2
Fore
SplineSet
318 46 m 0
 373 46 418 1 418 -54 c 0
 418 -109 373 -154 318 -154 c 0
 263 -154 218 -109 218 -54 c 0
 218 1 263 46 318 46 c 0
690 1162 m 0
 745 1162 790 1117 790 1062 c 0
 790 1007 745 962 690 962 c 0
 635 962 590 1007 590 1062 c 0
 590 1117 635 1162 690 1162 c 0
318 418 m 0
 373 418 418 373 418 318 c 0
 418 263 373 218 318 218 c 0
 263 218 218 263 218 318 c 0
 218 373 263 418 318 418 c 0
318 1162 m 0
 373 1162 418 1117 418 1062 c 0
 418 1007 373 962 318 962 c 0
 263 962 218 1007 218 1062 c 0
 218 1117 263 1162 318 1162 c 0
EndSplineSet
EndChar

StartChar: uni284E
Encoding: 10318 10318 400
Width: 1008
Flags: HW
LayerCount: 2
Fore
SplineSet
318 46 m 0
 373 46 418 1 418 -54 c 0
 418 -109 373 -154 318 -154 c 0
 263 -154 218 -109 218 -54 c 0
 218 1 263 46 318 46 c 0
690 1162 m 0
 745 1162 790 1117 790 1062 c 0
 790 1007 745 962 690 962 c 0
 635 962 590 1007 590 1062 c 0
 590 1117 635 1162 690 1162 c 0
318 418 m 0
 373 418 418 373 418 318 c 0
 418 263 373 218 318 218 c 0
 263 218 218 263 218 318 c 0
 218 373 263 418 318 418 c 0
318 790 m 0
 373 790 418 745 418 690 c 0
 418 635 373 590 318 590 c 0
 263 590 218 635 218 690 c 0
 218 745 263 790 318 790 c 0
EndSplineSet
EndChar

StartChar: uni284F
Encoding: 10319 10319 401
Width: 1008
Flags: HW
LayerCount: 2
Fore
SplineSet
318 46 m 0
 373 46 418 1 418 -54 c 0
 418 -109 373 -154 318 -154 c 0
 263 -154 218 -109 218 -54 c 0
 218 1 263 46 318 46 c 0
690 1162 m 0
 745 1162 790 1117 790 1062 c 0
 790 1007 745 962 690 962 c 0
 635 962 590 1007 590 1062 c 0
 590 1117 635 1162 690 1162 c 0
318 418 m 0
 373 418 418 373 418 318 c 0
 418 263 373 218 318 218 c 0
 263 218 218 263 218 318 c 0
 218 373 263 418 318 418 c 0
318 790 m 0
 373 790 418 745 418 690 c 0
 418 635 373 590 318 590 c 0
 263 590 218 635 218 690 c 0
 218 745 263 790 318 790 c 0
318 1162 m 0
 373 1162 418 1117 418 1062 c 0
 418 1007 373 962 318 962 c 0
 263 962 218 1007 218 1062 c 0
 218 1117 263 1162 318 1162 c 0
EndSplineSet
EndChar

StartChar: uni2850
Encoding: 10320 10320 402
Width: 1008
Flags: HW
LayerCount: 2
Fore
SplineSet
318 46 m 0
 373 46 418 1 418 -54 c 0
 418 -109 373 -154 318 -154 c 0
 263 -154 218 -109 218 -54 c 0
 218 1 263 46 318 46 c 0
690 790 m 0
 745 790 790 745 790 690 c 0
 790 635 745 590 690 590 c 0
 635 590 590 635 590 690 c 0
 590 745 635 790 690 790 c 0
EndSplineSet
EndChar

StartChar: uni2851
Encoding: 10321 10321 403
Width: 1008
Flags: HW
LayerCount: 2
Fore
SplineSet
318 46 m 0
 373 46 418 1 418 -54 c 0
 418 -109 373 -154 318 -154 c 0
 263 -154 218 -109 218 -54 c 0
 218 1 263 46 318 46 c 0
690 790 m 0
 745 790 790 745 790 690 c 0
 790 635 745 590 690 590 c 0
 635 590 590 635 590 690 c 0
 590 745 635 790 690 790 c 0
318 1162 m 0
 373 1162 418 1117 418 1062 c 0
 418 1007 373 962 318 962 c 0
 263 962 218 1007 218 1062 c 0
 218 1117 263 1162 318 1162 c 0
EndSplineSet
EndChar

StartChar: uni2852
Encoding: 10322 10322 404
Width: 1008
Flags: HW
LayerCount: 2
Fore
SplineSet
318 46 m 0
 373 46 418 1 418 -54 c 0
 418 -109 373 -154 318 -154 c 0
 263 -154 218 -109 218 -54 c 0
 218 1 263 46 318 46 c 0
690 790 m 0
 745 790 790 745 790 690 c 0
 790 635 745 590 690 590 c 0
 635 590 590 635 590 690 c 0
 590 745 635 790 690 790 c 0
318 790 m 0
 373 790 418 745 418 690 c 0
 418 635 373 590 318 590 c 0
 263 590 218 635 218 690 c 0
 218 745 263 790 318 790 c 0
EndSplineSet
EndChar

StartChar: uni2853
Encoding: 10323 10323 405
Width: 1008
Flags: HW
LayerCount: 2
Fore
SplineSet
318 46 m 0
 373 46 418 1 418 -54 c 0
 418 -109 373 -154 318 -154 c 0
 263 -154 218 -109 218 -54 c 0
 218 1 263 46 318 46 c 0
690 790 m 0
 745 790 790 745 790 690 c 0
 790 635 745 590 690 590 c 0
 635 590 590 635 590 690 c 0
 590 745 635 790 690 790 c 0
318 790 m 0
 373 790 418 745 418 690 c 0
 418 635 373 590 318 590 c 0
 263 590 218 635 218 690 c 0
 218 745 263 790 318 790 c 0
318 1162 m 0
 373 1162 418 1117 418 1062 c 0
 418 1007 373 962 318 962 c 0
 263 962 218 1007 218 1062 c 0
 218 1117 263 1162 318 1162 c 0
EndSplineSet
EndChar

StartChar: uni2854
Encoding: 10324 10324 406
Width: 1008
Flags: HW
LayerCount: 2
Fore
SplineSet
318 46 m 0
 373 46 418 1 418 -54 c 0
 418 -109 373 -154 318 -154 c 0
 263 -154 218 -109 218 -54 c 0
 218 1 263 46 318 46 c 0
690 790 m 0
 745 790 790 745 790 690 c 0
 790 635 745 590 690 590 c 0
 635 590 590 635 590 690 c 0
 590 745 635 790 690 790 c 0
318 418 m 0
 373 418 418 373 418 318 c 0
 418 263 373 218 318 218 c 0
 263 218 218 263 218 318 c 0
 218 373 263 418 318 418 c 0
EndSplineSet
EndChar

StartChar: uni2855
Encoding: 10325 10325 407
Width: 1008
Flags: HW
LayerCount: 2
Fore
SplineSet
318 46 m 0
 373 46 418 1 418 -54 c 0
 418 -109 373 -154 318 -154 c 0
 263 -154 218 -109 218 -54 c 0
 218 1 263 46 318 46 c 0
690 790 m 0
 745 790 790 745 790 690 c 0
 790 635 745 590 690 590 c 0
 635 590 590 635 590 690 c 0
 590 745 635 790 690 790 c 0
318 418 m 0
 373 418 418 373 418 318 c 0
 418 263 373 218 318 218 c 0
 263 218 218 263 218 318 c 0
 218 373 263 418 318 418 c 0
318 1162 m 0
 373 1162 418 1117 418 1062 c 0
 418 1007 373 962 318 962 c 0
 263 962 218 1007 218 1062 c 0
 218 1117 263 1162 318 1162 c 0
EndSplineSet
EndChar

StartChar: uni2856
Encoding: 10326 10326 408
Width: 1008
Flags: HW
LayerCount: 2
Fore
SplineSet
318 46 m 0
 373 46 418 1 418 -54 c 0
 418 -109 373 -154 318 -154 c 0
 263 -154 218 -109 218 -54 c 0
 218 1 263 46 318 46 c 0
690 790 m 0
 745 790 790 745 790 690 c 0
 790 635 745 590 690 590 c 0
 635 590 590 635 590 690 c 0
 590 745 635 790 690 790 c 0
318 418 m 0
 373 418 418 373 418 318 c 0
 418 263 373 218 318 218 c 0
 263 218 218 263 218 318 c 0
 218 373 263 418 318 418 c 0
318 790 m 0
 373 790 418 745 418 690 c 0
 418 635 373 590 318 590 c 0
 263 590 218 635 218 690 c 0
 218 745 263 790 318 790 c 0
EndSplineSet
EndChar

StartChar: uni2857
Encoding: 10327 10327 409
Width: 1008
Flags: HW
LayerCount: 2
Fore
SplineSet
318 46 m 0
 373 46 418 1 418 -54 c 0
 418 -109 373 -154 318 -154 c 0
 263 -154 218 -109 218 -54 c 0
 218 1 263 46 318 46 c 0
690 790 m 0
 745 790 790 745 790 690 c 0
 790 635 745 590 690 590 c 0
 635 590 590 635 590 690 c 0
 590 745 635 790 690 790 c 0
318 418 m 0
 373 418 418 373 418 318 c 0
 418 263 373 218 318 218 c 0
 263 218 218 263 218 318 c 0
 218 373 263 418 318 418 c 0
318 790 m 0
 373 790 418 745 418 690 c 0
 418 635 373 590 318 590 c 0
 263 590 218 635 218 690 c 0
 218 745 263 790 318 790 c 0
318 1162 m 0
 373 1162 418 1117 418 1062 c 0
 418 1007 373 962 318 962 c 0
 263 962 218 1007 218 1062 c 0
 218 1117 263 1162 318 1162 c 0
EndSplineSet
EndChar

StartChar: uni2858
Encoding: 10328 10328 410
Width: 1008
Flags: HW
LayerCount: 2
Fore
SplineSet
318 46 m 0
 373 46 418 1 418 -54 c 0
 418 -109 373 -154 318 -154 c 0
 263 -154 218 -109 218 -54 c 0
 218 1 263 46 318 46 c 0
690 790 m 0
 745 790 790 745 790 690 c 0
 790 635 745 590 690 590 c 0
 635 590 590 635 590 690 c 0
 590 745 635 790 690 790 c 0
690 1162 m 0
 745 1162 790 1117 790 1062 c 0
 790 1007 745 962 690 962 c 0
 635 962 590 1007 590 1062 c 0
 590 1117 635 1162 690 1162 c 0
EndSplineSet
EndChar

StartChar: uni2859
Encoding: 10329 10329 411
Width: 1008
Flags: HW
LayerCount: 2
Fore
SplineSet
318 46 m 0
 373 46 418 1 418 -54 c 0
 418 -109 373 -154 318 -154 c 0
 263 -154 218 -109 218 -54 c 0
 218 1 263 46 318 46 c 0
690 790 m 0
 745 790 790 745 790 690 c 0
 790 635 745 590 690 590 c 0
 635 590 590 635 590 690 c 0
 590 745 635 790 690 790 c 0
690 1162 m 0
 745 1162 790 1117 790 1062 c 0
 790 1007 745 962 690 962 c 0
 635 962 590 1007 590 1062 c 0
 590 1117 635 1162 690 1162 c 0
318 1162 m 0
 373 1162 418 1117 418 1062 c 0
 418 1007 373 962 318 962 c 0
 263 962 218 1007 218 1062 c 0
 218 1117 263 1162 318 1162 c 0
EndSplineSet
EndChar

StartChar: uni285A
Encoding: 10330 10330 412
Width: 1008
Flags: HW
LayerCount: 2
Fore
SplineSet
318 46 m 0
 373 46 418 1 418 -54 c 0
 418 -109 373 -154 318 -154 c 0
 263 -154 218 -109 218 -54 c 0
 218 1 263 46 318 46 c 0
690 790 m 0
 745 790 790 745 790 690 c 0
 790 635 745 590 690 590 c 0
 635 590 590 635 590 690 c 0
 590 745 635 790 690 790 c 0
690 1162 m 0
 745 1162 790 1117 790 1062 c 0
 790 1007 745 962 690 962 c 0
 635 962 590 1007 590 1062 c 0
 590 1117 635 1162 690 1162 c 0
318 790 m 0
 373 790 418 745 418 690 c 0
 418 635 373 590 318 590 c 0
 263 590 218 635 218 690 c 0
 218 745 263 790 318 790 c 0
EndSplineSet
EndChar

StartChar: uni285B
Encoding: 10331 10331 413
Width: 1008
Flags: HW
LayerCount: 2
Fore
SplineSet
318 46 m 0
 373 46 418 1 418 -54 c 0
 418 -109 373 -154 318 -154 c 0
 263 -154 218 -109 218 -54 c 0
 218 1 263 46 318 46 c 0
690 790 m 0
 745 790 790 745 790 690 c 0
 790 635 745 590 690 590 c 0
 635 590 590 635 590 690 c 0
 590 745 635 790 690 790 c 0
690 1162 m 0
 745 1162 790 1117 790 1062 c 0
 790 1007 745 962 690 962 c 0
 635 962 590 1007 590 1062 c 0
 590 1117 635 1162 690 1162 c 0
318 790 m 0
 373 790 418 745 418 690 c 0
 418 635 373 590 318 590 c 0
 263 590 218 635 218 690 c 0
 218 745 263 790 318 790 c 0
318 1162 m 0
 373 1162 418 1117 418 1062 c 0
 418 1007 373 962 318 962 c 0
 263 962 218 1007 218 1062 c 0
 218 1117 263 1162 318 1162 c 0
EndSplineSet
EndChar

StartChar: uni285C
Encoding: 10332 10332 414
Width: 1008
Flags: HW
LayerCount: 2
Fore
SplineSet
318 46 m 0
 373 46 418 1 418 -54 c 0
 418 -109 373 -154 318 -154 c 0
 263 -154 218 -109 218 -54 c 0
 218 1 263 46 318 46 c 0
690 790 m 0
 745 790 790 745 790 690 c 0
 790 635 745 590 690 590 c 0
 635 590 590 635 590 690 c 0
 590 745 635 790 690 790 c 0
690 1162 m 0
 745 1162 790 1117 790 1062 c 0
 790 1007 745 962 690 962 c 0
 635 962 590 1007 590 1062 c 0
 590 1117 635 1162 690 1162 c 0
318 418 m 0
 373 418 418 373 418 318 c 0
 418 263 373 218 318 218 c 0
 263 218 218 263 218 318 c 0
 218 373 263 418 318 418 c 0
EndSplineSet
EndChar

StartChar: uni285D
Encoding: 10333 10333 415
Width: 1008
Flags: HW
LayerCount: 2
Fore
SplineSet
318 46 m 0
 373 46 418 1 418 -54 c 0
 418 -109 373 -154 318 -154 c 0
 263 -154 218 -109 218 -54 c 0
 218 1 263 46 318 46 c 0
690 790 m 0
 745 790 790 745 790 690 c 0
 790 635 745 590 690 590 c 0
 635 590 590 635 590 690 c 0
 590 745 635 790 690 790 c 0
690 1162 m 0
 745 1162 790 1117 790 1062 c 0
 790 1007 745 962 690 962 c 0
 635 962 590 1007 590 1062 c 0
 590 1117 635 1162 690 1162 c 0
318 418 m 0
 373 418 418 373 418 318 c 0
 418 263 373 218 318 218 c 0
 263 218 218 263 218 318 c 0
 218 373 263 418 318 418 c 0
318 1162 m 0
 373 1162 418 1117 418 1062 c 0
 418 1007 373 962 318 962 c 0
 263 962 218 1007 218 1062 c 0
 218 1117 263 1162 318 1162 c 0
EndSplineSet
EndChar

StartChar: uni285E
Encoding: 10334 10334 416
Width: 1008
Flags: HW
LayerCount: 2
Fore
SplineSet
318 46 m 0
 373 46 418 1 418 -54 c 0
 418 -109 373 -154 318 -154 c 0
 263 -154 218 -109 218 -54 c 0
 218 1 263 46 318 46 c 0
690 790 m 0
 745 790 790 745 790 690 c 0
 790 635 745 590 690 590 c 0
 635 590 590 635 590 690 c 0
 590 745 635 790 690 790 c 0
690 1162 m 0
 745 1162 790 1117 790 1062 c 0
 790 1007 745 962 690 962 c 0
 635 962 590 1007 590 1062 c 0
 590 1117 635 1162 690 1162 c 0
318 418 m 0
 373 418 418 373 418 318 c 0
 418 263 373 218 318 218 c 0
 263 218 218 263 218 318 c 0
 218 373 263 418 318 418 c 0
318 790 m 0
 373 790 418 745 418 690 c 0
 418 635 373 590 318 590 c 0
 263 590 218 635 218 690 c 0
 218 745 263 790 318 790 c 0
EndSplineSet
EndChar

StartChar: uni285F
Encoding: 10335 10335 417
Width: 1008
Flags: HW
LayerCount: 2
Fore
SplineSet
318 46 m 0
 373 46 418 1 418 -54 c 0
 418 -109 373 -154 318 -154 c 0
 263 -154 218 -109 218 -54 c 0
 218 1 263 46 318 46 c 0
690 790 m 0
 745 790 790 745 790 690 c 0
 790 635 745 590 690 590 c 0
 635 590 590 635 590 690 c 0
 590 745 635 790 690 790 c 0
690 1162 m 0
 745 1162 790 1117 790 1062 c 0
 790 1007 745 962 690 962 c 0
 635 962 590 1007 590 1062 c 0
 590 1117 635 1162 690 1162 c 0
318 418 m 0
 373 418 418 373 418 318 c 0
 418 263 373 218 318 218 c 0
 263 218 218 263 218 318 c 0
 218 373 263 418 318 418 c 0
318 790 m 0
 373 790 418 745 418 690 c 0
 418 635 373 590 318 590 c 0
 263 590 218 635 218 690 c 0
 218 745 263 790 318 790 c 0
318 1162 m 0
 373 1162 418 1117 418 1062 c 0
 418 1007 373 962 318 962 c 0
 263 962 218 1007 218 1062 c 0
 218 1117 263 1162 318 1162 c 0
EndSplineSet
EndChar

StartChar: uni2860
Encoding: 10336 10336 418
Width: 1008
Flags: HW
LayerCount: 2
Fore
SplineSet
318 46 m 0
 373 46 418 1 418 -54 c 0
 418 -109 373 -154 318 -154 c 0
 263 -154 218 -109 218 -54 c 0
 218 1 263 46 318 46 c 0
690 418 m 0
 745 418 790 373 790 318 c 0
 790 263 745 218 690 218 c 0
 635 218 590 263 590 318 c 0
 590 373 635 418 690 418 c 0
EndSplineSet
EndChar

StartChar: uni2861
Encoding: 10337 10337 419
Width: 1008
Flags: HW
LayerCount: 2
Fore
SplineSet
318 46 m 0
 373 46 418 1 418 -54 c 0
 418 -109 373 -154 318 -154 c 0
 263 -154 218 -109 218 -54 c 0
 218 1 263 46 318 46 c 0
690 418 m 0
 745 418 790 373 790 318 c 0
 790 263 745 218 690 218 c 0
 635 218 590 263 590 318 c 0
 590 373 635 418 690 418 c 0
318 1162 m 0
 373 1162 418 1117 418 1062 c 0
 418 1007 373 962 318 962 c 0
 263 962 218 1007 218 1062 c 0
 218 1117 263 1162 318 1162 c 0
EndSplineSet
EndChar

StartChar: uni2862
Encoding: 10338 10338 420
Width: 1008
Flags: HW
LayerCount: 2
Fore
SplineSet
318 46 m 0
 373 46 418 1 418 -54 c 0
 418 -109 373 -154 318 -154 c 0
 263 -154 218 -109 218 -54 c 0
 218 1 263 46 318 46 c 0
690 418 m 0
 745 418 790 373 790 318 c 0
 790 263 745 218 690 218 c 0
 635 218 590 263 590 318 c 0
 590 373 635 418 690 418 c 0
318 790 m 0
 373 790 418 745 418 690 c 0
 418 635 373 590 318 590 c 0
 263 590 218 635 218 690 c 0
 218 745 263 790 318 790 c 0
EndSplineSet
EndChar

StartChar: uni2863
Encoding: 10339 10339 421
Width: 1008
Flags: HW
LayerCount: 2
Fore
SplineSet
318 46 m 0
 373 46 418 1 418 -54 c 0
 418 -109 373 -154 318 -154 c 0
 263 -154 218 -109 218 -54 c 0
 218 1 263 46 318 46 c 0
690 418 m 0
 745 418 790 373 790 318 c 0
 790 263 745 218 690 218 c 0
 635 218 590 263 590 318 c 0
 590 373 635 418 690 418 c 0
318 790 m 0
 373 790 418 745 418 690 c 0
 418 635 373 590 318 590 c 0
 263 590 218 635 218 690 c 0
 218 745 263 790 318 790 c 0
318 1162 m 0
 373 1162 418 1117 418 1062 c 0
 418 1007 373 962 318 962 c 0
 263 962 218 1007 218 1062 c 0
 218 1117 263 1162 318 1162 c 0
EndSplineSet
EndChar

StartChar: uni2864
Encoding: 10340 10340 422
Width: 1008
Flags: HW
LayerCount: 2
Fore
SplineSet
318 46 m 0
 373 46 418 1 418 -54 c 0
 418 -109 373 -154 318 -154 c 0
 263 -154 218 -109 218 -54 c 0
 218 1 263 46 318 46 c 0
690 418 m 0
 745 418 790 373 790 318 c 0
 790 263 745 218 690 218 c 0
 635 218 590 263 590 318 c 0
 590 373 635 418 690 418 c 0
318 418 m 0
 373 418 418 373 418 318 c 0
 418 263 373 218 318 218 c 0
 263 218 218 263 218 318 c 0
 218 373 263 418 318 418 c 0
EndSplineSet
EndChar

StartChar: uni2865
Encoding: 10341 10341 423
Width: 1008
Flags: HW
LayerCount: 2
Fore
SplineSet
318 46 m 0
 373 46 418 1 418 -54 c 0
 418 -109 373 -154 318 -154 c 0
 263 -154 218 -109 218 -54 c 0
 218 1 263 46 318 46 c 0
690 418 m 0
 745 418 790 373 790 318 c 0
 790 263 745 218 690 218 c 0
 635 218 590 263 590 318 c 0
 590 373 635 418 690 418 c 0
318 418 m 0
 373 418 418 373 418 318 c 0
 418 263 373 218 318 218 c 0
 263 218 218 263 218 318 c 0
 218 373 263 418 318 418 c 0
318 1162 m 0
 373 1162 418 1117 418 1062 c 0
 418 1007 373 962 318 962 c 0
 263 962 218 1007 218 1062 c 0
 218 1117 263 1162 318 1162 c 0
EndSplineSet
EndChar

StartChar: uni2866
Encoding: 10342 10342 424
Width: 1008
Flags: HW
LayerCount: 2
Fore
SplineSet
318 46 m 0
 373 46 418 1 418 -54 c 0
 418 -109 373 -154 318 -154 c 0
 263 -154 218 -109 218 -54 c 0
 218 1 263 46 318 46 c 0
690 418 m 0
 745 418 790 373 790 318 c 0
 790 263 745 218 690 218 c 0
 635 218 590 263 590 318 c 0
 590 373 635 418 690 418 c 0
318 418 m 0
 373 418 418 373 418 318 c 0
 418 263 373 218 318 218 c 0
 263 218 218 263 218 318 c 0
 218 373 263 418 318 418 c 0
318 790 m 0
 373 790 418 745 418 690 c 0
 418 635 373 590 318 590 c 0
 263 590 218 635 218 690 c 0
 218 745 263 790 318 790 c 0
EndSplineSet
EndChar

StartChar: uni2867
Encoding: 10343 10343 425
Width: 1008
Flags: HW
LayerCount: 2
Fore
SplineSet
318 46 m 0
 373 46 418 1 418 -54 c 0
 418 -109 373 -154 318 -154 c 0
 263 -154 218 -109 218 -54 c 0
 218 1 263 46 318 46 c 0
690 418 m 0
 745 418 790 373 790 318 c 0
 790 263 745 218 690 218 c 0
 635 218 590 263 590 318 c 0
 590 373 635 418 690 418 c 0
318 418 m 0
 373 418 418 373 418 318 c 0
 418 263 373 218 318 218 c 0
 263 218 218 263 218 318 c 0
 218 373 263 418 318 418 c 0
318 790 m 0
 373 790 418 745 418 690 c 0
 418 635 373 590 318 590 c 0
 263 590 218 635 218 690 c 0
 218 745 263 790 318 790 c 0
318 1162 m 0
 373 1162 418 1117 418 1062 c 0
 418 1007 373 962 318 962 c 0
 263 962 218 1007 218 1062 c 0
 218 1117 263 1162 318 1162 c 0
EndSplineSet
EndChar

StartChar: uni2868
Encoding: 10344 10344 426
Width: 1008
Flags: HW
LayerCount: 2
Fore
SplineSet
318 46 m 0
 373 46 418 1 418 -54 c 0
 418 -109 373 -154 318 -154 c 0
 263 -154 218 -109 218 -54 c 0
 218 1 263 46 318 46 c 0
690 418 m 0
 745 418 790 373 790 318 c 0
 790 263 745 218 690 218 c 0
 635 218 590 263 590 318 c 0
 590 373 635 418 690 418 c 0
690 1162 m 0
 745 1162 790 1117 790 1062 c 0
 790 1007 745 962 690 962 c 0
 635 962 590 1007 590 1062 c 0
 590 1117 635 1162 690 1162 c 0
EndSplineSet
EndChar

StartChar: uni2869
Encoding: 10345 10345 427
Width: 1008
Flags: HW
LayerCount: 2
Fore
SplineSet
318 46 m 0
 373 46 418 1 418 -54 c 0
 418 -109 373 -154 318 -154 c 0
 263 -154 218 -109 218 -54 c 0
 218 1 263 46 318 46 c 0
690 418 m 0
 745 418 790 373 790 318 c 0
 790 263 745 218 690 218 c 0
 635 218 590 263 590 318 c 0
 590 373 635 418 690 418 c 0
690 1162 m 0
 745 1162 790 1117 790 1062 c 0
 790 1007 745 962 690 962 c 0
 635 962 590 1007 590 1062 c 0
 590 1117 635 1162 690 1162 c 0
318 1162 m 0
 373 1162 418 1117 418 1062 c 0
 418 1007 373 962 318 962 c 0
 263 962 218 1007 218 1062 c 0
 218 1117 263 1162 318 1162 c 0
EndSplineSet
EndChar

StartChar: uni286A
Encoding: 10346 10346 428
Width: 1008
Flags: HW
LayerCount: 2
Fore
SplineSet
318 46 m 0
 373 46 418 1 418 -54 c 0
 418 -109 373 -154 318 -154 c 0
 263 -154 218 -109 218 -54 c 0
 218 1 263 46 318 46 c 0
690 418 m 0
 745 418 790 373 790 318 c 0
 790 263 745 218 690 218 c 0
 635 218 590 263 590 318 c 0
 590 373 635 418 690 418 c 0
690 1162 m 0
 745 1162 790 1117 790 1062 c 0
 790 1007 745 962 690 962 c 0
 635 962 590 1007 590 1062 c 0
 590 1117 635 1162 690 1162 c 0
318 790 m 0
 373 790 418 745 418 690 c 0
 418 635 373 590 318 590 c 0
 263 590 218 635 218 690 c 0
 218 745 263 790 318 790 c 0
EndSplineSet
EndChar

StartChar: uni286B
Encoding: 10347 10347 429
Width: 1008
Flags: HW
LayerCount: 2
Fore
SplineSet
318 46 m 0
 373 46 418 1 418 -54 c 0
 418 -109 373 -154 318 -154 c 0
 263 -154 218 -109 218 -54 c 0
 218 1 263 46 318 46 c 0
690 418 m 0
 745 418 790 373 790 318 c 0
 790 263 745 218 690 218 c 0
 635 218 590 263 590 318 c 0
 590 373 635 418 690 418 c 0
690 1162 m 0
 745 1162 790 1117 790 1062 c 0
 790 1007 745 962 690 962 c 0
 635 962 590 1007 590 1062 c 0
 590 1117 635 1162 690 1162 c 0
318 790 m 0
 373 790 418 745 418 690 c 0
 418 635 373 590 318 590 c 0
 263 590 218 635 218 690 c 0
 218 745 263 790 318 790 c 0
318 1162 m 0
 373 1162 418 1117 418 1062 c 0
 418 1007 373 962 318 962 c 0
 263 962 218 1007 218 1062 c 0
 218 1117 263 1162 318 1162 c 0
EndSplineSet
EndChar

StartChar: uni286C
Encoding: 10348 10348 430
Width: 1008
Flags: HW
LayerCount: 2
Fore
SplineSet
318 46 m 0
 373 46 418 1 418 -54 c 0
 418 -109 373 -154 318 -154 c 0
 263 -154 218 -109 218 -54 c 0
 218 1 263 46 318 46 c 0
690 418 m 0
 745 418 790 373 790 318 c 0
 790 263 745 218 690 218 c 0
 635 218 590 263 590 318 c 0
 590 373 635 418 690 418 c 0
690 1162 m 0
 745 1162 790 1117 790 1062 c 0
 790 1007 745 962 690 962 c 0
 635 962 590 1007 590 1062 c 0
 590 1117 635 1162 690 1162 c 0
318 418 m 0
 373 418 418 373 418 318 c 0
 418 263 373 218 318 218 c 0
 263 218 218 263 218 318 c 0
 218 373 263 418 318 418 c 0
EndSplineSet
EndChar

StartChar: uni286D
Encoding: 10349 10349 431
Width: 1008
Flags: HW
LayerCount: 2
Fore
SplineSet
318 46 m 0
 373 46 418 1 418 -54 c 0
 418 -109 373 -154 318 -154 c 0
 263 -154 218 -109 218 -54 c 0
 218 1 263 46 318 46 c 0
690 418 m 0
 745 418 790 373 790 318 c 0
 790 263 745 218 690 218 c 0
 635 218 590 263 590 318 c 0
 590 373 635 418 690 418 c 0
690 1162 m 0
 745 1162 790 1117 790 1062 c 0
 790 1007 745 962 690 962 c 0
 635 962 590 1007 590 1062 c 0
 590 1117 635 1162 690 1162 c 0
318 418 m 0
 373 418 418 373 418 318 c 0
 418 263 373 218 318 218 c 0
 263 218 218 263 218 318 c 0
 218 373 263 418 318 418 c 0
318 1162 m 0
 373 1162 418 1117 418 1062 c 0
 418 1007 373 962 318 962 c 0
 263 962 218 1007 218 1062 c 0
 218 1117 263 1162 318 1162 c 0
EndSplineSet
EndChar

StartChar: uni286E
Encoding: 10350 10350 432
Width: 1008
Flags: HW
LayerCount: 2
Fore
SplineSet
318 46 m 0
 373 46 418 1 418 -54 c 0
 418 -109 373 -154 318 -154 c 0
 263 -154 218 -109 218 -54 c 0
 218 1 263 46 318 46 c 0
690 418 m 0
 745 418 790 373 790 318 c 0
 790 263 745 218 690 218 c 0
 635 218 590 263 590 318 c 0
 590 373 635 418 690 418 c 0
690 1162 m 0
 745 1162 790 1117 790 1062 c 0
 790 1007 745 962 690 962 c 0
 635 962 590 1007 590 1062 c 0
 590 1117 635 1162 690 1162 c 0
318 418 m 0
 373 418 418 373 418 318 c 0
 418 263 373 218 318 218 c 0
 263 218 218 263 218 318 c 0
 218 373 263 418 318 418 c 0
318 790 m 0
 373 790 418 745 418 690 c 0
 418 635 373 590 318 590 c 0
 263 590 218 635 218 690 c 0
 218 745 263 790 318 790 c 0
EndSplineSet
EndChar

StartChar: uni286F
Encoding: 10351 10351 433
Width: 1008
Flags: HW
LayerCount: 2
Fore
SplineSet
318 46 m 0
 373 46 418 1 418 -54 c 0
 418 -109 373 -154 318 -154 c 0
 263 -154 218 -109 218 -54 c 0
 218 1 263 46 318 46 c 0
690 418 m 0
 745 418 790 373 790 318 c 0
 790 263 745 218 690 218 c 0
 635 218 590 263 590 318 c 0
 590 373 635 418 690 418 c 0
690 1162 m 0
 745 1162 790 1117 790 1062 c 0
 790 1007 745 962 690 962 c 0
 635 962 590 1007 590 1062 c 0
 590 1117 635 1162 690 1162 c 0
318 418 m 0
 373 418 418 373 418 318 c 0
 418 263 373 218 318 218 c 0
 263 218 218 263 218 318 c 0
 218 373 263 418 318 418 c 0
318 790 m 0
 373 790 418 745 418 690 c 0
 418 635 373 590 318 590 c 0
 263 590 218 635 218 690 c 0
 218 745 263 790 318 790 c 0
318 1162 m 0
 373 1162 418 1117 418 1062 c 0
 418 1007 373 962 318 962 c 0
 263 962 218 1007 218 1062 c 0
 218 1117 263 1162 318 1162 c 0
EndSplineSet
EndChar

StartChar: uni2870
Encoding: 10352 10352 434
Width: 1008
Flags: HW
LayerCount: 2
Fore
SplineSet
318 46 m 0
 373 46 418 1 418 -54 c 0
 418 -109 373 -154 318 -154 c 0
 263 -154 218 -109 218 -54 c 0
 218 1 263 46 318 46 c 0
690 418 m 0
 745 418 790 373 790 318 c 0
 790 263 745 218 690 218 c 0
 635 218 590 263 590 318 c 0
 590 373 635 418 690 418 c 0
690 790 m 0
 745 790 790 745 790 690 c 0
 790 635 745 590 690 590 c 0
 635 590 590 635 590 690 c 0
 590 745 635 790 690 790 c 0
EndSplineSet
EndChar

StartChar: uni2871
Encoding: 10353 10353 435
Width: 1008
Flags: HW
LayerCount: 2
Fore
SplineSet
318 46 m 0
 373 46 418 1 418 -54 c 0
 418 -109 373 -154 318 -154 c 0
 263 -154 218 -109 218 -54 c 0
 218 1 263 46 318 46 c 0
690 418 m 0
 745 418 790 373 790 318 c 0
 790 263 745 218 690 218 c 0
 635 218 590 263 590 318 c 0
 590 373 635 418 690 418 c 0
690 790 m 0
 745 790 790 745 790 690 c 0
 790 635 745 590 690 590 c 0
 635 590 590 635 590 690 c 0
 590 745 635 790 690 790 c 0
318 1162 m 0
 373 1162 418 1117 418 1062 c 0
 418 1007 373 962 318 962 c 0
 263 962 218 1007 218 1062 c 0
 218 1117 263 1162 318 1162 c 0
EndSplineSet
EndChar

StartChar: uni2872
Encoding: 10354 10354 436
Width: 1008
Flags: HW
LayerCount: 2
Fore
SplineSet
318 46 m 0
 373 46 418 1 418 -54 c 0
 418 -109 373 -154 318 -154 c 0
 263 -154 218 -109 218 -54 c 0
 218 1 263 46 318 46 c 0
690 418 m 0
 745 418 790 373 790 318 c 0
 790 263 745 218 690 218 c 0
 635 218 590 263 590 318 c 0
 590 373 635 418 690 418 c 0
690 790 m 0
 745 790 790 745 790 690 c 0
 790 635 745 590 690 590 c 0
 635 590 590 635 590 690 c 0
 590 745 635 790 690 790 c 0
318 790 m 0
 373 790 418 745 418 690 c 0
 418 635 373 590 318 590 c 0
 263 590 218 635 218 690 c 0
 218 745 263 790 318 790 c 0
EndSplineSet
EndChar

StartChar: uni2873
Encoding: 10355 10355 437
Width: 1008
Flags: HW
LayerCount: 2
Fore
SplineSet
318 46 m 0
 373 46 418 1 418 -54 c 0
 418 -109 373 -154 318 -154 c 0
 263 -154 218 -109 218 -54 c 0
 218 1 263 46 318 46 c 0
690 418 m 0
 745 418 790 373 790 318 c 0
 790 263 745 218 690 218 c 0
 635 218 590 263 590 318 c 0
 590 373 635 418 690 418 c 0
690 790 m 0
 745 790 790 745 790 690 c 0
 790 635 745 590 690 590 c 0
 635 590 590 635 590 690 c 0
 590 745 635 790 690 790 c 0
318 790 m 0
 373 790 418 745 418 690 c 0
 418 635 373 590 318 590 c 0
 263 590 218 635 218 690 c 0
 218 745 263 790 318 790 c 0
318 1162 m 0
 373 1162 418 1117 418 1062 c 0
 418 1007 373 962 318 962 c 0
 263 962 218 1007 218 1062 c 0
 218 1117 263 1162 318 1162 c 0
EndSplineSet
EndChar

StartChar: uni2874
Encoding: 10356 10356 438
Width: 1008
Flags: HW
LayerCount: 2
Fore
SplineSet
318 46 m 0
 373 46 418 1 418 -54 c 0
 418 -109 373 -154 318 -154 c 0
 263 -154 218 -109 218 -54 c 0
 218 1 263 46 318 46 c 0
690 418 m 0
 745 418 790 373 790 318 c 0
 790 263 745 218 690 218 c 0
 635 218 590 263 590 318 c 0
 590 373 635 418 690 418 c 0
690 790 m 0
 745 790 790 745 790 690 c 0
 790 635 745 590 690 590 c 0
 635 590 590 635 590 690 c 0
 590 745 635 790 690 790 c 0
318 418 m 0
 373 418 418 373 418 318 c 0
 418 263 373 218 318 218 c 0
 263 218 218 263 218 318 c 0
 218 373 263 418 318 418 c 0
EndSplineSet
EndChar

StartChar: uni2875
Encoding: 10357 10357 439
Width: 1008
Flags: HW
LayerCount: 2
Fore
SplineSet
318 46 m 0
 373 46 418 1 418 -54 c 0
 418 -109 373 -154 318 -154 c 0
 263 -154 218 -109 218 -54 c 0
 218 1 263 46 318 46 c 0
690 418 m 0
 745 418 790 373 790 318 c 0
 790 263 745 218 690 218 c 0
 635 218 590 263 590 318 c 0
 590 373 635 418 690 418 c 0
690 790 m 0
 745 790 790 745 790 690 c 0
 790 635 745 590 690 590 c 0
 635 590 590 635 590 690 c 0
 590 745 635 790 690 790 c 0
318 418 m 0
 373 418 418 373 418 318 c 0
 418 263 373 218 318 218 c 0
 263 218 218 263 218 318 c 0
 218 373 263 418 318 418 c 0
318 1162 m 0
 373 1162 418 1117 418 1062 c 0
 418 1007 373 962 318 962 c 0
 263 962 218 1007 218 1062 c 0
 218 1117 263 1162 318 1162 c 0
EndSplineSet
EndChar

StartChar: uni2876
Encoding: 10358 10358 440
Width: 1008
Flags: HW
LayerCount: 2
Fore
SplineSet
318 46 m 0
 373 46 418 1 418 -54 c 0
 418 -109 373 -154 318 -154 c 0
 263 -154 218 -109 218 -54 c 0
 218 1 263 46 318 46 c 0
690 418 m 0
 745 418 790 373 790 318 c 0
 790 263 745 218 690 218 c 0
 635 218 590 263 590 318 c 0
 590 373 635 418 690 418 c 0
690 790 m 0
 745 790 790 745 790 690 c 0
 790 635 745 590 690 590 c 0
 635 590 590 635 590 690 c 0
 590 745 635 790 690 790 c 0
318 418 m 0
 373 418 418 373 418 318 c 0
 418 263 373 218 318 218 c 0
 263 218 218 263 218 318 c 0
 218 373 263 418 318 418 c 0
318 790 m 0
 373 790 418 745 418 690 c 0
 418 635 373 590 318 590 c 0
 263 590 218 635 218 690 c 0
 218 745 263 790 318 790 c 0
EndSplineSet
EndChar

StartChar: uni2877
Encoding: 10359 10359 441
Width: 1008
Flags: HW
LayerCount: 2
Fore
SplineSet
318 46 m 0
 373 46 418 1 418 -54 c 0
 418 -109 373 -154 318 -154 c 0
 263 -154 218 -109 218 -54 c 0
 218 1 263 46 318 46 c 0
690 418 m 0
 745 418 790 373 790 318 c 0
 790 263 745 218 690 218 c 0
 635 218 590 263 590 318 c 0
 590 373 635 418 690 418 c 0
690 790 m 0
 745 790 790 745 790 690 c 0
 790 635 745 590 690 590 c 0
 635 590 590 635 590 690 c 0
 590 745 635 790 690 790 c 0
318 418 m 0
 373 418 418 373 418 318 c 0
 418 263 373 218 318 218 c 0
 263 218 218 263 218 318 c 0
 218 373 263 418 318 418 c 0
318 790 m 0
 373 790 418 745 418 690 c 0
 418 635 373 590 318 590 c 0
 263 590 218 635 218 690 c 0
 218 745 263 790 318 790 c 0
318 1162 m 0
 373 1162 418 1117 418 1062 c 0
 418 1007 373 962 318 962 c 0
 263 962 218 1007 218 1062 c 0
 218 1117 263 1162 318 1162 c 0
EndSplineSet
EndChar

StartChar: uni2878
Encoding: 10360 10360 442
Width: 1008
Flags: HW
LayerCount: 2
Fore
SplineSet
318 46 m 0
 373 46 418 1 418 -54 c 0
 418 -109 373 -154 318 -154 c 0
 263 -154 218 -109 218 -54 c 0
 218 1 263 46 318 46 c 0
690 418 m 0
 745 418 790 373 790 318 c 0
 790 263 745 218 690 218 c 0
 635 218 590 263 590 318 c 0
 590 373 635 418 690 418 c 0
690 790 m 0
 745 790 790 745 790 690 c 0
 790 635 745 590 690 590 c 0
 635 590 590 635 590 690 c 0
 590 745 635 790 690 790 c 0
690 1162 m 0
 745 1162 790 1117 790 1062 c 0
 790 1007 745 962 690 962 c 0
 635 962 590 1007 590 1062 c 0
 590 1117 635 1162 690 1162 c 0
EndSplineSet
EndChar

StartChar: uni2879
Encoding: 10361 10361 443
Width: 1008
Flags: HW
LayerCount: 2
Fore
SplineSet
318 46 m 0
 373 46 418 1 418 -54 c 0
 418 -109 373 -154 318 -154 c 0
 263 -154 218 -109 218 -54 c 0
 218 1 263 46 318 46 c 0
690 418 m 0
 745 418 790 373 790 318 c 0
 790 263 745 218 690 218 c 0
 635 218 590 263 590 318 c 0
 590 373 635 418 690 418 c 0
690 790 m 0
 745 790 790 745 790 690 c 0
 790 635 745 590 690 590 c 0
 635 590 590 635 590 690 c 0
 590 745 635 790 690 790 c 0
690 1162 m 0
 745 1162 790 1117 790 1062 c 0
 790 1007 745 962 690 962 c 0
 635 962 590 1007 590 1062 c 0
 590 1117 635 1162 690 1162 c 0
318 1162 m 0
 373 1162 418 1117 418 1062 c 0
 418 1007 373 962 318 962 c 0
 263 962 218 1007 218 1062 c 0
 218 1117 263 1162 318 1162 c 0
EndSplineSet
EndChar

StartChar: uni287A
Encoding: 10362 10362 444
Width: 1008
Flags: HW
LayerCount: 2
Fore
SplineSet
318 46 m 0
 373 46 418 1 418 -54 c 0
 418 -109 373 -154 318 -154 c 0
 263 -154 218 -109 218 -54 c 0
 218 1 263 46 318 46 c 0
690 418 m 0
 745 418 790 373 790 318 c 0
 790 263 745 218 690 218 c 0
 635 218 590 263 590 318 c 0
 590 373 635 418 690 418 c 0
690 790 m 0
 745 790 790 745 790 690 c 0
 790 635 745 590 690 590 c 0
 635 590 590 635 590 690 c 0
 590 745 635 790 690 790 c 0
690 1162 m 0
 745 1162 790 1117 790 1062 c 0
 790 1007 745 962 690 962 c 0
 635 962 590 1007 590 1062 c 0
 590 1117 635 1162 690 1162 c 0
318 790 m 0
 373 790 418 745 418 690 c 0
 418 635 373 590 318 590 c 0
 263 590 218 635 218 690 c 0
 218 745 263 790 318 790 c 0
EndSplineSet
EndChar

StartChar: uni287B
Encoding: 10363 10363 445
Width: 1008
Flags: HW
LayerCount: 2
Fore
SplineSet
318 46 m 0
 373 46 418 1 418 -54 c 0
 418 -109 373 -154 318 -154 c 0
 263 -154 218 -109 218 -54 c 0
 218 1 263 46 318 46 c 0
690 418 m 0
 745 418 790 373 790 318 c 0
 790 263 745 218 690 218 c 0
 635 218 590 263 590 318 c 0
 590 373 635 418 690 418 c 0
690 790 m 0
 745 790 790 745 790 690 c 0
 790 635 745 590 690 590 c 0
 635 590 590 635 590 690 c 0
 590 745 635 790 690 790 c 0
690 1162 m 0
 745 1162 790 1117 790 1062 c 0
 790 1007 745 962 690 962 c 0
 635 962 590 1007 590 1062 c 0
 590 1117 635 1162 690 1162 c 0
318 790 m 0
 373 790 418 745 418 690 c 0
 418 635 373 590 318 590 c 0
 263 590 218 635 218 690 c 0
 218 745 263 790 318 790 c 0
318 1162 m 0
 373 1162 418 1117 418 1062 c 0
 418 1007 373 962 318 962 c 0
 263 962 218 1007 218 1062 c 0
 218 1117 263 1162 318 1162 c 0
EndSplineSet
EndChar

StartChar: uni287C
Encoding: 10364 10364 446
Width: 1008
Flags: HW
LayerCount: 2
Fore
SplineSet
318 46 m 0
 373 46 418 1 418 -54 c 0
 418 -109 373 -154 318 -154 c 0
 263 -154 218 -109 218 -54 c 0
 218 1 263 46 318 46 c 0
690 418 m 0
 745 418 790 373 790 318 c 0
 790 263 745 218 690 218 c 0
 635 218 590 263 590 318 c 0
 590 373 635 418 690 418 c 0
690 790 m 0
 745 790 790 745 790 690 c 0
 790 635 745 590 690 590 c 0
 635 590 590 635 590 690 c 0
 590 745 635 790 690 790 c 0
690 1162 m 0
 745 1162 790 1117 790 1062 c 0
 790 1007 745 962 690 962 c 0
 635 962 590 1007 590 1062 c 0
 590 1117 635 1162 690 1162 c 0
318 418 m 0
 373 418 418 373 418 318 c 0
 418 263 373 218 318 218 c 0
 263 218 218 263 218 318 c 0
 218 373 263 418 318 418 c 0
EndSplineSet
EndChar

StartChar: uni287D
Encoding: 10365 10365 447
Width: 1008
Flags: HW
LayerCount: 2
Fore
SplineSet
318 46 m 0
 373 46 418 1 418 -54 c 0
 418 -109 373 -154 318 -154 c 0
 263 -154 218 -109 218 -54 c 0
 218 1 263 46 318 46 c 0
690 418 m 0
 745 418 790 373 790 318 c 0
 790 263 745 218 690 218 c 0
 635 218 590 263 590 318 c 0
 590 373 635 418 690 418 c 0
690 790 m 0
 745 790 790 745 790 690 c 0
 790 635 745 590 690 590 c 0
 635 590 590 635 590 690 c 0
 590 745 635 790 690 790 c 0
690 1162 m 0
 745 1162 790 1117 790 1062 c 0
 790 1007 745 962 690 962 c 0
 635 962 590 1007 590 1062 c 0
 590 1117 635 1162 690 1162 c 0
318 418 m 0
 373 418 418 373 418 318 c 0
 418 263 373 218 318 218 c 0
 263 218 218 263 218 318 c 0
 218 373 263 418 318 418 c 0
318 1162 m 0
 373 1162 418 1117 418 1062 c 0
 418 1007 373 962 318 962 c 0
 263 962 218 1007 218 1062 c 0
 218 1117 263 1162 318 1162 c 0
EndSplineSet
EndChar

StartChar: uni287E
Encoding: 10366 10366 448
Width: 1008
Flags: HW
LayerCount: 2
Fore
SplineSet
318 46 m 0
 373 46 418 1 418 -54 c 0
 418 -109 373 -154 318 -154 c 0
 263 -154 218 -109 218 -54 c 0
 218 1 263 46 318 46 c 0
690 418 m 0
 745 418 790 373 790 318 c 0
 790 263 745 218 690 218 c 0
 635 218 590 263 590 318 c 0
 590 373 635 418 690 418 c 0
690 790 m 0
 745 790 790 745 790 690 c 0
 790 635 745 590 690 590 c 0
 635 590 590 635 590 690 c 0
 590 745 635 790 690 790 c 0
690 1162 m 0
 745 1162 790 1117 790 1062 c 0
 790 1007 745 962 690 962 c 0
 635 962 590 1007 590 1062 c 0
 590 1117 635 1162 690 1162 c 0
318 418 m 0
 373 418 418 373 418 318 c 0
 418 263 373 218 318 218 c 0
 263 218 218 263 218 318 c 0
 218 373 263 418 318 418 c 0
318 790 m 0
 373 790 418 745 418 690 c 0
 418 635 373 590 318 590 c 0
 263 590 218 635 218 690 c 0
 218 745 263 790 318 790 c 0
EndSplineSet
EndChar

StartChar: uni287F
Encoding: 10367 10367 449
Width: 1008
Flags: HW
LayerCount: 2
Fore
SplineSet
318 46 m 0
 373 46 418 1 418 -54 c 0
 418 -109 373 -154 318 -154 c 0
 263 -154 218 -109 218 -54 c 0
 218 1 263 46 318 46 c 0
690 418 m 0
 745 418 790 373 790 318 c 0
 790 263 745 218 690 218 c 0
 635 218 590 263 590 318 c 0
 590 373 635 418 690 418 c 0
690 790 m 0
 745 790 790 745 790 690 c 0
 790 635 745 590 690 590 c 0
 635 590 590 635 590 690 c 0
 590 745 635 790 690 790 c 0
690 1162 m 0
 745 1162 790 1117 790 1062 c 0
 790 1007 745 962 690 962 c 0
 635 962 590 1007 590 1062 c 0
 590 1117 635 1162 690 1162 c 0
318 418 m 0
 373 418 418 373 418 318 c 0
 418 263 373 218 318 218 c 0
 263 218 218 263 218 318 c 0
 218 373 263 418 318 418 c 0
318 790 m 0
 373 790 418 745 418 690 c 0
 418 635 373 590 318 590 c 0
 263 590 218 635 218 690 c 0
 218 745 263 790 318 790 c 0
318 1162 m 0
 373 1162 418 1117 418 1062 c 0
 418 1007 373 962 318 962 c 0
 263 962 218 1007 218 1062 c 0
 218 1117 263 1162 318 1162 c 0
EndSplineSet
EndChar

StartChar: uni2880
Encoding: 10368 10368 450
Width: 1008
Flags: HW
LayerCount: 2
Fore
SplineSet
690 46 m 0
 745 46 790 1 790 -54 c 0
 790 -109 745 -154 690 -154 c 0
 635 -154 590 -109 590 -54 c 0
 590 1 635 46 690 46 c 0
EndSplineSet
EndChar

StartChar: uni2881
Encoding: 10369 10369 451
Width: 1008
Flags: HW
LayerCount: 2
Fore
SplineSet
690 46 m 0
 745 46 790 1 790 -54 c 0
 790 -109 745 -154 690 -154 c 0
 635 -154 590 -109 590 -54 c 0
 590 1 635 46 690 46 c 0
318 1162 m 0
 373 1162 418 1117 418 1062 c 0
 418 1007 373 962 318 962 c 0
 263 962 218 1007 218 1062 c 0
 218 1117 263 1162 318 1162 c 0
EndSplineSet
EndChar

StartChar: uni2882
Encoding: 10370 10370 452
Width: 1008
Flags: HW
LayerCount: 2
Fore
SplineSet
690 46 m 0
 745 46 790 1 790 -54 c 0
 790 -109 745 -154 690 -154 c 0
 635 -154 590 -109 590 -54 c 0
 590 1 635 46 690 46 c 0
318 790 m 0
 373 790 418 745 418 690 c 0
 418 635 373 590 318 590 c 0
 263 590 218 635 218 690 c 0
 218 745 263 790 318 790 c 0
EndSplineSet
EndChar

StartChar: uni2883
Encoding: 10371 10371 453
Width: 1008
Flags: HW
LayerCount: 2
Fore
SplineSet
690 46 m 0
 745 46 790 1 790 -54 c 0
 790 -109 745 -154 690 -154 c 0
 635 -154 590 -109 590 -54 c 0
 590 1 635 46 690 46 c 0
318 790 m 0
 373 790 418 745 418 690 c 0
 418 635 373 590 318 590 c 0
 263 590 218 635 218 690 c 0
 218 745 263 790 318 790 c 0
318 1162 m 0
 373 1162 418 1117 418 1062 c 0
 418 1007 373 962 318 962 c 0
 263 962 218 1007 218 1062 c 0
 218 1117 263 1162 318 1162 c 0
EndSplineSet
EndChar

StartChar: uni2884
Encoding: 10372 10372 454
Width: 1008
Flags: HW
LayerCount: 2
Fore
SplineSet
690 46 m 0
 745 46 790 1 790 -54 c 0
 790 -109 745 -154 690 -154 c 0
 635 -154 590 -109 590 -54 c 0
 590 1 635 46 690 46 c 0
318 418 m 0
 373 418 418 373 418 318 c 0
 418 263 373 218 318 218 c 0
 263 218 218 263 218 318 c 0
 218 373 263 418 318 418 c 0
EndSplineSet
EndChar

StartChar: uni2885
Encoding: 10373 10373 455
Width: 1008
Flags: HW
LayerCount: 2
Fore
SplineSet
690 46 m 0
 745 46 790 1 790 -54 c 0
 790 -109 745 -154 690 -154 c 0
 635 -154 590 -109 590 -54 c 0
 590 1 635 46 690 46 c 0
318 418 m 0
 373 418 418 373 418 318 c 0
 418 263 373 218 318 218 c 0
 263 218 218 263 218 318 c 0
 218 373 263 418 318 418 c 0
318 1162 m 0
 373 1162 418 1117 418 1062 c 0
 418 1007 373 962 318 962 c 0
 263 962 218 1007 218 1062 c 0
 218 1117 263 1162 318 1162 c 0
EndSplineSet
EndChar

StartChar: uni2886
Encoding: 10374 10374 456
Width: 1008
Flags: HW
LayerCount: 2
Fore
SplineSet
690 46 m 0
 745 46 790 1 790 -54 c 0
 790 -109 745 -154 690 -154 c 0
 635 -154 590 -109 590 -54 c 0
 590 1 635 46 690 46 c 0
318 418 m 0
 373 418 418 373 418 318 c 0
 418 263 373 218 318 218 c 0
 263 218 218 263 218 318 c 0
 218 373 263 418 318 418 c 0
318 790 m 0
 373 790 418 745 418 690 c 0
 418 635 373 590 318 590 c 0
 263 590 218 635 218 690 c 0
 218 745 263 790 318 790 c 0
EndSplineSet
EndChar

StartChar: uni2887
Encoding: 10375 10375 457
Width: 1008
Flags: HW
LayerCount: 2
Fore
SplineSet
690 46 m 0
 745 46 790 1 790 -54 c 0
 790 -109 745 -154 690 -154 c 0
 635 -154 590 -109 590 -54 c 0
 590 1 635 46 690 46 c 0
318 418 m 0
 373 418 418 373 418 318 c 0
 418 263 373 218 318 218 c 0
 263 218 218 263 218 318 c 0
 218 373 263 418 318 418 c 0
318 790 m 0
 373 790 418 745 418 690 c 0
 418 635 373 590 318 590 c 0
 263 590 218 635 218 690 c 0
 218 745 263 790 318 790 c 0
318 1162 m 0
 373 1162 418 1117 418 1062 c 0
 418 1007 373 962 318 962 c 0
 263 962 218 1007 218 1062 c 0
 218 1117 263 1162 318 1162 c 0
EndSplineSet
EndChar

StartChar: uni2888
Encoding: 10376 10376 458
Width: 1008
Flags: HW
LayerCount: 2
Fore
SplineSet
690 46 m 0
 745 46 790 1 790 -54 c 0
 790 -109 745 -154 690 -154 c 0
 635 -154 590 -109 590 -54 c 0
 590 1 635 46 690 46 c 0
690 1162 m 0
 745 1162 790 1117 790 1062 c 0
 790 1007 745 962 690 962 c 0
 635 962 590 1007 590 1062 c 0
 590 1117 635 1162 690 1162 c 0
EndSplineSet
EndChar

StartChar: uni2889
Encoding: 10377 10377 459
Width: 1008
Flags: HW
LayerCount: 2
Fore
SplineSet
690 46 m 0
 745 46 790 1 790 -54 c 0
 790 -109 745 -154 690 -154 c 0
 635 -154 590 -109 590 -54 c 0
 590 1 635 46 690 46 c 0
690 1162 m 0
 745 1162 790 1117 790 1062 c 0
 790 1007 745 962 690 962 c 0
 635 962 590 1007 590 1062 c 0
 590 1117 635 1162 690 1162 c 0
318 1162 m 0
 373 1162 418 1117 418 1062 c 0
 418 1007 373 962 318 962 c 0
 263 962 218 1007 218 1062 c 0
 218 1117 263 1162 318 1162 c 0
EndSplineSet
EndChar

StartChar: uni288A
Encoding: 10378 10378 460
Width: 1008
Flags: HW
LayerCount: 2
Fore
SplineSet
690 46 m 0
 745 46 790 1 790 -54 c 0
 790 -109 745 -154 690 -154 c 0
 635 -154 590 -109 590 -54 c 0
 590 1 635 46 690 46 c 0
690 1162 m 0
 745 1162 790 1117 790 1062 c 0
 790 1007 745 962 690 962 c 0
 635 962 590 1007 590 1062 c 0
 590 1117 635 1162 690 1162 c 0
318 790 m 0
 373 790 418 745 418 690 c 0
 418 635 373 590 318 590 c 0
 263 590 218 635 218 690 c 0
 218 745 263 790 318 790 c 0
EndSplineSet
EndChar

StartChar: uni288B
Encoding: 10379 10379 461
Width: 1008
Flags: HW
LayerCount: 2
Fore
SplineSet
690 46 m 0
 745 46 790 1 790 -54 c 0
 790 -109 745 -154 690 -154 c 0
 635 -154 590 -109 590 -54 c 0
 590 1 635 46 690 46 c 0
690 1162 m 0
 745 1162 790 1117 790 1062 c 0
 790 1007 745 962 690 962 c 0
 635 962 590 1007 590 1062 c 0
 590 1117 635 1162 690 1162 c 0
318 790 m 0
 373 790 418 745 418 690 c 0
 418 635 373 590 318 590 c 0
 263 590 218 635 218 690 c 0
 218 745 263 790 318 790 c 0
318 1162 m 0
 373 1162 418 1117 418 1062 c 0
 418 1007 373 962 318 962 c 0
 263 962 218 1007 218 1062 c 0
 218 1117 263 1162 318 1162 c 0
EndSplineSet
EndChar

StartChar: uni288C
Encoding: 10380 10380 462
Width: 1008
Flags: HW
LayerCount: 2
Fore
SplineSet
690 46 m 0
 745 46 790 1 790 -54 c 0
 790 -109 745 -154 690 -154 c 0
 635 -154 590 -109 590 -54 c 0
 590 1 635 46 690 46 c 0
690 1162 m 0
 745 1162 790 1117 790 1062 c 0
 790 1007 745 962 690 962 c 0
 635 962 590 1007 590 1062 c 0
 590 1117 635 1162 690 1162 c 0
318 418 m 0
 373 418 418 373 418 318 c 0
 418 263 373 218 318 218 c 0
 263 218 218 263 218 318 c 0
 218 373 263 418 318 418 c 0
EndSplineSet
EndChar

StartChar: uni288D
Encoding: 10381 10381 463
Width: 1008
Flags: HW
LayerCount: 2
Fore
SplineSet
690 46 m 0
 745 46 790 1 790 -54 c 0
 790 -109 745 -154 690 -154 c 0
 635 -154 590 -109 590 -54 c 0
 590 1 635 46 690 46 c 0
690 1162 m 0
 745 1162 790 1117 790 1062 c 0
 790 1007 745 962 690 962 c 0
 635 962 590 1007 590 1062 c 0
 590 1117 635 1162 690 1162 c 0
318 418 m 0
 373 418 418 373 418 318 c 0
 418 263 373 218 318 218 c 0
 263 218 218 263 218 318 c 0
 218 373 263 418 318 418 c 0
318 1162 m 0
 373 1162 418 1117 418 1062 c 0
 418 1007 373 962 318 962 c 0
 263 962 218 1007 218 1062 c 0
 218 1117 263 1162 318 1162 c 0
EndSplineSet
EndChar

StartChar: uni288E
Encoding: 10382 10382 464
Width: 1008
Flags: HW
LayerCount: 2
Fore
SplineSet
690 46 m 0
 745 46 790 1 790 -54 c 0
 790 -109 745 -154 690 -154 c 0
 635 -154 590 -109 590 -54 c 0
 590 1 635 46 690 46 c 0
690 1162 m 0
 745 1162 790 1117 790 1062 c 0
 790 1007 745 962 690 962 c 0
 635 962 590 1007 590 1062 c 0
 590 1117 635 1162 690 1162 c 0
318 418 m 0
 373 418 418 373 418 318 c 0
 418 263 373 218 318 218 c 0
 263 218 218 263 218 318 c 0
 218 373 263 418 318 418 c 0
318 790 m 0
 373 790 418 745 418 690 c 0
 418 635 373 590 318 590 c 0
 263 590 218 635 218 690 c 0
 218 745 263 790 318 790 c 0
EndSplineSet
EndChar

StartChar: uni288F
Encoding: 10383 10383 465
Width: 1008
Flags: HW
LayerCount: 2
Fore
SplineSet
690 46 m 0
 745 46 790 1 790 -54 c 0
 790 -109 745 -154 690 -154 c 0
 635 -154 590 -109 590 -54 c 0
 590 1 635 46 690 46 c 0
690 1162 m 0
 745 1162 790 1117 790 1062 c 0
 790 1007 745 962 690 962 c 0
 635 962 590 1007 590 1062 c 0
 590 1117 635 1162 690 1162 c 0
318 418 m 0
 373 418 418 373 418 318 c 0
 418 263 373 218 318 218 c 0
 263 218 218 263 218 318 c 0
 218 373 263 418 318 418 c 0
318 790 m 0
 373 790 418 745 418 690 c 0
 418 635 373 590 318 590 c 0
 263 590 218 635 218 690 c 0
 218 745 263 790 318 790 c 0
318 1162 m 0
 373 1162 418 1117 418 1062 c 0
 418 1007 373 962 318 962 c 0
 263 962 218 1007 218 1062 c 0
 218 1117 263 1162 318 1162 c 0
EndSplineSet
EndChar

StartChar: uni2890
Encoding: 10384 10384 466
Width: 1008
Flags: HW
LayerCount: 2
Fore
SplineSet
690 46 m 0
 745 46 790 1 790 -54 c 0
 790 -109 745 -154 690 -154 c 0
 635 -154 590 -109 590 -54 c 0
 590 1 635 46 690 46 c 0
690 790 m 0
 745 790 790 745 790 690 c 0
 790 635 745 590 690 590 c 0
 635 590 590 635 590 690 c 0
 590 745 635 790 690 790 c 0
EndSplineSet
EndChar

StartChar: uni2891
Encoding: 10385 10385 467
Width: 1008
Flags: HW
LayerCount: 2
Fore
SplineSet
690 46 m 0
 745 46 790 1 790 -54 c 0
 790 -109 745 -154 690 -154 c 0
 635 -154 590 -109 590 -54 c 0
 590 1 635 46 690 46 c 0
690 790 m 0
 745 790 790 745 790 690 c 0
 790 635 745 590 690 590 c 0
 635 590 590 635 590 690 c 0
 590 745 635 790 690 790 c 0
318 1162 m 0
 373 1162 418 1117 418 1062 c 0
 418 1007 373 962 318 962 c 0
 263 962 218 1007 218 1062 c 0
 218 1117 263 1162 318 1162 c 0
EndSplineSet
EndChar

